<svg xmlns="http://www.w3.org/2000/svg" xmlns:xlink="http://www.w3.org/1999/xlink" version="1.1" x="0px" y="0px" viewBox="0 0 128 128" style="enable-background:new 0 0 128 128;" xml:space="preserve"><g><path d="M17.2150879,56.3312378c0.6386719,0.5906372,1.3570557,1.1144409,2.1657715,1.5357056   C20.8564453,58.6356812,22.4354248,59,23.9916992,59c2.7429199,0,5.409668-1.1378784,7.3162842-3.184082   c0.99646,0.8504028,2.2867432,1.3665771,3.6993408,1.3665771c3.1513672,0,5.7058105-2.5546265,5.7058105-5.7058716   c0-2.6397095-1.7950439-4.8544312-4.229248-5.5059204c0.9033203-0.8952637,1.4641113-2.1353149,1.4641113-3.5076294   c0-2.7286377-2.2119141-4.9406738-4.9406738-4.9406738c-0.1120605,0-0.217041,0.0256348-0.3273926,0.03302   c0.0618896-0.3632812,0.0908203-0.737854,0.0792236-1.1213379c-0.0922852-3.0735474-2.7736816-5.4429932-5.8485107-5.4429932   h-2.1044922c-2.0554199,0-3.8508301,1.1052856-4.8287354,2.7533569c-0.3956299,0.666687-1.1463623,1.0310669-1.9074707,0.8841553   c-1.0655518-0.2055664-2.2088623-0.1917114-3.3917236,0.1115112c-2.8757324,0.7373047-5.1298828,3.1400757-5.6538086,6.0622559   c-0.2883301,1.6074829-0.0748291,3.1416016,0.5057373,4.4804077c0.3363037,0.7754517,0.0968018,1.6497803-0.5577393,2.1844482   c-1.260376,1.0293579-2.0653076,2.5949097-2.0653076,4.3491821v1.4334106c0,3.1015015,2.5141602,5.6157227,5.6158447,5.6157227   C14.4857178,58.8655396,16.2110596,57.8568726,17.2150879,56.3312378z M23.9916992,57   c-1.2913818,0-2.5317383-0.3050537-3.6868896-0.9067993c-0.8861084-0.4616699-1.6425781-1.0725708-2.2700195-1.7785645   c0.0662842-0.3450928,0.1038818-0.7003784,0.1038818-1.0648193v-1.4334106c0-0.1723022-0.0081787-0.3426514-0.0239258-0.5108032   c-0.0771484-0.8218384,0.4689941-1.5647583,1.2414551-1.855835c2.486084-0.9366455,4.3630371-3.1138306,4.8688965-5.7793579   c0.1604004-0.8447876,0.9106445-1.4478149,1.7705078-1.4478149h1.1503906c0.3215332,0,0.6346436-0.0336304,0.9414062-0.0855103   c0.0039062,0.0022583,0.0076904,0.0044556,0.0114746,0.0067139c1.8120117,1.0823975,3.0527344,2.7860718,3.5899658,4.6974487   c0.0367432,0.1307983,0.0736084,0.2615967,0.1038818,0.394165c0.4052734,1.7840576,0.2099609,3.7138062-0.699585,5.4597168   c-0.2962646,0.5686035-0.6646729,1.0802612-1.0731201,1.550354C28.5209961,55.970459,26.3469238,57,23.9916992,57z"></path><path d="M25.3974609,101.6679688c-5.5594482-2.0310059-9.8895264-6.2306519-12.1235352-11.5090942   c0.1352539,5.6116333,0.0301514,12.1650391-0.7790527,17.6879272c0.0003662,0.0007324-0.5300293,4.2254639-1.1025391,7.8808594   c-0.0916748,0.5853271,0.0698242,1.1555176,0.454834,1.6054688c0.3859863,0.4511108,0.9260254,0.699585,1.520752,0.699585   h21.1547852c0.5437012,0,1.052124-0.2143555,1.4317627-0.6035156c0.3796387-0.3892212,0.5811768-0.902832,0.567627-1.4462891   l-0.2576904-10.3433838L25.3974609,101.6679688z"></path><path d="M42.8105469,96.1552734l-4.8339844-2.0852051l-1.0119629-0.4365845l-1.0102539-0.4358521l-4.6848145-2.020874   c-3.1220703-1.3466797-5.4814453-4.1191406-6.3105469-7.4169922L24.0625,80.1943359   c-0.0693359-0.2758179-0.0136719-0.5510254,0.1263428-0.7739258c0.1322021-0.2104492,0.3394775-0.3745117,0.5992432-0.4399414   c0.5341797-0.1328125,1.0791016,0.1904297,1.2138672,0.7255859l0.8964844,3.5654297   c0.6787109,2.6982422,2.6083984,4.9667969,5.1640625,6.0693359l3.8369141,1.6552734l-0.008667-0.3469238   c-0.0126953-0.5112305,0.1708984-1.0079956,0.5130615-1.3880615c0.0070801-0.0080566,0.2089844-0.2374268,0.5074463-0.6348267   c0.9040527-1.2034912,2.699707-3.9553223,2.699707-6.8267822c0-1.5806274-0.5039062-3.5643311-1.1348877-5.4187622   c-0.7382812-2.1704102-1.6513672-4.163208-2.1429443-5.1160889c-1.7554932-3.475769-3.758667-5.7215576-5.6671143-7.1772461   c-0.0274658-0.0209961-0.0543213-0.0379028-0.0817871-0.0585327c-3.0582275-2.2996826-5.8588867-2.574707-6.9758301-2.574707   c-0.2739258,0-0.4284668,0.0164185-0.4300537,0.0166016c-0.0423584,0.0046387-0.104248,0.0100708-0.1468506,0.0119629   c-0.0361328,0.0020142-4.5930176,0.2875977-7.6639404,3.8596802c-1.4492188,1.68573-2.3607178,3.8563843-2.7445068,6.4731445   v0.335144v3.541687l1.1425781,8.7197266c0.9228516,7.046875,5.6425781,12.9384766,12.3173828,15.3769531l10.1276855,3.7011719   l1.0090332,0.3687134l1.0100098,0.3691406l1.1931152,0.4359741c1.2216797,0.4462891,2.5771484,0.3525391,3.7236328-0.2587891   c1.1474609-0.6103516,1.984375-1.6835938,2.2958984-2.9453125C45.9814453,99.2763672,44.875,97.0458984,42.8105469,96.1552734z"></path><path d="M57.8529053,57.2994385c-0.1793213,1.3106689-0.692749,2.5584106-1.5262451,3.6308594   c-0.836792,1.0767822-1.923584,1.878479-3.1435547,2.3741455L56,64.875v8.2161865   c-0.6850586-0.1574097-1.4123535-0.1746216-2.1435547,0.0179443l-13.2089844,3.4789429   c0.5446777,1.7466431,0.963501,3.6033325,0.963501,5.2114258c0,2.1467285-0.7878418,4.1743164-1.6380615,5.744751L56,81.880127V118   c0,0.5527344,0.4472656,1,1,1s1-0.4472656,1-1V80.802002c1.1243896-1.0098877,1.7080078-2.5456543,1.4356689-4.1122437h-0.0001221   C59.2548828,75.6498413,58.7241211,74.7727051,58,74.1237793v-8.133667l5.2491455,2.9266968   c2.0814209,1.1605225,4.1641846-1.5193481,2.5257568-3.2498779L57.8529053,57.2994385z"></path><path d="M46.8640137,60.6913452c1.0250244,0.7966309,2.2387695,1.1824341,3.4437256,1.1824341   c0.256958,0,0.5125732-0.0236206,0.7669678-0.0584717c1.4025879-0.1924438,2.7353516-0.9060669,3.6728516-2.1123047   c0.9375-1.2062988,1.300293-2.6740723,1.1403809-4.0809937c-0.1646729-1.4503784-0.8852539-2.8360596-2.1287842-3.8025513   c-1.0250244-0.7966309-2.2386475-1.1824951-3.4436035-1.1824341c-1.6748047,0.000061-3.3323975,0.7459106-4.4398193,2.1707764   C43.9716797,55.2576904,44.4140625,58.7872925,46.8640137,60.6913452z"></path><path d="M86.7833252,47.3916016h-0.0001221c-5.3481445,0-9.4866943,4.6865845-8.8249512,9.9937744l0.7524414,6.0346069   c0.0606689,0.4863281,0.2977295,0.9334106,0.6662598,1.2564697l11.0390625,9.6774902   c1.2093506,1.0602417,3.1120605,0.3317261,3.3040771-1.2651367l1.8929443-15.7420654   C96.2497559,52.0522461,92.1159668,47.3916016,86.7833252,47.3916016z"></path><path d="M119.265625,83.0447998l-0.9328613-2.1512451c-0.3643799-0.84021-0.4761963-1.7683716-0.3217773-2.6711426   l0.748291-4.3740845c0.4921875-2.8762207-1.7198486-5.5044556-4.6379395-5.5106201l-6.8917236-0.0145264   c-2.9151611-0.0061646-5.1374512,2.6077271-4.6624756,5.4838257l0.7302246,4.4205933   c0.1455078,0.8806763,0.0379639,1.7845459-0.3100586,2.6065063l-0.8094482,1.9125366   c-0.3353271,0.7919922-0.1265869,1.7095947,0.5180664,2.2788086l13.6253662,12.0305176   c1.2906494,1.1394653,3.3221436,0.2243042,3.3237305-1.4973145l0.0102539-10.6308594   C119.6560059,84.2800293,119.5231934,83.6390991,119.265625,83.0447998z"></path><path d="M69.5993652,39.1315308c-0.3642578-0.840271-0.4760742-1.7684326-0.3216553-2.6711426l0.748291-4.3740845   c0.4920654-2.8762207-1.7198486-5.5044556-4.6379395-5.5106201l-6.8917236-0.0145264   c-2.9151611-0.0061646-5.1374512,2.607666-4.6624756,5.4838257l0.7301025,4.4205933   c0.1455078,0.8806763,0.0380859,1.7844849-0.3099365,2.6065063l-0.8079834,1.9088745   c-0.3359375,0.7937622-0.1256104,1.7134399,0.5219727,2.2822876L67.592041,55.2290039   c1.291626,1.1344604,3.3181152,0.2183838,3.3197021-1.5007935l0.0102539-10.5614014   c0.0006104-0.6484375-0.1322021-1.2901001-0.3902588-1.8849487L69.5993652,39.1315308z"></path><ellipse transform="matrix(0.8212666 -0.5705447 0.5705447 0.8212666 1.3822135 38.4122391)" cx="62" cy="17" rx="7.0000448" ry="6.9999952"></ellipse><ellipse transform="matrix(0.8212666 -0.5705447 0.5705447 0.8212666 5.8505492 52.6758537)" cx="87" cy="17" rx="7.0000448" ry="6.9999952"></ellipse><ellipse transform="matrix(0.8212666 -0.5705447 0.5705447 0.8212666 -6.1308889 56.4292564)" cx="87" cy="38" rx="7.0000448" ry="6.9999952"></ellipse><ellipse transform="matrix(0.8212666 -0.5705447 0.5705447 0.8212666 10.140152 66.368927)" cx="111" cy="17" rx="7.0000448" ry="6.9999952"></ellipse><ellipse transform="matrix(0.8212666 -0.5705447 0.5705447 0.8212666 -1.8412865 70.1223297)" cx="111" cy="38" rx="7.0000448" ry="6.9999952"></ellipse><ellipse transform="matrix(0.8212666 -0.5705447 0.5705447 0.8212666 -13.2521801 73.6969986)" cx="111" cy="58" rx="7.0000448" ry="6.9999952"></ellipse></g></svg>