<svg xmlns="http://www.w3.org/2000/svg" xmlns:xlink="http://www.w3.org/1999/xlink" version="1.1" x="0px" y="0px" viewBox="0 0 128 128" style="enable-background:new 0 0 128 128;" xml:space="preserve"><g><path d="M110.9206543,106.1783447l1.930542-4.1051636c0.6376953-1.3560181,0.4640503-2.9547729-0.4500122-4.1422119   l-3.0913086-4.0158081c-0.4553223-0.5915527-1.069519-1.0128174-1.7496948-1.2730103l-0.6276855-8.9371948   c-0.104248-1.4838867-1.3916626-2.6022949-2.8754883-2.4979858c-1.4838257,0.104248-2.6021118,1.3916016-2.4979248,2.8753662   l0.5800171,8.2582397l-2.6455078-0.0095215l-1.6885986-0.9398193l-12.4086914-6.8435669   c-2.6452026-1.4856567-4.8657837-3.6240234-6.4501953-6.2113037L69.3363647,62.644104   C66.4282227,57.8952637,61.2601318,55,55.6915894,55H36.817627h-4.7665405c-6.25,0-12.2471924,2.4676514-16.6873169,6.866272   c-4.4101562,4.3688965-6.7072754,10.4366455-6.2961426,16.6307983l2.3790894,35.8441162   C11.508667,115.2745972,12.2838745,116,13.2192993,116H112c0.5522461,0,1-0.4472656,1-1s-0.4477539-1-1-1h-5.2988892   l2.0911255-3.8150024l-0.1373291-1.9553223C109.6212158,107.8807983,110.4534912,107.1716919,110.9206543,106.1783447z    M108.5020142,106.0529785l-0.7657471-10.9032593l3.0800781,4.0012207c0.4591064,0.5963745,0.5452881,1.3900146,0.2249756,2.071106   l-1.930481,4.1051025C108.9717407,105.6229248,108.7538452,105.8613892,108.5020142,106.0529785z M98.5209351,94.0786133   c0.2953491,0.1643677,0.6274414,0.2512207,0.9654541,0.2524414l2.7931519,0.0100708l0.3436279,4.8920898l-2.913208-1.0183716   c-0.5219727-0.1816406-1.0917969,0.0927734-1.2739258,0.6142578c-0.170105,0.4858398,0.0668335,1.0013428,0.5203857,1.2189331   c0.0332642,0.0159912,0.0577393,0.0429688,0.0933838,0.055481l3.7259521,1.3024902l2.7076416,0.9465332   c0.2583008,0.0898438,0.4638672,0.2773438,0.5786133,0.5253906c0.1142578,0.2490234,0.1225586,0.5273438,0.0229492,0.7822266   c-0.4458008,1.140625-1.6757812,1.7783203-2.8671875,1.4863281l-0.1824951-0.045166l-0.0491333-0.012146l-1.6751709-0.4144897   l-0.6112671-0.1512451c-0.0688477-0.0166016-0.1391602-0.0263672-0.2099609-0.0292969l-3.6002197-0.1087646l-0.4398193-0.0133057   c-0.0162964,0.0002441-0.0303955,0.0083618-0.0465698,0.0093384c-1.0946655-0.0861206-2.1422119-0.4597778-3.0354614-1.1030273   l-2.4025879-1.7299805l7.2263184-7.6531982L98.5209351,94.0786133z M27.0593262,114   c-1.5927734,0-4.8982544-2.9419556-6.2008057-7.0062866c-0.4417725-1.3782349-1.0841064-2.6702271-1.9092407-3.84021   c-0.0703735-0.0998535-0.0067139-0.1519165,0.024353-0.1535034h1.6556396h1.5422363h2.8695679h1.1033325h0.901001h0.6412354   h9.4875488h1.5422363h3.9729004h1.5422363h14.8868408h7.8233032l0.0305176,0.0010986   c0.0006104,0.0004883,0.06427,0.0525513-0.0061035,0.1524048c-0.8251343,1.1699829-1.4674683,2.4619751-1.9091797,3.84021   c-1.2713013,3.9663086-4.4455566,6.855835-6.0783691,6.9931641C58.9382324,113.9902954,58.8944092,114,58.8560181,114H40   H27.0593262z M36.7044067,101h-8.5479736c0.5894775-1.8079224,2.2716675-3.1269531,4.2737427-3.1269531   C34.4326782,97.8730469,36.1148682,99.1920776,36.7044067,101z M48.3205566,101h-3.6655273   c0.2496338-0.7785034,0.9721069-1.3476562,1.8327637-1.3476562S48.0709229,100.2214966,48.3205566,101z M50.3617554,101   c-0.2852783-1.8894653-1.9053955-3.3476562-3.8739624-3.3476562c-1.0102539,0-1.9232178,0.3936157-2.6204834,1.0217285   c-0.2874146-0.8828735-0.6801147-1.7161865-1.1533203-2.4967651c1.0707397-0.7494507,2.3705444-1.1929321,3.7738037-1.1929321   c3.442688,0,6.2744751,2.649353,6.5719604,6.015625H50.3617554z M32.4301758,92.3574219   c3.0530396,0,5.7870483,1.3755493,7.6282349,3.5343018c0.2185059,0.2562256,0.425293,0.5221558,0.6174927,0.7995605   c0.2023926,0.2920532,0.3929443,0.5927734,0.5640259,0.9061279c0.565918,1.0366211,0.9435425,2.1867065,1.1129761,3.4025879   h-2.4365845h-1.0001831h-0.1231689c-0.1268311-0.581543-0.3311157-1.1340332-0.6022339-1.6465454   c-1.0934448-2.0669556-3.263916-3.4804077-5.7605591-3.4804077c-2.5194092,0-4.7047119,1.4403076-5.7880249,3.538147   c-0.2564087,0.496521-0.4522095,1.0286255-0.5743408,1.5888062h-1.2281494h-2.3317261   c0.2155151-1.5465698,0.7741089-2.9848022,1.612915-4.2230835c0.46521-0.6868286,1.0205078-1.3052368,1.6369629-1.8566895   C27.5327759,93.3323364,29.8670044,92.3574219,32.4301758,92.3574219z M53,57c1.1045532,0,2,0.8953857,2,2   c0,1.1045532-0.8954468,2-2,2s-2-0.8954468-2-2C51,57.8953857,51.8954468,57,53,57z M48,60c1.1045532,0,2,0.8953857,2,2   c0,1.1045532-0.8954468,2-2,2s-2-0.8954468-2-2C46,60.8953857,46.8954468,60,48,60z M42,61c1.1045532,0,2,0.8953857,2,2   c0,1.1045532-0.8954468,2-2,2s-2-0.8954468-2-2C40,61.8953857,40.8954468,61,42,61z M36,60c1.1045532,0,2,0.8953857,2,2   c0,1.1045532-0.8954468,2-2,2s-2-0.8954468-2-2C34,60.8953857,34.8954468,60,36,60z M31,57c1.1045532,0,2,0.8953857,2,2   c0,1.1045532-0.8954468,2-2,2s-2-0.8954468-2-2C29,57.8953857,29.8954468,57,31,57z M22.1972656,73.7734375   c0.2148438-0.5078125,0.7993164-0.7470703,1.309082-0.53125c0.5083008,0.2138672,0.7470703,0.8007812,0.5332031,1.3095703   c-0.0400391,0.0957031-3.9614258,9.6699219,1.0654297,18.0527344c0.0371094,0.0622559,0.06427,0.1287842,0.0869751,0.1970215   c-0.5229282,0.3958969-1.0114174,0.8324127-1.4626389,1.3064651l-0.4060745-0.5864944   C17.8647461,84.28125,22.0170898,74.2001953,22.1972656,73.7734375z M62.9082642,114   c1.6893921-1.5454102,3.2353516-3.8441162,4.0532227-6.395874c0.4203491-1.3115234,1.008606-2.4040527,1.6390381-3.2979736   C69.5817261,102.914856,68.6442261,101,66.9417114,101h-7.6769409c0.2699585-3.0748901,0.7345581-5.9547729,1.5178833-7.8694458   c1.4017944-2.9750977,2.0938721-5.4157715,2.4180298-6.8421021c0.001709-0.0137939-0.0037231-0.0265503-0.0014648-0.0404053   c0.8955078-5.4130859-1.519043-11.6572266-1.5439453-11.7197266c-0.2016602-0.5146484,0.0517578-1.0947266,0.565918-1.2958984   c0.5161133-0.2021484,1.0942383,0.0507812,1.2963867,0.5654297c0.1079102,0.2763672,2.6391602,6.8261719,1.6552734,12.7763672   c-0.0199585,0.1204834-0.0615845,0.2319336-0.1188965,0.3321533l3.0532837,3.8037109   c1.7288208,2.1537476,3.9359741,3.8746948,6.446167,5.0262451l13.3889771,6.1001587l4.2566528,3.0649414   c1.246582,0.897583,2.7252197,1.4172974,4.2592773,1.4970093l4.3754883,0.227478   c0.0249634,0.0012817,0.0493774,0.0073853,0.0742798,0.0091553l1.5056152,0.3726196l0.7744141,0.2701416l0.2307129,3.28479   L105.9869995,114H62.9082642z"></path><path d="M15.2910767,50.3916016c2.5709839-0.0075073,7.361084-0.2816162,13.1837769-1.8106079   C31.4368286,50.7230225,35.0653076,52,39,52c9.9411011,0,18-8.0588989,18-18c0-0.5179443-0.0346069-1.0274048-0.0775146-1.5343018   c2.2768555-2.2040405,3.9329834-4.2623901,4.9505615-5.6575928c0.6964722-0.9550171,0.4524536-2.2836304-0.5158691-2.9615479   c-1.8827515-1.3181152-2.7478027-2.2442627-4.3308105-3.6664429c-2.0024414-1.7989502-4.9161377-5.8610229-9.5027466-8.2892456   c-7.8442383-4.2052612-13.1210327,1.5689087-13.1210327,1.5689087S19.781311,10.4628296,15.2404785,28.2626953   c0,0-2.1799316,8.9620972-2.0482788,20.034729C13.2059937,49.4551392,14.1332397,50.3949585,15.2910767,50.3916016z M39,50   c-7.3422241,0-13.5292969-4.9775391-15.4041138-11.730835c8.026598-4.0230598,10.5956421-10.3636265,11.3142242-15.0789356   c0,0,7.9215546,6.6332569,17.9142914,2.7921925C54.1989746,28.3430786,55,31.0769043,55,34C55,42.8224487,47.8224487,50,39,50z"></path><path d="M82.0360107,38.2382202l-1.3046265-0.1895752c-0.6514282-0.0946655-1.2145386-0.5037842-1.5058594-1.0940552   l-0.5834351-1.1821899c-0.7336426-1.4865112-2.8533325-1.4865112-3.5869751,0l-0.5834351,1.1821899   c-0.2913208,0.590271-0.8544312,0.9993896-1.5058594,1.0940552l-1.3045654,0.1895752   c-1.6404419,0.2383423-2.2954712,2.2543335-1.1084595,3.411377l0.9440308,0.920166   c0.4713745,0.4594727,0.6864624,1.121521,0.5751953,1.7702637l-0.2228394,1.2993774   c-0.2802124,1.6337891,1.4346313,2.8796997,2.9018555,2.1083374l1.1668701-0.6134644   c0.5827026-0.3063354,1.2787476-0.3063354,1.8613892,0l1.1668701,0.6134644   c1.4672241,0.7713623,3.1821289-0.4745483,2.9019165-2.1083374l-0.2229004-1.2993774   c-0.1112671-0.6487427,0.1038208-1.310791,0.5751953-1.7702637l0.9440308-0.920166   C84.3314819,40.4925537,83.6764526,38.4765625,82.0360107,38.2382202z"></path><path d="M98.6615601,38.2382202l-1.3046265-0.1895752c-0.6514282-0.0946655-1.2145386-0.5037842-1.5058594-1.0940552   l-0.5834351-1.1821899c-0.7336426-1.4865112-2.8533325-1.4865112-3.5869141,0L91.09729,36.9545898   c-0.2913208,0.590271-0.8544922,0.9993896-1.5059204,1.0940552l-1.3045654,0.1895752   c-1.6404419,0.2383423-2.2954712,2.2543335-1.1084595,3.411377l0.9440308,0.920166   c0.4713745,0.4594727,0.6864624,1.121521,0.5751953,1.7702637l-0.2228394,1.2993774   c-0.2802124,1.6337891,1.4346313,2.8796997,2.9019165,2.1083374l1.1668701-0.6134644   c0.5826416-0.3063354,1.2786865-0.3063354,1.8613281,0l1.1668701,0.6134644   c1.4672852,0.7713623,3.1821289-0.4745483,2.9019165-2.1083374l-0.2228394-1.2993774   c-0.1113281-0.6487427,0.1038208-1.310791,0.5751953-1.7702637l0.9439697-0.920166   C100.9570312,40.4925537,100.302002,38.4765625,98.6615601,38.2382202z"></path><path d="M116.3192749,38.7091064c-0.2735596-0.2406006-0.6220703-0.4113159-1.0321655-0.4708862l-1.3045654-0.1895752   c-0.1628418-0.0236816-0.3202515-0.0669556-0.4691772-0.1278687c-0.1489868-0.0608521-0.2895508-0.1393433-0.4188232-0.2333374   c-0.1292725-0.0939331-0.2473755-0.2033691-0.3513184-0.3262329s-0.1937256-0.2591553-0.2666016-0.4066772l-0.5834351-1.1821289   c-0.1833496-0.3716431-0.4534302-0.6503906-0.7667847-0.8361816s-0.6699829-0.2786865-1.0266724-0.2786865   c-0.3566284,0-0.7133179,0.0928955-1.0266724,0.2786865c-0.1566772,0.0928955-0.3025513,0.2090454-0.4321289,0.3483887   c-0.1296387,0.1394043-0.242981,0.3019409-0.3347168,0.487793l-0.5835571,1.1824341   c-0.0403442,0.0818481-0.0974121,0.1508789-0.1477661,0.2254028c-0.043335,0.06427-0.0806274,0.1334229-0.1304932,0.1920166   c-0.3111572,0.3616943-0.7443848,0.6062012-1.227417,0.6763916l-1.3046265,0.1895752   c-1.6404419,0.2383423-2.2954712,2.2543335-1.1083984,3.411377l0.9439697,0.920166   c0.4713745,0.4594727,0.6864624,1.121521,0.5751953,1.7702637l-0.2228394,1.2993774   c-0.2438965,1.4219971,1.0238037,2.5472412,2.3239136,2.307251v0.0253906   c0.1561279-0.0371094,0.3125-0.0847778,0.4657593-0.1652832l1.2791138-0.6724854   c0.2913208-0.1531372,0.6110229-0.2296753,0.9306641-0.2296753c0.3197021,0,0.6393433,0.0765381,0.9306641,0.2296753   l1.1668701,0.6134644c0.0003052,0.0001221,0.0005493,0.0001831,0.0008545,0.0003052   c0.1702271,0.0894165,0.3439941,0.1459961,0.517334,0.1836548c0.0560913,0.012207,0.1115112,0.0132446,0.1674805,0.0203857   c0.0819092,0.010437,0.1644897,0.0298462,0.2454224,0.0298462c0.0368652,0,0.0719604-0.0100098,0.1085205-0.012085   c0.0562744-0.0031738,0.1114502-0.0105591,0.166748-0.0184937c0.1137695-0.0164185,0.2247925-0.0426636,0.3328857-0.078064   c0.0496826-0.0162354,0.0999756-0.0302124,0.1480713-0.0502319c0.1296997-0.0540161,0.2531128-0.1210938,0.3687134-0.2002563   c0.0184937-0.0126343,0.0395508-0.0209961,0.0575562-0.0342407c0.1307373-0.0959473,0.2476807-0.2097778,0.352356-0.3343506   c0.0296021-0.0352173,0.0529175-0.0754395,0.0801392-0.1127319c0.0695801-0.095459,0.131897-0.196228,0.1838989-0.303833   c0.0244751-0.0506592,0.0458984-0.1028442,0.06604-0.1559448c0.0415649-0.1096191,0.071228-0.2246704,0.0927124-0.3432007   c0.0095215-0.0526123,0.022522-0.1038208,0.027771-0.1578979c0.0167847-0.1743164,0.0174561-0.354248-0.0145874-0.5411987   l-0.2228394-1.2993774c-0.027832-0.1621704-0.0352783-0.3251953-0.0233765-0.4856567   c0.0178223-0.2407227,0.0791016-0.475708,0.1801147-0.6936035s0.2416992-0.4186401,0.418457-0.5909424l0.9439697-0.920166   c0.1483765-0.1446533,0.2679443-0.3026733,0.3604736-0.4690552c0.0924683-0.1663208,0.1578979-0.3409424,0.1978149-0.5186157   s0.0544434-0.3585815,0.0452271-0.5373535c-0.013855-0.2682495-0.0812378-0.5318604-0.1964111-0.7736206   C116.687439,39.109314,116.5244751,38.8895264,116.3192749,38.7091064z M112.9050903,44.6781616l0.2229004,1.2993164   l-1.1669922-0.6135254c-0.5717163-0.3005371-1.215332-0.4593506-1.8612671-0.4593506   c-0.2264404,0-0.4526367,0.0195312-0.6755371,0.0578003v-6.9448242c0.0270996-0.0490723,0.0529175-0.0985718,0.0775146-0.1484375   l0.586731-1.2102661c0.0010986-0.0003662,0.0053101-0.0013428,0.0112915-0.0013428l0.5834351,1.1821289   c0.5827637,1.1807861,1.7086182,1.9988403,3.0117188,2.1881714l1.3045654,0.1896973l-0.9439087,0.920105   C113.1124878,42.0568848,112.6824341,43.3804321,112.9050903,44.6781616z"></path><path d="M118.9697266,30H67c-1.1045532,0-2,0.8954468-2,2v19c0,1.1045532,0.8954468,2,2,2h20.5319214   c0.6519165,0,1.2640991,0.3083496,1.645813,0.8289185l5.6853027,7.7531738   c0.3257446,0.4442139,0.8482056,0.7073364,1.4044189,0.7073364C97.2243042,62.2894287,98,61.5253296,98,60.5827637V55   c0-1.1045532,0.9089966-2,2.0302734-2h18.9394531C120.0910034,53,121,52.1045532,121,51V32   C121,30.8954468,120.0910034,30,118.9697266,30z M118.9697266,51h-18.9394531C97.8079834,51,96,52.7943726,96,55v4.7504272   l-5.2094116-7.104187C90.034729,51.6154175,88.8165283,51,87.5319214,51H67V32h51.9697266H119L118.9697266,51z"></path></g></svg>