<svg xmlns="http://www.w3.org/2000/svg" xmlns:xlink="http://www.w3.org/1999/xlink" version="1.1" x="0px" y="0px" viewBox="0 0 128 128" style="enable-background:new 0 0 128 128;" xml:space="preserve"><g><path d="M110.9990234,57.7314453c-3.2519531-4.125-8.1298828-6.4902344-13.3837891-6.4902344h-0.9301758   c-0.0065918-0.000061-0.0126953-0.0019531-0.0192871-0.0019531h-5.5114746c-0.0053711,0-0.010498,0.0018921-0.0158691,0.0019531   h-2.0895996c-1.5957031,0-3.1767578,0.40625-4.5732422,1.1767578l-0.1669922,0.0917969   c-2.2890625,1.2607422-5.0126953,1.2451172-7.2880859-0.0410156c-1.4189453-0.8027344-3.0322266-1.2275391-4.6650391-1.2275391   h-2.2005615c-0.0053711-0.000061-0.010376-0.0019531-0.0157471-0.0019531h-5.5114746   c-0.0065918,0-0.0126953,0.0018921-0.0192871,0.0019531h-0.9306641c-3.4326172,0-6.6386719,1.8408203-8.3681641,4.8046875   L43.3369141,76.5478516c-0.1611328,0.2753906-0.421875,0.4619141-0.7353516,0.5244141   c-0.3095703,0.0615234-0.6240234-0.0097656-0.8789062-0.203125l-9.7619019-7.4053955l0.1808472-3.1014404   c0.1053467-1.7869873-0.5264893-3.5178223-1.7050781-4.8250122l6.7128906-6.3178101   c0.060791-0.057251,0.1087036-0.1222534,0.1602173-0.1851196c3.7553711-0.2655029,6.3615112-1.5409546,7.7294312-3.8097534   c2.4101562-4.0009766-0.0576172-9.4599609-0.1640625-9.6904297c-0.1425781-0.3095703-0.4345703-0.5244141-0.7724609-0.5712891   c-0.3369141-0.0449219-0.6767578,0.0830078-0.8974609,0.3427734c-0.0273438,0.03125-2.7167969,3.1445312-6.1015625,3.5166016   c-1.7070312,0.1875-2.9580078,0.8632812-3.71875,2.0097656c-1.2900391,1.9462891-0.5556641,4.4775391-0.5234375,4.5839844   c0.0081177,0.0270996,0.0280762,0.0458984,0.038208,0.0717773l-7.3189697,7.7766724   c-0.2799072-0.0976562-0.5697632-0.1699829-0.8706055-0.2000122c-1.0908203-0.1113281-2.1806641,0.2617188-2.9794922,1.0175781   l-5.9892578,5.6660156c-0.7724609,0.7314453-1.2041016,1.7597656-1.1845703,2.8232422   c0.0120239,0.6543579,0.2123413,1.2799072,0.5375366,1.8353271l-3.0924683,3.2858276   c-0.7002563,0.7440186-0.6837769,1.9094238,0.0371704,2.6333618c0.7230835,0.7261353,1.8927002,0.7450562,2.638916,0.0427856   l2.4713135-2.3258667l5.0540161,4.6652832c0.0001831,0.0001831,0.0004883,0.0002441,0.0006714,0.0004272l13.7424927,12.8052368   c2.1865234,2.0371094,5.0136719,3.0673828,7.8466797,3.0673828c2.5498047,0,5.1035156-0.8339844,7.1992188-2.5185547   l7.111084-5.717041c0.7497559,5.0806885,2.0028076,15.3357544,1.1435547,22.4393311   c-0.1425781,1.178833,0.8006592,2.2081299,1.9880371,2.2081299h38.8236084c1.1873779,0,2.1306152-1.0292969,1.9880371-2.2081299   c-0.461792-3.8183594-0.3122559-8.5469971,0.0404053-12.8948975c0.5178223-0.0640869,1.9207764-0.2713623,3.1699219-0.7590332   c0.0131836-0.005188,0.0214844-0.0163574,0.0341797-0.0220337c2.1069336-0.7088623,4.0545654-1.862793,5.7001953-3.4398804   c2.9892578-2.8671875,4.7041016-6.8867188,4.7041016-11.0292969v-9.3681641   C115.6953125,66.3818359,114.0273438,61.5732422,110.9990234,57.7314453z M35.0517578,47.9375   c0.4169922-0.6279297,1.1806641-1.0078125,2.2705078-1.1269531c2.7041016-0.296875,4.9511719-1.9033203,6.2382812-3.0439453   c0.4902344,1.6367188,0.9980469,4.3857422-0.2382812,6.4306641c-0.9707642,1.6066895-2.9212646,2.5444946-5.7793579,2.8117065   c-0.0889893-0.1809692-0.2000122-0.3540649-0.3505859-0.5050049l-1.3208008-1.3242798   c-0.3192749-0.3201294-0.7243652-0.4932251-1.1403809-0.5372314C34.6290283,50.1619263,34.4335327,48.8692017,35.0517578,47.9375z    M83.9243164,94.2562866l-0.6235352,0.0474243c-2.2431641,0.1679688-4.3847656-0.9130859-5.5712891-2.8320312   c-0.8525391-1.3769531-2.0859375-2.4521484-3.5683594-3.109375l-0.5419922-0.2402344   c-0.5244141-0.2324219-0.8613281-0.7529297-0.859375-1.3251953c0.0029297-0.7802734,0.6396484-1.4248047,1.4199219-1.4375   l6.984375-0.1152344c0.0678711-0.0010986,0.1314697-0.0170898,0.1982422-0.022583   c1.5163574-0.1251221,2.7108154-1.3539429,2.7519531-2.8973389l0.0595703-2.2958984   c0.5244141,0.2109375,0.9755859,0.5898438,1.2705078,1.0869141l1.6337891,2.7614136   c-0.0198975,0.0787354-0.0410156,0.1574097-0.0410156,0.2415161v9.9013062L83.9243164,94.2562866z M76.0361328,54.2089844   c1.4570312,0.8251953,3.0605469,1.2373047,4.6640625,1.2373047c1.5693359,0,3.1386719-0.3945312,4.5742188-1.1855469   l0.1669922-0.0917969c1.0068359-0.5552368,2.1364746-0.8571777,3.2844238-0.9072876l-4.7642822,7.0546265   c-1.5860596,2.3484497-5.0438232,2.3484497-6.6297607,0l-4.7689209-7.0616455   C73.779541,53.2886963,74.9764404,53.6102905,76.0361328,54.2089844z M16.5566406,68.5341797   c-0.0097656-0.5097656,0.1884766-0.9824219,0.5595703-1.3330078l5.9892578-5.6660156   c0.206604-0.1957397,0.4558716-0.3289795,0.7219238-0.4078979c0.1640625-0.048645,0.3330078-0.0813599,0.5065918-0.0813599   c0.0595703,0,0.1181641,0.0029297,0.1777344,0.0087891c0.5175781,0.0507812,0.9853516,0.3242188,1.2851562,0.7490234   c0,0,0,0,0,0.0009766c0.3612061,0.5111694,0.5410767,1.1073608,0.5456543,1.7045288   c0.0045776,0.5949097-0.1699829,1.1885986-0.5181274,1.703064c-0.0167236,0.0247192-0.0285645,0.0515137-0.0460815,0.0758057   l-0.5366211,0.7432251l-0.4575195,0.633728c-0.4052734,0.5605469-0.9960938,0.9667969-1.6640625,1.1435547l-2.5931396,0.6873169   l-1.5700684,0.4161377l-1.5683594,0.4157104l-0.5467529,0.1448975c-0.1306763-0.1998901-0.2017822-0.4280396-0.2424927-0.6652832   C16.5836792,68.7165527,16.5582886,68.62854,16.5566406,68.5341797z M20.9684448,70.4481812l2.6633911-0.7059937   c1.1142578-0.2949219,2.0996094-0.9716797,2.7734375-1.9072266l0.9941406-1.3769531   c0.4873047-0.6751709,0.7802124-1.442688,0.8908081-2.2305908l0.8377075-1.1610107   c0.7148438,0.8867188,1.0859375,2.0175781,1.0175781,3.1787109L29.9550781,69.5l-7.1005859,7.0878906l-4.2456055-3.9190063   L20.9684448,70.4481812z M57.6094971,83.2490234c0,0,0.0524902,0.2949829,0.1384277,0.8153076l-8.0096436,6.4395752   c-3.6533203,2.9384766-8.9970703,2.7451172-12.4287109-0.453125L24.3222656,77.9492188l6.6992188-6.6875l9.4921875,7.2011719   c0.7060547,0.5361328,1.609375,0.7421875,2.4794922,0.5703125c0.8691406-0.1728516,1.6240234-0.7119141,2.0703125-1.4775391   l11.9726562-20.5019531c1.1945801-2.0459595,3.2768555-3.4152222,5.5915527-3.7372437v4.1564941   c0,0.428833-0.1254883,0.8419189-0.3662109,1.1968384C60.6651611,61.0233154,54.5290527,71.1208496,57.6094971,83.2490234z    M82.8049316,102.6178589c-3.1376953,2.1516113-12.786377,0.7716675-19.3995361-12.6843872   c-6.6131592-13.4561157,6.4810791-20.2819824,6.4810791-20.2819824s6.3200684-3.5650635,10.8383789,3.0239868   c1.3317871,1.9420166,1.4819336,3.8410645,1.4819336,5.7852783c0,0.2909546-0.0085449,0.5540771-0.0141602,0.826416   l-0.019043,0.7282715c-0.0444336,1.0847778-0.1350098,2.005249-0.25354,2.7935181   c-0.1778564,0.2532349-0.4564209,0.4297485-0.7891846,0.4351807l-6.984375,0.1152344   c-1.8603516,0.0302734-3.3798828,1.5683594-3.3867188,3.4306641c-0.0039062,1.3671875,0.7998047,2.6074219,2.0488281,3.1601562   l0.5419922,0.2402344c1.1123047,0.4931641,2.0380859,1.2998047,2.6777344,2.3339844   c1.4726562,2.3798828,4.0400391,3.796875,6.8066406,3.796875c0.2050781,0,0.4111328-0.0078125,0.6181641-0.0234375   l1.2623291-0.0960693C85.3210449,98.6322021,84.7299805,101.2977905,82.8049316,102.6178589z M113.6953125,80.6396484   c0,3.6005859-1.4902344,7.09375-4.0888672,9.5859375c-1.3620605,1.3052368-2.9628906,2.276001-4.6938477,2.8989868   l-0.0013428,0.0759888c-0.1270752-0.0023193-0.2568359,0.0178833-0.3829346,0.0670166   c-0.7961426,0.3115845-1.7087402,0.489624-2.2592773,0.5787354c-0.3068848,0.0496826-0.5048828,0.0725708-0.4985352,0.0736084   h-1.3554688H89.3828125h-0.3457031v-9.0185547l0.3457031-0.085144l14.6291504-3.6035767l1.1243896-0.2769775l0.2581787-0.0635986   c0.5361328-0.1318359,0.8642578-0.6738281,0.7314453-1.2099609c-0.1318359-0.5361328-0.6757812-0.8691406-1.2099609-0.7314453   l-0.7027588,0.1730957c0.6419678-10.3036499-3.9342041-18.4015503-5.2192383-20.4491577   c-0.2122803-0.3383789-0.3282471-0.7279053-0.3282471-1.1274414V53.300293   c4.2312012,0.2913208,8.1118164,2.3065186,10.7629395,5.6694336c2.7509766,3.4902344,4.2666016,7.859375,4.2666016,12.3017578   V80.6396484z"></path><circle cx="75" cy="76" r="2"></circle><circle cx="68" cy="81" r="3"></circle><circle cx="73" cy="95" r="2"></circle><path d="M60.3134766,41.7653809c-0.1662598,0.4160156-0.2636719,0.8673706-0.2636719,1.3427124   c0,2.00354,1.6242676,3.6277466,3.6279297,3.6277466c1.5216064,0,2.8199463-0.9389648,3.3586426-2.267334   C70.3112793,47.8726196,74.9033203,50,80,50c6.5241699,0,12.2202148-3.482666,15.3769531-8.6786499   c0.3240967,0.0949097,0.6599121,0.1617432,1.0146484,0.1617432c2.0036621,0,3.6278076-1.6242065,3.6278076-3.6277466   c0-1.0906982-0.491333-2.0574951-1.2531738-2.7225342c1.3748779-0.5159302,2.3582764-1.8317871,2.3582764-3.3869019   c0-1.3621826-0.7597656-2.53479-1.8701172-3.1550293c1.1103516-0.6203003,1.8701172-1.7929077,1.8701172-3.1550903   c0-1.8093262-1.3284912-3.2967529-3.060791-3.5705566c0.0762939-0.2929688,0.1297607-0.5949707,0.1297607-0.9118652   c0-2.0036011-1.6241455-3.6278076-3.6278076-3.6278076c-1.0611572,0-2.0068359,0.463623-2.670166,1.1898804   C88.722168,15.7138062,84.565918,14,80,14c-9.0479736,0-16.5150146,6.6829224-17.7875977,15.3775635   c-0.2580566-0.0582275-0.5239258-0.0949097-0.7994385-0.0949097c-2.00354,0-3.6278076,1.6242065-3.6278076,3.6277466   c0,1.0823364,0.4833984,2.0429688,1.2351074,2.7076416c-0.751709,0.6646729-1.2351074,1.6253662-1.2351074,2.7076416   C57.7851562,39.9433594,58.8510742,41.2974243,60.3134766,41.7653809z M80,48   c-6.6506348,0-12.362793-4.0807495-14.7738037-9.8683472c6.5028076-0.2841797,8.2628174-3.2282104,8.7166748-5.0873413   c0.2164307-0.8864136,0.9882812-1.5026855,1.8973389-1.5813599c5.694458-0.4929199,7.7537842-3.3672485,8.4923096-5.2004395   c0.3425293-0.8505249,1.2058105-1.3839111,2.1179199-1.2903442c3.0991211,0.317749,4.932373-0.3128662,6.015625-1.069397   c0.3563232-0.2488403,0.6400146-0.5096436,0.8496094-0.756897c0.2614746,0.3919067,0.5085449,0.7941895,0.7353516,1.2092896   c0.0327148,0.0598755,0.0596924,0.1229858,0.0915527,0.1832886c0.6568604,1.2398071,1.1516113,2.5759888,1.4648438,3.9810181   c0.0093994,0.0422974,0.0231934,0.0828857,0.0322266,0.1253052C95.8718262,29.7277222,96,30.8486938,96,32   c0,0.7778931-0.074707,1.5369263-0.1824951,2.2854614c-0.0292969,0.203186-0.0561523,0.4070435-0.0930176,0.607666   c-0.3543701,1.9295654-1.0587158,3.7329102-2.0402832,5.3550415C90.8789062,44.8843384,85.8029785,48,80,48z"></path></g></svg>