<svg xmlns="http://www.w3.org/2000/svg" xmlns:xlink="http://www.w3.org/1999/xlink" version="1.1" x="0px" y="0px" viewBox="0 0 128 128" style="enable-background:new 0 0 128 128;" xml:space="preserve"><g><circle cx="18.2050781" cy="93.781311" r="10"></circle><path d="M120,106H10c-0.5527344,0-1,0.4477539-1,1s0.4472656,1,1,1h110c0.5527344,0,1-0.4477539,1-1S120.5527344,106,120,106z"></path><path d="M27.2998047,69.503418l5.2766113,2.1842651l5.9587402,2.4666138   c0.8691406,0.359375,1.8203125,0.3476562,2.6826172-0.0307617c0.8603516-0.3798828,1.5117188-1.0761719,1.8320312-1.9609375   c0.5605469-1.546875-0.0625-3.2739258-1.4814453-4.1064453l-7.7294922-4.5375977   c-1.3828125-0.8115234-1.8681641-2.5517578-1.1054688-3.9624023l0.6962891-1.2866211   c0.2333984-0.4283447,0.7285156-0.5987549,1.1757812-0.4581909c0.0600586,0.0188599,0.1221924,0.0238037,0.1796875,0.0548706   c0.4863281,0.2626953,0.6669922,0.8696289,0.4042969,1.3554688l-0.6962891,1.2866211   c-0.2480469,0.4575195-0.0908203,1.0224609,0.3574219,1.2856445l7.7294922,4.5375977   c2.2509766,1.3203125,3.2392578,4.059082,2.3505859,6.512207c-0.5087891,1.4033203-1.5410156,2.5078125-2.90625,3.1098633   c-0.7021484,0.309082-1.4423828,0.4643555-2.1826172,0.4643555c-0.7011719,0-1.4023438-0.1386719-2.0722656-0.4160156   l-5.1491699-2.1315308c-0.0045166,3.4248047-0.2636719,6.8465576-0.8054199,10.2327881l-0.0415039,0.2593994   c1.8039551-1.9422607,4.2075195-3.3384399,6.9614258-3.8566284c1.105835-0.2080688,2.2054443-0.3049927,3.4606934-0.3049927   c0.9909668,0,2.0915527,0.0587769,3.463623,0.1849365l0.0582275,0.0053711l0.0577393,0.0087891l15.9560547,2.4145508   c-0.4165039-2.9831543-0.635498-5.9880981-0.6369629-8.9978638l-5.2788086,2.1851807   c-0.6699219,0.2773438-1.3720703,0.4160156-2.0722656,0.4160156c-0.7412109,0-1.4814453-0.1552734-2.1835938-0.4648438   c-1.3652344-0.6025391-2.3974609-1.706543-2.9052734-3.109375c-0.8588867-2.3706665,0.0473633-4.9963989,2.1390381-6.3621826   l-1.1141357-1.9250488L49.671875,64.560791c-0.9372559,0.5423584-2.1365967,0.2224121-2.6789551-0.7147217l-1.1829834-2.0438843   c-1.052124-1.817688-0.4313965-4.144104,1.3863525-5.196167l1.9763184,3.4146729l2.0936279,3.6172485h-0.0001221   l1.097168,1.8955688l6.3701172-3.739563c0.4482422-0.2631836,0.6054688-0.828125,0.3574219-1.2856445l-0.6962891-1.2866211   c-0.2626953-0.4858398-0.0820312-1.0927734,0.4042969-1.3554688c0.0576172-0.031311,0.119751-0.0362549,0.1799316-0.0552979   c0.4486084-0.1418457,0.9438477,0.0306396,1.1755371,0.4586182l0.6962891,1.2866211   c0.7626953,1.4106445,0.2773438,3.1508789-1.1054688,3.9624023l-7.7294922,4.5375977   c-1.4179688,0.8325195-2.0410156,2.5595703-1.4804688,4.1069336c0.3203125,0.8842773,0.9707031,1.5805664,1.8310547,1.9599609   c0.8613281,0.3798828,1.8144531,0.3911133,2.6835938,0.03125l6.0913086-2.5214844l5.144043-2.1293945   c2.8164062-1.1660156,4.6054688-3.8881836,4.5566406-6.9355469c-0.0136719-0.8325195-0.1660156-1.6494141-0.4521484-2.4267578   l-4.1435547-11.2827148c-0.9383545-2.553894-2.6582031-4.6738892-4.8237305-6.1390381   c-2.0625-1.3955078-4.5290527-2.1973877-7.1206055-2.1973877h-0.7980957h-0.2824707   c-0.6091309,0.0490112-1.1970215,0.2506104-1.6989746,0.6050415l-3.5332031,2.4959717   c-0.6782227,0.4789429-1.5843506,0.4789429-2.2624512,0l-3.5333252-2.4959717   c-0.5211182-0.368042-1.1348877-0.5725098-1.7689209-0.6104736c-0.0095215,0.0002441-0.017334,0.0054321-0.0268555,0.0054321   h-0.3167725h-0.7984619c-2.4735107,0-4.8311768,0.7338867-6.8347168,2.013855   c-2.2988281,1.4685669-4.1297607,3.6583252-5.1086426,6.3225708l-4.1445312,11.2817383   c-0.2861328,0.78125-0.4384766,1.5976562-0.4511719,2.4272461C22.6943359,65.6152344,24.4833984,68.3378906,27.2998047,69.503418z"></path><path d="M102.5869141,63.4765625c0.4492188,0,0.8574219-0.3046875,0.9697266-0.7602539l1.2216797-4.9487305   c0.1328125-0.5361328-0.1953125-1.078125-0.7314453-1.2104492c-0.5322266-0.1328125-1.0771484,0.1953125-1.2099609,0.730957   l-1.2216797,4.9487305c-0.1328125,0.5361328,0.1953125,1.078125,0.7314453,1.2104492   C102.4267578,63.4672852,102.5078125,63.4765625,102.5869141,63.4765625z"></path><path d="M89.9384766,57.6640625c0.3339844,0,0.6601562-0.1669922,0.8496094-0.4711914l3.2910156-5.2802734   c0.2919922-0.46875,0.1494141-1.0854492-0.3193359-1.3774414c-0.4697266-0.2915039-1.0859375-0.1494141-1.3779297,0.3198242   l-3.2910156,5.2802734c-0.2919922,0.46875-0.1494141,1.0854492,0.3193359,1.3774414   C89.5751953,57.6152344,89.7578125,57.6640625,89.9384766,57.6640625z"></path><path d="M80.0185547,47.9335938l5.2304688-4.309082c0.4267578-0.3515625,0.4873047-0.9814453,0.1357422-1.4077148   c-0.3496094-0.4257812-0.9794922-0.4873047-1.4072266-0.1362305l-5.2304688,4.309082   c-0.4267578,0.3515625-0.4873047,0.9814453-0.1357422,1.4077148c0.1972656,0.2402344,0.4833984,0.3642578,0.7724609,0.3642578   C79.6074219,48.1616211,79.8320312,48.0869141,80.0185547,47.9335938z"></path><path d="M110.6762695,56.2906494c1.0465088,0,1.894165-0.2737427,2.4920654-0.8496704   c0.4134521-0.3983154,0.6795654-0.9272461,0.8210449-1.5574341c6.3751221-12.8925781,2.8939209-28.8121948,1.7399902-33.1859131   c-0.1885986-0.7144165-0.7601318-1.2641602-1.4799805-1.4310913c-21.5740967-5.0042114-31.3963623-1.2391357-34.2596436,0.2983398   c-0.3430176,0.1345215-0.6507568,0.3140869-0.9077148,0.555542c-0.0080566,0.0075073-0.0183105,0.0122681-0.0262451,0.0198975   c-3.1682129,3.0517578,1.8997803,13.4279785,11.3197021,23.1760254   C98.0177002,51.2246704,106.1772461,56.2906494,110.6762695,56.2906494z M111.7808838,54.0005493   c-0.2490234,0.2397461-0.7381592,0.2901001-1.1046143,0.2901001c-3.4361572,0-11.0186768-4.2470093-18.8625488-12.3641357   c-7.7635498-8.0338745-11.7628174-15.7323608-11.7009277-19.1848145c0.0057373-0.3201904,0.0562744-0.8967896,0.3304443-1.1609497   c0.2490234-0.2397461,0.7381592-0.2901001,1.1046143-0.2901001c3.4361572,0,11.0186768,4.2470093,18.8625488,12.3641357   c7.7635498,8.0338745,11.7628174,15.7322998,11.7009277,19.1848145   C112.1055908,53.15979,112.0550537,53.7363892,111.7808838,54.0005493z"></path><path d="M106.8671875,50.2661133c0.1962891,0.2016602,0.4570312,0.3032227,0.7177734,0.3032227   c0.2509766,0,0.5019531-0.09375,0.6962891-0.2827148c0.3964844-0.3842773,0.40625-1.0175781,0.0214844-1.4140625   l-1.9492188-2.0078125c-0.3857422-0.3959961-1.0185547-0.4057617-1.4140625-0.0205078   c-0.3964844,0.3842773-0.40625,1.0175781-0.0214844,1.4140625L106.8671875,50.2661133z"></path><path d="M99.7998047,42.987793L101.75,44.9960938c0.1962891,0.2016602,0.4570312,0.3032227,0.7177734,0.3032227   c0.2509766,0,0.5019531-0.09375,0.6962891-0.2827148c0.3964844-0.3847656,0.40625-1.0175781,0.0214844-1.4140625   l-1.9501953-2.0083008c-0.3857422-0.3959961-1.0185547-0.4057617-1.4140625-0.0205078   C99.4248047,41.9584961,99.4150391,42.5913086,99.7998047,42.987793z"></path><path d="M96.1181641,36.3242188c-0.3857422-0.3955078-1.0205078-0.4052734-1.4140625-0.0205078   c-0.3964844,0.3847656-0.40625,1.0180664-0.0214844,1.4140625l1.9501953,2.0078125   c0.1962891,0.2016602,0.4570312,0.3032227,0.7177734,0.3032227c0.2509766,0,0.5029297-0.09375,0.6962891-0.2827148   c0.3964844-0.3847656,0.40625-1.0180664,0.0214844-1.4140625L96.1181641,36.3242188z"></path><path d="M91.0009766,31.0541992c-0.3857422-0.3950195-1.0185547-0.4057617-1.4140625-0.0205078   c-0.3964844,0.3842773-0.40625,1.0175781-0.0214844,1.4140625l1.9492188,2.0078125   c0.1962891,0.2016602,0.4570312,0.3032227,0.7177734,0.3032227c0.2509766,0,0.5019531-0.09375,0.6962891-0.2827148   c0.3964844-0.3842773,0.40625-1.0175781,0.0214844-1.4140625L91.0009766,31.0541992z"></path><path d="M85.8828125,25.7836914c-0.3857422-0.3950195-1.0185547-0.4057617-1.4140625-0.0205078   c-0.3964844,0.3847656-0.40625,1.0175781-0.0214844,1.4140625l1.9501953,2.0083008   c0.1962891,0.2016602,0.4570312,0.3032227,0.7177734,0.3032227c0.2509766,0,0.5019531-0.09375,0.6962891-0.2827148   c0.3964844-0.3847656,0.40625-1.0175781,0.0214844-1.4140625L85.8828125,25.7836914z"></path><path d="M71.8759766,36.6704102c0.1230469,0,0.2480469-0.0229492,0.3681641-0.0708008l6.1796875-2.4501953   c0.5136719-0.2036133,0.7646484-0.784668,0.5615234-1.2983398c-0.203125-0.5141602-0.7890625-0.7641602-1.2978516-0.5610352   l-6.1796875,2.4501953c-0.5136719,0.2036133-0.7646484,0.784668-0.5615234,1.2983398   C71.1015625,36.4311523,71.4785156,36.6704102,71.8759766,36.6704102z"></path><path d="M113.3782959,103.7622681c3.0036621,0,5.4385986-2.4349976,5.4385986-5.4386597   c0-2.6894531-1.9656982-4.9750366-3.5008545-5.3774414l-53.2907715-8.06427l-16.5493164-2.5043335   c-1.2801514-0.1177368-2.3424072-0.1765747-3.2803955-0.1765747c-1.1618652,0-2.1328125,0.090271-3.0908203,0.2705078   c-3.7355957,0.7029419-6.7102051,3.2930908-8.0217285,6.6720581c-0.4626465,1.1916504-0.7226562,2.479248-0.7303467,3.8197632   v0.000061c-0.0338135,5.9541016,4.7835693,10.7988892,10.737793,10.7988892h29.5319824   c1.692749-0.3864136,2.9625244-1.8973999,2.9625244-3.7056274c0-1.8881836-1.4101562-3.5092773-3.2802734-3.7709961   l-25.1865234-3.5224609c-0.546875-0.0761719-0.9277344-0.581543-0.8515625-1.1289062   c0.0751953-0.546875,0.578125-0.9345703,1.1289062-0.8515625l25.1865234,3.5224609   c2.8525391,0.3989258,5.0029297,2.871582,5.0029297,5.7514648c0,1.4075928-0.5041504,2.6992798-1.340332,3.7056274H113.3782959z"></path><path d="M34.9057617,38.7924805c1.1682129-0.0414429,2.9685059-0.4209595,5.1311035-1.9001465   c1.7822266,1.6451416,4.1567383,2.6583862,6.7735596,2.6583862c2.6158447,0,4.989624-1.0126343,6.7717285-2.6568604   c2.1617432,1.4780273,3.9613037,1.8571777,5.1290283,1.8986206c0.7983398,0.0282593,1.4573975-0.609436,1.4573975-1.4082642   c0-0.395874-0.1696777-0.7628174-0.4593506-1.0325928c-1.2949219-1.2058716-2.6781006-6.9232178-3.0872803-8.7198486   c-0.0292969-0.1286011-0.0533447-0.2348633-0.0721436-0.3200073c-0.03125-0.1403198-0.0518799-0.2358398-0.0518799-0.2358398   c0.0003662,0.0106812-0.0008545,0.0212402-0.0006104,0.0319214c-1.0917969-4.3397217-5.0084229-7.5571289-9.6868896-7.5571289   c-4.6837158,0-8.6038818,3.2244263-9.6905518,7.5712891c0.0004883-0.0154419-0.0013428-0.0306396-0.0008545-0.0460815   c0,0-0.0268555,0.1259155-0.076416,0.3468018c-0.0097656,0.0437012-0.0241699,0.1060181-0.0357666,0.1569824   c-0.3936768,1.7351074-1.7915039,7.5541382-3.0991211,8.7719116c-0.2895508,0.2697754-0.4592285,0.6367188-0.4592285,1.0325928   C33.4484863,38.1830444,34.1074219,38.8207397,34.9057617,38.7924805z M46.5583496,24.5721436   c1.09729,1.317688,3.3942871,2.956543,8.0078125,3.0523071c0.0866699,0.3486938,0.1574707,0.7033081,0.1965332,1.0682373   l-4.3720703,2.3278198c-0.0480957,0.0256348-0.0789795,0.067749-0.1210938,0.0996704l-2.2236328-0.9238892   c-0.7265625-0.3012695-1.5302734-0.3076172-2.2626953-0.015625l-2.4353027,0.9718018   c-0.0531006-0.0447388-0.0966797-0.0980225-0.1604004-0.131958l-4.3325195-2.3067627   c0.0396729-0.380188,0.1142578-0.7491455,0.2055664-1.1116943C42.7030029,27.4663086,45.072998,26.0548096,46.5583496,24.5721436z    M46.8104248,37.5507202c-1.4418945,0-2.7922363-0.3889771-3.961792-1.0592041V34.487793   c0-0.597168,0.3583984-1.1259766,0.9140625-1.347168l2.7617188-1.1020508   c0.2451172-0.097168,0.5136719-0.0961914,0.7548828,0.0048828l2.5986328,1.0795898   c0.5429688,0.2260742,0.8945312,0.7514648,0.8945312,1.3393555v2.0289917   C49.6027832,37.1617432,48.2524414,37.5507202,46.8104248,37.5507202z M52.7724609,34.866333v-0.4039307   c0-0.7680664-0.2587891-1.4863892-0.6999512-2.0715332l2.5986328-1.3835449   C54.3999023,32.4733887,53.7272949,33.7965698,52.7724609,34.866333z M41.5478516,32.4133301   c-0.4411621,0.5844116-0.6992188,1.3029175-0.6992188,2.0744629v0.3787842   c-0.949707-1.0638428-1.6209717-2.3780518-1.8950195-3.8345337L41.5478516,32.4133301z"></path></g></svg>