<svg xmlns="http://www.w3.org/2000/svg" xmlns:xlink="http://www.w3.org/1999/xlink" version="1.1" x="0px" y="0px" viewBox="0 0 128 128" style="enable-background:new 0 0 128 128;" xml:space="preserve"><g><path d="M80.9574585,98.5339966C80.9798584,98.8118286,81,99.090332,81,99.3738403v14.5327148   c0,0.7678223-0.2255249,1.4787598-0.5947876,2.0934448H88v-7.0460205c0-1.43396-0.5146484-2.8226318-1.4491577-3.9102173   L80.9574585,98.5339966z"></path><path d="M87.7333984,92.8017578c-0.3227539-0.2626953-0.4492188-0.6982422-0.3178711-1.0927734l0.4817505-1.4446411   l-4.4068604-1.440918c-1.1930542-0.3901367-2.154541-1.2846069-2.6296387-2.4464111v-0.000061   c-0.7861938-1.9226074-2.8400879-3.0023804-4.8696289-2.5601196l-1.3424683,0.2925415   c0.5396118,1.8074951,0.9472046,3.8922119,1.1257935,6.270813c0.8479614,0.4873657,1.6210327,1.0882568,2.2970581,1.786438   l0.0001831-0.0600586l9.9960938,11.6337891C89.3145142,105.1912842,90,107.0409546,90,108.9539795V116h15.944458   c1.1045532,0,2-0.8954468,2-2v-6.1779785c-1.4877319-0.3123779-2.9087524-0.9614258-4.1217041-1.9470215L87.7333984,92.8017578z"></path><path d="M62.4813843,48.5876465c-0.2369995,0.5259399-0.3759766,1.1051636-0.3759766,1.7194214   c0,2.3196411,1.8804321,4.2000122,4.2000122,4.2000122c0.8591919,0,1.6566162-0.2603149,2.3220825-0.703064   C71.9122314,58.1664429,77.1186523,61,83,61c5.8431396,0,11.0203247-2.7965698,14.3086548-7.1105957   c0.6339111,0.3839722,1.3695068,0.6176758,2.1647949,0.6176758c2.3196411,0,4.2000122-1.8803711,4.2000122-4.2000122   c0-0.824585-0.2462769-1.5880127-0.6567993-2.2368774c1.2078247-0.7376709,2.0217896-2.0561523,2.0217896-3.5750122   c0-2.3195801-1.8804321-4.2000122-4.2000122-4.2000122c-0.0213623,0-0.0410767,0.0059814-0.0623779,0.0062866   c-0.274292-1.819519-0.8175049-3.5463867-1.593689-5.1445923c4.4090576-0.3602295,8.0881348-3.7971191,8.5894775-8.3583374   c0.5686035-5.1729736-3.1639404-9.8273926-8.3369141-10.3959351c-5.1729126-0.5686035-9.8273315,3.1640015-10.3959351,8.3369141   c-0.0484009,0.4403687-0.0546265,0.8747559-0.0424805,1.3054199C87.1182861,25.3803711,85.105835,25,83,25   c-9.1584473,0-16.7024536,6.8453369-17.8362427,15.6954956c-0.5379639-0.2504272-1.1317749-0.4003296-1.7642822-0.4003296   c-2.3195801,0-4.2000122,1.8804321-4.2000122,4.2000122C59.1994629,46.4984741,60.6046753,48.1679077,62.4813843,48.5876465z    M83,59c-5.3613281,0-10.1036377-2.659729-13.0084839-6.7193604c-1.2722778-1.7780151-2.2001953-3.817749-2.6586914-6.0320435   c-0.0143433-0.0690918-0.0216064-0.1405029-0.0350342-0.2099609C67.1075439,45.053772,67,44.0396118,67,43   c0-0.1939087,0.0222168-0.3822632,0.0291138-0.5745239c0.0014038-0.000061,0.0028076-0.0001221,0.0041504-0.0001831   c0.8859863-0.0413818,1.7457275-0.1551514,2.5734253-0.3448486c-0.0776978,0.3953247-0.1206055,0.8031616-0.1206055,1.2212524   c0,3.4793701,2.8206177,6.2999878,6.3000488,6.2999878c3.2468262,0,5.9179077-2.4567871,6.2608032-5.6124268h2.1311035   c0.4800415,3.0031128,3.0748901,5.300293,6.2131958,5.300293c3.4794312,0,6.2999878-2.8206177,6.2999878-6.2999878   c0-0.8352661-0.1661987-1.6307983-0.4614258-2.3602295c0.8167114,0.1296997,1.6706543,0.2061768,2.5648193,0.2178955   c0.0145874,0.0001831,0.0286865,0.0011597,0.043335,0.0012817C98.9334717,41.5540771,99,42.2686768,99,43   c0,1.0911865-0.1113892,2.1566772-0.3204956,3.1870728c-0.1107788,0.5456543-0.2496338,1.0809937-0.4144897,1.6050415   c-0.5332642,1.6949463-1.3538208,3.2589722-2.3846436,4.65979C92.96521,56.4135742,88.284729,59,83,59z M94.6912231,42.989563   c0,2.3710327-1.9289551,4.2999878-4.2999878,4.2999878s-4.2999878-1.9289551-4.2999878-4.2999878   s1.9289551-4.2999878,4.2999878-4.2999878c0.090332,0,0.1748047,0.0211792,0.2637329,0.0266724   c1.0675659,0.0662231,2.0341187,0.5075073,2.7511597,1.2141724C94.1978149,40.7107544,94.6912231,41.7927856,94.6912231,42.989563z    M83.0679932,31.3536377c0.9675293,1.5441284,2.6511841,3.8052368,5.1295776,5.7363892   c-2.0939941,0.7792358-3.6574097,2.6358643-4.0194092,4.899231h-2.2310181   c-0.4493408-2.1191406-1.9653931-3.8387451-3.9584351-4.5838623   C80.1055908,35.4622192,81.8057251,33.2580566,83.0679932,31.3536377z M71.9932251,41.3190918   c0.7197266-1.3703003,2.140625-2.3174438,3.7929077-2.3174438c0.0808105,0,0.156189,0.0194702,0.2359009,0.0238647   c2.2594604,0.1253052,4.0640869,1.9859619,4.0640869,4.2761841c0,2.3710327-1.9289551,4.2999878-4.2999878,4.2999878   s-4.3000488-1.9289551-4.3000488-4.2999878C71.486084,42.5829468,71.6801147,41.9151611,71.9932251,41.3190918z"></path><path d="M75.8783569,92.8565674c-0.6124878-0.4942017-1.2944946-0.9052124-2.031311-1.2125854   c-0.0303955-0.7554932-0.0803833-1.486145-0.1568604-2.1813354c-0.812561-7.3858643-4.0252686-11.4067383-5.4355469-12.8439331   C67.8617554,76.2183228,67.3257446,76,66.7647705,76h-2.2224121h-4.1901855H48.3806763H34.7214966   c-1.670166,0-2.6503906,1.8386841-1.7562866,3.2493286c1.3392944,2.1130981,2.769165,5.3418579,3.3243408,9.8321533   c0.0287476,0.2324829,0.0527954,0.4711304,0.0766602,0.7104492c0.0410156,0.4119263,0.0792847,0.8258667,0.1046753,1.2584229   c-0.4389648,0.0470581-0.8646851,0.1350098-1.2806396,0.2472534c-0.2390137,0.0645142-0.4730225,0.1394043-0.703064,0.223999   c-3.1497192,1.1586914-5.4034424,4.1506348-5.473999,7.6853027l-0.0021973,0.0027466l0.0019531,0.0001221   C29.0118408,99.2653198,29,99.3179932,29,99.3738403v0.1680908v14.364563c0,0.1445312,0.0146484,0.2856445,0.0425415,0.421936   c0.0406494,0.1985474,0.1176758,0.3818359,0.2102051,0.555542c0.0980225,0.18396,0.2142944,0.3567505,0.3604126,0.5028687   s0.3189087,0.2623901,0.5028687,0.3604126c0.1737061,0.0925293,0.3569946,0.1695557,0.555542,0.2102051   C30.8078613,115.9853516,30.9489136,116,31.0934448,116h0.000061h30.3002319h15.5128174   c0.1445312,0,0.2855835-0.0146484,0.421875-0.0425415c0.2454834-0.0502319,0.4719849-0.1486816,0.6779785-0.2766724   c0.0227051-0.0140991,0.0485229-0.0233765,0.0706177-0.0383301c0.1113892-0.0752563,0.2150879-0.1608887,0.3098145-0.2556152   c0.2840576-0.2841187,0.4869995-0.6495972,0.5706177-1.0584106C78.9853516,114.1921387,79,114.0510254,79,113.9064941V99.3738403   c0-1.385498-0.3421021-2.6890259-0.9378052-3.8400879C77.5250854,94.4958496,76.7803345,93.5844116,75.8783569,92.8565674z    M34.6437988,78.0418701C34.6659546,78.0015869,34.6826172,78,34.7214966,78h11.7962036h13.8842163h2.4239502h3.9389038   c0.0161743,0,0.0457153,0.0025635,0.0623779,0.0194702c1.2748413,1.2993164,3.9612427,4.7271118,4.7962036,11.0310669   c0.0827026,0.6246338,0.1536255,1.2674561,0.1967163,1.9495239h-1.192749h-9.8861084L51.6687012,91H38.4835815   c-0.0393066-0.6934814-0.1038818-1.3552246-0.1802979-2c-0.0582275-0.4910278-0.1344604-0.9544678-0.2114258-1.4176025   c-0.7102051-4.2714233-2.1560669-7.3822021-3.4373779-9.4037476   C34.6372681,78.1514893,34.6084595,78.1060791,34.6437988,78.0418701z"></path><path d="M54,46c0-0.5527344-0.4477539-1-1-1h-2V35H41v10h-3V23H28v22h-3V22c0-1.1046143-0.8954468-2-2-2h-6   c-1.1045532,0-2,0.8953857-2,2v23h-2c-0.5522461,0-1,0.4472656-1,1s0.4477539,1,1,1h40C53.5522461,47,54,46.5527344,54,46z M17,27   c0-1.1045532,0.8954468-2,2-2h2c1.1046143,0,2,0.8954468,2,2v8c0,1.1045532-0.8953857,2-2,2h-2c-1.1045532,0-2-0.8954468-2-2V27z"></path><rect x="41" y="30" width="10" height="3"></rect><path d="M51,25c0-1.1045532-0.8954468-2-2-2h-6c-1.1045532,0-2,0.8954468-2,2v3h10V25z"></path><path d="M38,16c0-1.1046143-0.8954468-2-2-2h-6c-1.1045532,0-2,0.8953857-2,2v5h10V16z"></path><rect x="19" y="27" width="2" height="8"></rect><path d="M117.4135742,96.3632812l-6.2597656-23.7207031c-1.4561157-5.5161133-6.4123535-9.3833008-12.0988159-9.4846191   l0.0021362,0.0094604c-0.1274414-0.005188-0.2525635-0.0192261-0.3812866-0.0192261h-6.1992188   c-1.1760254,0-2.2924805,0.5175171-3.0524902,1.414978l-3.7359619,4.4115601   c-1.6549683,1.9542236-4.694458,1.871582-6.2408447-0.1696167l-3.085022-4.0722656   c-0.7561646-0.9981689-1.9361572-1.5846558-3.1883545-1.5846558h-0.2681274h-1.5536499h-2.2973022   c-5.5504761,0-10.8512573,2.3065796-14.6344604,6.367981L50.2437134,74h10.1159668h5.8991699h0.5059204   c1.1105957,0,2.1466675,0.4324951,2.9174194,1.2179565c0.4594727,0.4682007,1.0696411,1.159729,1.727478,2.0873413   l1.7056274-1.22052c1.3578491-0.9716187,2.9857178-1.4940186,4.6553955-1.4940186h5.3907471   c1.4841919,0,2.9156494,0.5500488,4.0178833,1.5439453l4.6889038,4.2277832   c0.1496582-0.0085449,0.2998657,0.0090942,0.4408569,0.0681763l11.7270508,4.9113159l0.6547852,0.274231   c0.5092773,0.2138672,0.7495117,0.7998047,0.5361328,1.3095703c-0.2138672,0.5087891-0.7998047,0.7480469-1.3085938,0.5361328   l-11.3876953-4.7695312l-2.9990234,8.9931641l15.5522461,12.6367188c0.8505859,0.69104,1.8294067,1.1791992,2.8604736,1.4549561   c1.7199707,0.460022,3.5855103,0.3287354,5.2449951-0.4393311   C116.5942383,103.7636719,118.3706055,99.9902344,117.4135742,96.3632812z M77.8583984,73.0898438h-1.7192383   c-1.4995117,0-2.7192383-1.2197266-2.7192383-2.7197266v-0.2216797c0-0.3964844-0.3227539-0.7197266-0.7197266-0.7197266   c-1.164978,0-2.1528931-0.7399292-2.5393677-1.7713013c-0.1109619-0.2962036-0.1798706-0.6130371-0.1798706-0.9474487v-1.5351562   c0-0.5527344,0.4477539-1,1-1c0.4171753,0,0.7731323,0.2558594,0.9230957,0.6190186   c0.0485229,0.1175537,0.0769043,0.2457886,0.0769043,0.3809814v1.0054932v0.5296631   c0,0.3964844,0.3227539,0.71875,0.7192383,0.71875c0.2034302,0,0.4001465,0.0263672,0.5909424,0.0689087   c1.0305176,0.2298584,1.8416138,1.0431519,2.0650024,2.0762329c0.0401611,0.1855469,0.0637817,0.3771362,0.0637817,0.574585   v0.2216797c0,0.3964844,0.3227539,0.7197266,0.7192383,0.7197266h0.7247925h0.9944458c0.5522461,0,1,0.4472656,1,1   S78.4106445,73.0898438,77.8583984,73.0898438z M94.831543,66.7099609c0,1.4990234-1.2202148,2.71875-2.7197266,2.71875   c-0.3964844,0-0.7192383,0.3232422-0.7192383,0.7197266v0.2216797c0,1.5-1.2197266,2.7197266-2.7192383,2.7197266h-1.7197266   c-0.5522461,0-1-0.4472656-1-1s0.4477539-1,1-1h0.9946899h0.7250366c0.3964844,0,0.7192383-0.3232422,0.7192383-0.7197266   v-0.2216797c0-0.1975708,0.0236816-0.3892212,0.0638428-0.5748901c0.2234497-1.03302,1.0343628-1.8463745,2.0648193-2.0760498   c0.1906738-0.0425415,0.3872681-0.0687866,0.5905762-0.0687866c0.3969727,0,0.7197266-0.3222656,0.7197266-0.71875v-0.5299072   v-1.005249c0-0.5527344,0.4477539-1,1-1s1,0.4472656,1,1V66.7099609z"></path></g></svg>