<svg xmlns="http://www.w3.org/2000/svg" xmlns:xlink="http://www.w3.org/1999/xlink" version="1.1" x="0px" y="0px" viewBox="0 0 128 128" style="enable-background:new 0 0 128 128;" xml:space="preserve"><g><path d="M99.081543,48.156311l-14.1732178-6.3417969C84.9680786,41.2176514,85,40.6125488,85,40   c0-2.1763916-0.4059448-4.2531738-1.1136475-6.1843262c1.1139526-0.0836792,2.0146484-0.3185425,2.7039185-0.6035156   c1.1835938-0.4894409,1.8466187-1.7560425,1.6322021-3.0187988c-0.2271118-1.3374634-1.3859253-2.31604-2.7424927-2.31604   h-0.4864502l0.5645142-0.3881226c1.1038818-0.7589111,1.5345459-2.1813965,1.0370483-3.4251099   c-0.5507202-1.3768921-2.055603-2.1026611-3.477478-1.6815796c-2.6156616,0.7745972-6.5935059,1.7819214-8.4056396,1.3719482   c-1.8319702-0.8713989-3.8296509-1.4481201-5.9362183-1.6599121c-0.0080566-0.0013428-0.0210571-0.00354-0.0210571-0.00354   l0.0031128,0.0019531C68.1792603,22.0354004,67.5940552,22,67,22c-2.7009888,0-5.253479,0.6117554-7.5527344,1.6777344   c-0.3308716,0.1533813-0.6646729,0.3016357-0.984314,0.4741821c-0.0188599,0.0100098-0.0378418,0.0189209-0.0567017,0.0290527   c-0.388855,0.2116699-0.7610474,0.4487915-1.131897,0.6876221C55.1977539,26.2061768,53.4085083,27.9490356,52.0352173,30H45   v-2.9000244C45,25.9401855,44.0598145,25,42.9000244,25h-0.8000488C40.9401855,25,40,25.9401855,40,27.0999756V30h-1.9989624   C36.895874,30,36,30.895874,36,32.0010376v2.6259766c-1.9528198,0.0239868-3.8313599,0.7577515-5.2791138,2.0719604   l-0.3277588,0.2975464c-1.1707153,1.0626831-2.0003052,2.4484253-2.3839722,3.9822998l-1.6191406,6.4732056l0.013916,0.0058594   l-4.234314,14.4052124c-1.4319458,4.871521,1.0328979,10.039978,5.7197266,11.9934692l14.7332153,6.1408691   c0,0,0.6096191,7.1750488,4.0944214,10.6598511l-0.6010132,21.2324829   c-0.0324097,1.1266479,0.8720703,2.0575562,1.9992065,2.0575562H66V66.6216431   c-4.3417969-0.2227173-7.8966675-2.5227661-8.8295288-5.5584106H37.7194824c-1.2460938,0-2.1887817-1.1270752-1.9685059-2.3535156   l1.2203979-6.7957153l-0.013855-0.0058594l0.1428223-0.1314697C37.3721313,51.9147949,37.675293,52,38.0010376,52h15.6094971   C56.9060669,55.6745605,61.6756592,58,67,58c4.8408813,0,9.2260742-1.9208374,12.4611206-5.0296021l8.5071411,5.0479126   c-3.7944946,1.2440186-7.6964111,2.1088867-11.6484985,2.5912476C75.6491089,63.7162476,72.2653809,66.1536865,68,66.5750732   v47.3722534h18.802124c1.1045532,0,2-0.8953857,2-2V87.381897c0-5.5894165,2.3389282-10.9237671,6.4500732-14.7105713   l6.8075562-6.2703857c2.3082275-2.1260986,3.6054077-5.1321411,3.5689087-8.2700806v-0.000061   C105.5784302,53.8136597,103.022522,49.9197388,99.081543,48.156311z M52,75h5c0.5522461,0,1,0.4472656,1,1s-0.4477539,1-1,1h-5   c-0.5522461,0-1-0.4472656-1-1S51.4477539,75,52,75z M67,56c-4.0421753,0-7.7281494-1.5186768-10.5476074-4h9.5465698   C67.104126,52,68,51.104126,68,49.9989624v-0.2530518c0.6484985-0.0230713,1.2595825-0.0643921,1.7485962-0.1065674   c0.189209-0.0163574,0.3789062-0.0245361,0.5682373-0.0245361c0.5934448,0,1.1846313,0.0806274,1.7568359,0.2446289   l4.149353,1.1895752v-0.000061l1.4344482,0.8511963C74.8243408,54.4401245,71.09552,56,67,56z M39.0319824,49.9990234   l0.2599487-0.2392578c2.0047607-1.8450317,3.1455078-4.4450684,3.1455078-7.1696167   c0-0.5548706,0.2304688-1.0847778,0.6364136-1.4630737l0.6960449-0.6487427   c0.8097534-0.7546387,1.1989136-1.8578491,1.0419922-2.9535522c-0.2385864-1.6654663-1.6652222-2.9022827-3.3477173-2.9022827   h-3.4632568L38.0010376,32h12.8921509h0.6560059h0.4589844h1.1566772h12.8341064L66,32.0010376l-0.0003052,5.2059326   l-5.9956665,0.1008911c-2.0565186,0.0345459-3.5623169,1.9494019-3.1109619,3.9561157l0.0003662,0.0016479   c0.1122437,0.4990234,0.2630615,0.9829712,0.4382935,1.4555664c1.1158447,3.0090332,3.4595947,5.4352417,6.4902344,6.6273193   c0.5528564,0.2247925,1.3363647,0.3357544,2.177002,0.3838501V50L54.52948,49.9995728l-1.2472534-0.000061h-1.2473145   L39.0319824,49.9990234z M32.0651245,38.1798706C33.1469727,37.1978149,34.541687,36.6554565,36,36.6315308   c0.03302-0.0005493,0.0647583-0.0090332,0.0978394-0.0090332H37h1.0007935h3.4633789   c0.6829834,0,1.2710571,0.5098267,1.3679199,1.1858521c0.0640869,0.4475098-0.0950317,0.8986816-0.4258423,1.2069092   l-0.6959229,0.6486816c-0.8088989,0.7537842-1.2728882,1.8203735-1.2728882,2.9262085   c0,2.1290283-0.8892822,4.175415-2.4373169,5.6340332c-0.0217896,0.0205078-0.0405273,0.0437012-0.062561,0.0639648L37,49.151001   l-0.4505005,0.4146118L36,49.3339233l-7.2539673-3.05896l1.2033691-4.8108521   c0.2886963-1.1542358,0.9069824-2.1870117,1.7880249-2.9867554L32.0651245,38.1798706z M82.9523926,40.93927l-3.0840454-1.3799438   l-0.0011597,0.0036011l-7.7189941-4.6331787c3.09198-2.1433716,4.6903076-4.9994507,5.4585571-6.8760376   C80.9063721,30.9866943,83,35.2484131,83,40C83,40.3170776,82.9707031,40.626709,82.9523926,40.93927z M67,47.7637329   c-0.3864136-0.0014038-0.7199707-0.0127563-1.0009155-0.0314331c-0.9150391-0.0609131-1.3120117-0.19104-1.4450684-0.2449951   c-2.5998535-1.022644-4.5770264-3.1417236-5.4483032-5.7622681c-0.0982056-0.2952881-0.1922607-0.5926514-0.2614136-0.8999634   c-0.1129761-0.5023193,0.0993042-0.8687134,0.2359009-1.0424194c0.1366577-0.1737061,0.442627-0.4664307,0.9574585-0.4750977   l1.3064575-0.0219727l4.6554565-0.0783081l0.3473511-0.0058594C66.5775146,39.1975708,66.7949219,39.1473999,67,39.0720215   c0.4157104-0.152832,0.7664795-0.4341431,1-0.8021851c0.1964722-0.3096313,0.3132935-0.6748047,0.3132935-1.0681152v-0.357605   v-1.3922729c0.6231689,0.1456909,1.2194824,0.3829346,1.7982178,0.661377   c0.2426147,0.1166992,0.4906616,0.2211914,0.7226562,0.3604126l6.9093018,4.1471558l-2.7861328,7.9848022l-2.3325195-0.6687012   c-0.7455444-0.2137451-1.5220337-0.3220825-2.3079834-0.3220825c-0.2466431,0-0.4937134,0.0106812-0.7401733,0.0319214   C69.1621094,47.6824951,68.602356,47.7212524,68,47.7443237c-0.3041992,0.0116577-0.6156616,0.0204468-0.9321289,0.0204468   C67.043396,47.7647705,67.0240479,47.7637939,67,47.7637329z M74,97c-1.1045532,0-2-0.8954468-2-2c0-1.1046143,0.8954468-2,2-2   s2,0.8953857,2,2C76,96.1045532,75.1045532,97,74,97z M74,87c-1.1045532,0-2-0.8954468-2-2c0-1.1046143,0.8954468-2,2-2   s2,0.8953857,2,2C76,86.1045532,75.1045532,87,74,87z M74,77c-1.1045532,0-2-0.8954468-2-2c0-1.1046143,0.8954468-2,2-2   s2,0.8953857,2,2C76,76.1045532,75.1045532,77,74,77z"></path><path d="M55.8178101,43.267395C55.9248657,42.8602905,56,42.4406738,56,42c0-2.6629639-2.0876465-4.8191528-4.7125854-4.9710083   C51.1903687,37.0233765,51.0984497,37,51,37c-0.25,0-0.489624,0.038147-0.7297974,0.0735474   c-0.0299683,0.0044556-0.0612793,0.0042725-0.0910645,0.0092163c-0.3331299,0.0553589-0.6539917,0.1414795-0.9614258,0.2592773   C47.3394775,38.0615234,46,39.8686523,46,42c0,2.5523682,1.9196167,4.6342163,4.3897095,4.9384766   C50.592041,46.9633789,50.7909546,47,51,47c0.1717529,0,0.3340454-0.0336304,0.5013428-0.0505371   c0.348999-0.0352783,0.6849976-0.1037598,1.0090332-0.2070923C54.1298828,46.2260742,55.3828735,44.9215088,55.8178101,43.267395z    M51.7698975,44.8873291C51.5227051,44.9534302,51.2677612,45,51,45c-0.0869141,0-0.1688232-0.0183716-0.2539062-0.0256348   c-0.4006958-0.0343018-0.7763062-0.1446533-1.1167603-0.3214111C48.6663208,44.1530151,48,43.1578979,48,42   c0-0.8885498,0.395813-1.6794434,1.0115967-2.229248c0.2971802-0.2653198,0.6453247-0.4685669,1.0303955-0.5995483   c0.0186768-0.0063477,0.0377808-0.0115967,0.0566406-0.0175781C50.3849487,39.062561,50.6838989,39,51,39   c0.0172729,0,0.0332031,0.0047607,0.050415,0.0050659C52.6809082,39.0327759,54,40.3630371,54,42   c0,0.6428223-0.2073364,1.2356567-0.5529175,1.7244873C53.0473633,44.289917,52.4564209,44.7036743,51.7698975,44.8873291z"></path><path d="M54,36h4c0.5522461,0,1-0.4472656,1-1s-0.4477539-1-1-1h-4c-0.5522461,0-1,0.4472656-1,1S53.4477539,36,54,36z"></path><path d="M28.9550781,25.3125l4.2661133,2.1962891c0.1459961,0.0761719,0.3027344,0.1113281,0.456543,0.1113281   c0.362793,0,0.7128906-0.1972656,0.8901367-0.5419922c0.2529297-0.4912109,0.0595703-1.0947266-0.4316406-1.3466797   l-4.2661133-2.1962891c-0.4902344-0.2558594-1.0942383-0.0605469-1.3466797,0.4306641   C28.2705078,24.4570312,28.4638672,25.0605469,28.9550781,25.3125z"></path><path d="M36.6166992,22.9033203c0.1977539,0.2304688,0.4775391,0.3486328,0.7587891,0.3486328   c0.2304688,0,0.4624023-0.0791016,0.6513672-0.2412109c0.4189453-0.3603516,0.4667969-0.9912109,0.1064453-1.4101562   l-3.1269531-3.6396484c-0.359375-0.4189453-0.9902344-0.4667969-1.4101562-0.1074219   c-0.4189453,0.3603516-0.4667969,0.9912109-0.1064453,1.4101562L36.6166992,22.9033203z"></path><path d="M47.1621094,23.2519531c0.28125,0,0.5610352-0.1181641,0.7592773-0.3486328l3.1264648-3.6396484   c0.3598633-0.4189453,0.3115234-1.0498047-0.1074219-1.4101562c-0.4179688-0.359375-1.0493164-0.3115234-1.4101562,0.1074219   l-3.1264648,3.6396484c-0.3598633,0.4189453-0.3115234,1.0498047,0.1074219,1.4101562   C46.699707,23.1728516,46.9316406,23.2519531,47.1621094,23.2519531z"></path><path d="M42.4375,21.3125c0.5522461,0,1-0.4472656,1-1v-4.5546875c0-0.5527344-0.4477539-1-1-1s-1,0.4472656-1,1V20.3125   C41.4375,20.8652344,41.8852539,21.3125,42.4375,21.3125z"></path></g></svg>