<svg xmlns="http://www.w3.org/2000/svg" xmlns:xlink="http://www.w3.org/1999/xlink" version="1.1" x="0px" y="0px" viewBox="0 0 128 128" style="enable-background:new 0 0 128 128;" xml:space="preserve"><g><path d="M44.1865234,43.1325684l8.3775635,3.6151733c1.449585,0.6255493,3.0157471-0.5915527,2.7667236-2.1506348   c-0.0800781-0.5003052-0.1574707-1.0296631-0.2283936-1.5701294C57.9431152,44.9018555,61.3417969,46,65,46   c3.7937012,0,7.3083496-1.1798096,10.2104492-3.1837158c-0.0737305,0.5159912-0.1503906,1.0146484-0.2280273,1.4812012   c-0.2683105,1.6148682,1.3980713,2.8561401,2.8632812,2.1261597l7.8666992-3.9190674   c0.5852051-0.2915649,0.9919434-0.84729,1.0861816-1.4943237c0.3044434-2.0899658,0.927002-7.213623,0.927002-14.1515503   c0-9.9464111-5.4942627-20.6975708-19.9532471-20.6975708c-1.8085938,0-3.2872314,0.2316895-4.519043,0.5877075   c-0.7962646,0.2301636-1.4827881,0.5127563-2.074585,0.828064c-2.9306641,1.5616455-3.5422363,3.8562622-3.5422363,3.8562622   c-0.0146484,0.0595093-0.020752,0.1112671-0.034668,0.170166c-0.0800781,0.338562-0.1398926,0.6582031-0.1994629,0.9777222   c-0.0065918,0.0354004-0.0157471,0.0731812-0.0220947,0.1083984c-0.0087891,0.0487061-0.0223389,0.1018066-0.0306396,0.1500854   c-0.0393066,0.2279053-0.0673828,0.4451294-0.0964355,0.6633911c-0.0187988,0.1484985-0.0380859,0.2955322-0.0511475,0.4508667   c-0.0032959,0.031311-0.0076904,0.0637207-0.0107422,0.0947876c-0.0997314,1.0184937-0.0880127,1.9334717,0.0294189,2.7508545   c0.3919678,2.7301025,1.9033203,4.4282837,3.979248,5.6409302c1.5683594,0.9163208,3.4486084,1.5650024,5.409668,2.1752319   c5.355957,1.666626,6.8850098,3.4573364,8.0290527,5.5525513c1.2011719,2.3741455,1.2324219,6.2685547,0.9044189,9.8359985   C72.7241211,42.4830933,69.0400391,44,65,44c-3.8554688,0-7.3964844-1.3712158-10.1619873-3.651001   C51.2753906,37.4120483,49,32.9669189,49,28c0-5.1181641,2.4248047-9.6710205,6.1757812-12.6018066   c-0.012207-0.4412231-0.001709-0.8583374,0.0214844-1.2631836c0.0258789-0.4549561,0.0687256-0.8903198,0.1345215-1.3013916   c0.416748-2.6016846,1.5650635-4.3536987,2.8288574-5.5130615c-14.1552734,0.3728027-18.204834,14.5305786-15.1633301,34.2786255   C43.1018066,42.2786255,43.5552979,42.8601685,44.1865234,43.1325684z"></path><path d="M102.277832,78.0109863l-6.5097656-14.953186c-2.8592529-6.5678101-9.3405762-10.8151245-16.5039062-10.8151245h-2.3303223   c-0.8861084,0-1.6044922-0.7183838-1.6044922-1.6045532s-0.7183838-1.6045532-1.6044922-1.6045532H57.4031982   c-0.8861084,0-1.6046143,0.7183838-1.6046143,1.6045532s-0.7182617,1.6045532-1.6044922,1.6045532h-2.5904541   c-6.9436035,0-13.2679443,3.9938354-16.2525635,10.2633057l-8.5297852,17.9187012   c-0.9273682,1.9482422-1.4086914,4.0788574-1.4086914,6.2365723v0.000061c0,5.5482788,3.1640625,10.6108398,8.151123,13.0423584   l1.1507568,0.5610962c0.0748291,0.0151367,0.1503906,0.0194092,0.2230225,0.0526123l0.0583496,0.0269165l14.2512207,6.5873413   l4.5664062-9.3564453l-10.7734375-8.3427734c-0.5661621-0.4380493-0.9365234-1.046814-1.0866699-1.7055664   c-0.1519775-0.6673584-0.078125-1.3859863,0.251709-2.0317383l4.5830078-8.9716797   c0.2519531-0.4902344,0.8554688-0.6855469,1.3457031-0.4355469c0.4912109,0.2509766,0.6865234,0.8535156,0.4355469,1.3457031   l-4.5830078,8.9716797c-0.21875,0.4277344-0.1015625,0.9511719,0.2783203,1.2451172l11.2956543,8.7468872l4.8104248,3.2661743   c-1.4022217,1.0637817-1.9564209,2.916748-1.3353271,4.5785522c1.1499023,3.0761108,3.5924072,5.4345093,6.5645752,6.5613403   c-2.6451416,2.1068726-6.3425293,2.7188721-9.6624756,1.2623291l-6.6131592-2.9012451   c-0.0092773-0.0039673-0.019165-0.0019531-0.0284424-0.0062256l-0.2663574-0.1230469l-0.3425293-0.1503296l0.00354-0.0064087   l-9.7852783-4.522644c-0.7139893,2.2385864-1.6223145,6.8340454-0.8662109,14.7111206   c0.0987549,1.0285645,0.9616699,1.822876,1.994873,1.822876h48.6734619c1.0428467,0,1.9136963-0.807251,1.9974365-1.8467407   c0.6877441-8.5370483-0.9299316-13.6190186-2.7808838-17.418335l-6.0899658,3.0462646l-0.8979492,0.4491577l-0.8979492,0.4491577   l0.0133057,0.0338745l-6.6313477,3.0740967c-1.2583008,0.583313-2.5756836,0.8579712-3.8707275,0.8579712   c-0.8125,0-1.6108398-0.126709-2.3850098-0.3347168c-2.7679443-0.7436523-5.1662598-2.7446899-6.2554932-5.6587524   c-0.3203125-0.8569946-0.0184326-1.8220215,0.7332764-2.3435059l0.4892578-0.3394165l1.4830322-1.0289917l4.7890625-3.3227539   l6.0008545-4.1635742l1.1262207-0.8253174l0.8210449-0.6016846l8.5576172-6.2719727   c0.390625-0.2871094,0.5195312-0.8105469,0.3066406-1.2460938l-5.6914062-11.6357422   c-0.2421875-0.4960938-0.0371094-1.0947266,0.4589844-1.3378906c0.4970703-0.2431641,1.0947266-0.0371094,1.3378906,0.4589844   l5.3374023,10.9118652l0.3540039,0.723877c0.6386719,1.3056641,0.2509766,2.8779297-0.9208984,3.7382812l-2.8249512,2.0703735   l0.5927734,1.2105713l0.4536133,0.9262085l0.4665527,0.9525757C84.8537598,91.4120483,84.9245605,91.3953247,85,91.3953247   c1.6568604,0,3,1.3431396,3,3c0,0.7731934-0.3005371,1.4709473-0.7810059,2.0028687l0.4627686,0.9447021l0.4498291,0.918396   l0.4023438,0.8215942l6.4863281-3.2443848l0.0335693-0.0167847l2.3197021-1.5059204   c3.741333-2.4290161,5.9991455-6.5866089,5.9991455-11.0473633C103.3726807,81.4593506,103,79.6696777,102.277832,78.0109863z    M54.8598633,57.5685425c-1.1044922,0-2-0.8953857-2-2c0-1.1045532,0.8955078-2,2-2s2,0.8954468,2,2   C56.8598633,56.6731567,55.9643555,57.5685425,54.8598633,57.5685425z M70.9780273,56.4642334c1.1044922,0,2,0.8954468,2,2   s-0.8955078,2-2,2c-1.1046143,0-2-0.8954468-2-2S69.8734131,56.4642334,70.9780273,56.4642334z M65.5708008,57.4192505   c1.1044922,0,2,0.8954468,2,2s-0.8955078,2-2,2c-1.1046143,0-2-0.8954468-2-2S64.4661865,57.4192505,65.5708008,57.4192505z    M65.2949219,65.8253784h0.5517578c1.8253174,0,3.2432861,1.5903931,3.034668,3.4038696l-0.2757568,2.3981323   c-0.1773682,1.5418701-1.4827881,2.7056885-3.03479,2.7056885c-1.552124,0-2.8574219-1.1638184-3.0349121-2.7056885   l-0.2757568-2.3981323C62.0515137,67.4157715,63.4694824,65.8253784,65.2949219,65.8253784z M57.5227051,58.4642334   c0-1.1045532,0.8953857-2,2-2c1.1044922,0,2,0.8954468,2,2s-0.8955078,2-2,2   C58.4180908,60.4642334,57.5227051,59.5687866,57.5227051,58.4642334z M59.9301758,86.0565796v-8.1263428   c0-1.1046143,0.8520508-2,1.902832-2h7.3106689c1.0509033,0,1.902832,0.8953857,1.902832,2v8.0877075   c0,1.0283813-0.3579102,2.0213013-1.0062256,2.7915649c-0.5324707,0.6325684-0.8718262,1.4187012-0.973877,2.2564697   l-0.3389893,2.7820435l-5.986084,4.1532593l-0.8887939-6.9856567c-0.1026611-0.8062744-0.4250488-1.5640869-0.9285889-2.1819458   l-0.0299072-0.0366821C60.2720947,88.0336304,59.9301758,87.0616455,59.9301758,86.0565796z M75.6552734,57.5685425   c-1.1044922,0-2-0.8953857-2-2c0-1.1045532,0.8955078-2,2-2c1.1046143,0,2,0.8954468,2,2   C77.6552734,56.6731567,76.7598877,57.5685425,75.6552734,57.5685425z"></path><path d="M82.4956055,91.3016357l-0.4498291-0.9186401l-0.4180908-0.8535767l-4.4567871,3.2663574l-0.8347168,0.6116943   l-0.8337402,0.611084L75.3144531,94.15625l1.6235352,3.5184326l2.7026367,5.8565674l0.5611572-0.2807007l0.8980713-0.4491577   l5.6450195-2.8236084l-0.3884277-0.7930908l-0.4428711-0.9042969l-0.4560547-0.9312134   C85.307373,97.3723145,85.1567383,97.3953247,85,97.3953247c-1.6568604,0-3-1.3431396-3-3   c0-0.859375,0.3659668-1.6292114,0.9450684-2.1761475L82.4956055,91.3016357z"></path></g></svg>