<svg xmlns="http://www.w3.org/2000/svg" xmlns:xlink="http://www.w3.org/1999/xlink" version="1.1" x="0px" y="0px" viewBox="0 0 128 128" style="enable-background:new 0 0 128 128;" xml:space="preserve"><g><path d="M36.1477051,85.7009277c-0.9140625,4.505249-1.8519287,11.6941528-2.5841064,17.9951782l2.0269775,12.5557251   c0.3137207,1.9441528,1.9920654,3.37323,3.9614258,3.37323c2.2785645,0,4.1002197-1.8895874,4.0097656-4.1665039   c-0.3742676-9.4144897-1.293457-32.5658569-1.8283691-46.2461548   C39.4925537,74.6315918,37.0917969,81.0482178,36.1477051,85.7009277z"></path><path d="M62.7890625,51.8453979h-0.774292c-6.5213623-0.2423096-12.3582764-2.8378296-19.5456543-13.243103   c0,0-2.8398438-4.2719116-7.9295654-4.2719116c0,0-6.7830811,0-9.3707275,5.9594116c0,0-6.0507812,12.1769409-5.3035889,45.8098755   c0,0,0.2849121,16.9122925,1.7570801,29.6863403c0.2525635,2.1913452,2.1134033,3.838501,4.3192139,3.838501   c0.0002441,0,0.0003662,0,0.0006104,0c2.2373047-0.0003662,4.1081543-1.6922607,4.3253174-3.9190063   c0.4343262-4.4511719,1.227417-11.9828491,2.130249-18.9030151c0.5734863-4.3959961,1.190918-8.546936,1.789917-11.4992676   c1.0089111-4.972229,3.5882568-11.8046265,5.925415-17.4155884c1.6912842-4.0604248,3.2512207-7.4716187,4.0015869-9.0830078   c-2.6558838-1.6246948-4.8225098-3.708252-6.5931396-6.3192749c-0.3105469-0.4570312-0.1914062-1.0786133,0.265625-1.3886719   c0.4560547-0.3100586,1.078125-0.190918,1.3886719,0.2661133c4.3487549,6.4111328,11.3833008,9.4300537,23.1934814,9.868103   c0.1422119,0,0.28479,0,0.4274902,0c-1.24646-1.260376-1.9333496-2.9281616-1.9326172-4.7020874   C60.8647461,54.7057495,61.6009521,53.0524292,62.7890625,51.8453979z"></path><path d="M21.9758301,24.6362305c-0.2802734,0.6505127-0.4172363,1.3910522-0.3516846,2.2088013   c0.1329346,1.6575928,1.1795654,3.1750488,2.6968994,3.8554688c1.7264404,0.774353,3.5570068,0.4436646,4.8586426-0.5845337   c0.3800049,0.2718506,0.7749023,0.5289307,1.2011719,0.7509766C31.8564453,31.6356201,33.4354248,32,34.9916992,32   c1.807373,0,3.583252-0.4921875,5.130249-1.4129028c0.4399414,1.1588745,1.3892822,2.1109009,2.6099854,2.3334351   c1.8327637,0.3339844,3.6191406-0.8345947,4.0336914-2.6687622c0.1097412-0.4855957,0.1115723-0.9700928,0.0224609-1.4293213   c-0.0701904-0.3615723,0.0249023-0.7440186,0.269043-1.0198364c0.4995117-0.5643311,0.8713379-1.2537842,1.0493164-2.0412598   c0.5493164-2.4310303-0.9074707-4.8407593-3.2739258-5.5178223c-0.2481689-1.3830566-0.7770996-2.7078247-1.5732422-3.8772583   c0.682373-0.5636597,1.1682129-1.3776245,1.2637939-2.3585815c0.1427002-1.4633179-0.7022705-2.9227905-2.0488281-3.5129395   c-0.4703369-0.2061768-0.9503174-0.3027344-1.4171143-0.3048096c-0.9411621-0.0040894-1.8139648-0.4708252-2.2026367-1.3280029   c-0.4902344-1.0809937-1.4599609-1.9272461-2.7084961-2.2094116c-1.4389648-0.3251953-2.8669434,0.1846924-3.7874756,1.2080078   c-0.6387939,0.7103271-1.6047363,0.9338379-2.520752,0.6624756c-0.3348389-0.0991821-0.6929932-0.1553345-1.0721436-0.15979   c-1.5700684-0.0184326-3.0654297,0.9460449-3.6685791,2.395813c-0.2232666,0.5367432-0.3220215,1.0837402-0.3131104,1.6143188   c0.0178223,1.0454102-0.5825195,1.9522705-1.557251,2.3303833c-1.3936768,0.5405884-2.5008545,1.7355347-2.8555908,3.305603   c-0.362793,1.6055908,0.151123,3.2004395,1.2231445,4.2941895C22.2053223,22.9269409,22.321167,23.8344727,21.9758301,24.6362305z    M42.0931396,25.6951294c-0.4912109,0.9429321-1.1573486,1.7514038-1.9383545,2.4118042   C38.7363281,29.3063354,36.9245605,30,34.9916992,30c-1.2913818,0-2.5317383-0.3051147-3.6868896-0.9068604   c-0.0667725-0.034729-0.1270752-0.0765991-0.1925049-0.1129761c1.697998-0.7244263,2.8886719-2.4077759,2.8886719-4.3703613   c0-2.0153809-1.2597656-3.7272949-3.0310059-4.4176025c0.1072998-0.3041382,0.1767578-0.6263428,0.1767578-0.9672241   c0-0.46875-0.1206055-0.9054565-0.3168945-1.2980347c0.8983154-0.1672974,1.642334-0.7477417,2.0490723-1.5344849   c0.637085,0.5841064,1.4786377,0.9492188,2.4111328,0.9492188c1.2312012,0,2.3161621-0.6221924,2.9604492-1.5685425   c0.1817627-0.2669678,0.3140869-0.5658569,0.4189453-0.8779297c0.0074463,0.0039062,0.0152588,0.0063477,0.0227051,0.0102539   c0.309082,0.4716187,0.8028564,0.8076782,1.3791504,0.9107056c0.4837646,0.3964844,0.9060059,0.8474731,1.2758789,1.3330688   c0.6740723,0.8850708,1.1529541,1.8954468,1.4135742,2.9645386C43.2037354,21.9317017,43.0234375,23.9091797,42.0931396,25.6951294   z"></path><path d="M108.6335449,43.0769043c-1.3450928-7.0048828-6.9127197-8.7366943-9.9206543-8.7366943   c-7.9241943,0-12.086792,5.9951782-12.086792,5.9951782l-3.097168,4.0772095   C80.4713135,48.4378662,75.9454346,51.0292969,71,51.6791992c-0.331543,0.0435791-0.6650391,0.0772095-1,0.1031494   c-0.480957,0.0371704-0.9638672,0.0629272-1.4503174,0.0629272l-0.9996338,0.000061   c-0.0002441,0-0.0004883,0.000061-0.0006104,0.000061c-2.5870361,0.0004272-4.6843262,2.0971069-4.6853027,4.6841431   c-0.0010986,2.5888062,2.09729,4.6879272,4.6860352,4.6879272H69h1h0.2120361c0.2633057,0,0.5255127-0.010437,0.7879639-0.0177612   c6.5466309-0.1820679,12.8377686-2.6210938,17.7940674-6.9259644c1.2651367-1.170166,2.3917236-2.5205688,3.2176514-4.0735474   c0.2587891-0.4873047,0.8642578-0.6738281,1.3525391-0.4130859c0.4873047,0.2592773,0.6728516,0.8647461,0.4130859,1.3525391   c-1.2470703,2.3446045-3.0559082,4.2625122-5.0206299,5.8110352c-0.3453369,6.3189087-2.0749512,14.508728-3.1654053,19.6621094   c-0.8182373,3.866394-1.449707,10.6870117-1.7895508,14.9579468c-0.1960449,2.463501-0.1605225,4.9353638,0.1016846,7.3927002   l1.821167,17.0707397c0.2130127,1.9960327,1.8972168,3.5100708,3.904541,3.5100708   c2.173584,0,3.9337158-1.7657471,3.9266357-3.9393311l-0.0549316-17.0003052   c-0.0068359-2.1345825,0.2141113-4.2637939,0.6590576-6.3515015l2.2819824-10.7049561   c0.0987549-0.4625244,0.5073242-0.7836914,0.9672852-0.7836914c0.0480957,0,0.0966797,0.003479,0.1455078,0.0106812   c0.5174561,0.076355,0.8865967,0.5373535,0.8422852,1.0585327c-0.2259521,2.6586914-0.6669922,7.7288818-0.9400635,10.8598633   c-0.1568604,1.7991943-0.1507568,3.6063232,0.0179443,5.40448l1.68396,17.9489746   c0.1860352,1.9821777,1.8498535,3.4972534,3.8408203,3.4972534h0.0958252c2.2139893,0,3.9959717-1.7720947,4-3.9681396   c0.0087891-4.668396,0.0245361-12.3411255,0.0336914-16.7593384c0.0046387-2.2177124,0.2542725-4.4172363,0.7469482-6.5795288   c1.1838379-5.1964111,3.3723145-15.4624023,3.3723145-20.345459c0-5.5466919-0.5855713-9.6832275-0.8575439-14.0881348   C109.723999,46.9990845,108.6335449,43.0769043,108.6335449,43.0769043z"></path><path d="M112.9610596,12.1552734l-1.605835-2.1524658c-1.4162598-1.8981934-4.1030273-2.2889404-6.0012207-0.8728027   c-1.5200195,1.1339722-2.0535889,3.078186-1.4866943,4.7843628C102.2180176,12.7154541,100.1948242,12,98,12   c-5.5228271,0-10,4.4771729-10,10s4.4771729,10,10,10s10-4.4771729,10-10c0-1.2733154-0.2473145-2.4865112-0.6811523-3.6065674   c1.4472656,0.8678589,3.3331299,0.8345947,4.7695312-0.2369995   C113.9865723,16.7402954,114.3771973,14.0534668,112.9610596,12.1552734z M98,30c-4.4112549,0-8-3.5888062-8-8   c0-2.5386963,1.1923828-4.800354,3.0424805-6.2669067c1.2506104,2.4958496,4.704834,7.3709106,12.7519531,8.0430908   C104.9835205,27.3341675,101.8000488,30,98,30z"></path></g></svg>