<svg xmlns="http://www.w3.org/2000/svg" xmlns:xlink="http://www.w3.org/1999/xlink" version="1.1" x="0px" y="0px" viewBox="0 0 128 128" style="enable-background:new 0 0 128 128;" xml:space="preserve"><g><path d="M109.6824341,81.0805664L95.8460083,64.4615479c-0.0493774,0.0997925-0.0906372,0.2026367-0.1513672,0.2978516   c-0.4380493,0.6871338-1.1174927,1.1624756-1.9130249,1.3384399L71.6220703,71h21.2779541   C95.1607666,71,97,72.8392334,97,75.0999756V99h4.2844849c6.0351562,0,10.9275513-4.8924561,10.9275513-10.9275513   C112.2120361,85.5177612,111.3170166,83.0438232,109.6824341,81.0805664z"></path><path d="M46.571167,35.4266968C48.5466309,43.2231445,55.5893555,49,64,49c9.9411621,0,18-8.0588989,18-18   c0-9.9411621-8.0588379-18-18-18c-0.5512695,0-1.0942993,0.0339355-1.6329346,0.0824585   c-1.6993408-2.6353149-5.0471802-5.6847534-11.4626465-5.6847534c-11.2925415,0-12.6696777,15.4239502-12.6696777,15.4239502   s-1.1424561,10.177124-11.5962524,10.6206055c-0.9954224,0.0422363-1.9172974,0.5432739-2.463623,1.3764038l-0.0299072,0.0455933   c-0.9071655,1.3832397-0.5764771,3.232605,0.7664185,4.1834717c1.996521,1.4136353,5.4448853,3.053833,10.6984253,3.053833   C39.9937134,42.1015625,43.8635254,38.8369751,46.571167,35.4266968z M63.4816895,15.0262451l-0.0826416,0.0119629   c-0.0010376-0.0025635-0.0021973-0.0050659-0.0032959-0.0075684C63.4244995,15.029541,63.4528809,15.0271606,63.4816895,15.0262451   z M64,47c-7.4993896,0-13.7925415-5.1933594-15.5166626-12.1675415   c10.6137695-0.1156616,15.2026978-7.0610962,16.9608765-11.0447388c2.3386841,2.9335327,7.8798218,8.8352051,14.4832764,8.6431885   C79.2002563,40.5844116,72.3394775,47,64,47z"></path><path d="M92.9000244,73H62.5813599h-9.2591553h-0.1080933l40.135498-8.8549194   c0.2926025-0.0647583,0.5250854-0.2478638,0.668396-0.4857788c0.1452026-0.2268677,0.2038574-0.5090942,0.1409912-0.7929077   l-0.130127-0.5874023l-1.3672485-6.1723633c-0.1253662-0.56604-0.6858521-0.9233398-1.2519531-0.7980957l-3.4810791,0.7700806   L45.0109253,65.572937c-0.2926636,0.0647583-0.5252686,0.2479858-0.6685791,0.4860229   c-0.1451416,0.2268677-0.2037354,0.5089722-0.1408691,0.7926636l8.1401367,36.5053101   C52.5557251,104.3171387,53.4075928,105,54.3912964,105h38.508728C94.0598145,105,95,104.0597534,95,102.8999634V99h-3.1245728   c-2.9016113,0-5.6829224-1.1595459-7.7252197-3.2207031l-0.6162109-0.6218262C81.9107056,93.5192261,81,91.3062744,81,89   c0-1.1046143,0.8954468-2,2-2h12V75.8858643v-0.7858887C95,73.9401855,94.0598145,73,92.9000244,73z M60.6885376,69.0263672   c-0.1256714,0.2001343-0.3256836,0.3422241-0.5560913,0.3948975L53.229187,71l-0.2036133,0.0465698   C52.8275757,71.0918579,52.6417847,71.0687256,52.4805908,71c-0.468811-0.1998291-0.7224731-0.7954712-0.4083862-1.2958374   l2.4337158-3.8770142c0.1256714-0.2001953,0.3256836-0.3422241,0.5560913-0.3948975l7.1068726-1.6253662   c0.7738647-0.1769409,1.3754272,0.670105,0.9533691,1.3424683L60.6885376,69.0263672z M89.9915771,57.4910889   c0.4797363-0.1097412,0.9575806,0.1902466,1.0673218,0.6699829l0.1883545,0.8234863l0.5332642,2.3319092   c0.1097412,0.4797974-0.1902466,0.9576416-0.6699829,1.0673218l-7.6489868,1.7493286   c-0.7738647,0.177002-1.3754272-0.6700439-0.9533691-1.3424683l2.4337158-3.8770142   c0.1256714-0.2001343,0.3256836-0.3422241,0.5560913-0.3948975l4.2729492-0.9771729L89.9915771,57.4910889z M78.3065186,61.7449951   l-2.4337769,3.8770142c-0.1256104,0.2001953-0.3256836,0.3422241-0.5560303,0.3948975l-7.1069336,1.6253662   c-0.7738647,0.177002-1.3754272-0.6700439-0.9533691-1.3424683l2.4337769-3.8770142   c0.1256104-0.2001343,0.3256226-0.3422241,0.5560303-0.3948975l7.1068726-1.6253052   C78.1270142,60.2255859,78.7285767,61.0726318,78.3065186,61.7449951z M52.0794678,82.4354858   c-0.9354248,0-1.4039307-1.1309814-0.7424316-1.7924194l3.8140869-3.8141479   c0.1968994-0.1968994,0.4639893-0.3074951,0.7424927-0.3074951h7.5405273c0.9354248,0,1.4039307,1.1309814,0.7424316,1.7924194   l-3.8140869,3.8141479c-0.1968994,0.1968994-0.4639893,0.3074951-0.7424316,0.3074951H52.0794678z M75,97.5020752   C75,98.3293457,74.3293457,99,73.5020752,99H57.4979248C56.6706543,99,56,98.3293457,56,97.5020752v-0.0041504   C56,96.6706543,56.6706543,96,57.4979248,96h16.0041504C74.3293457,96,75,96.6706543,75,97.4979248V97.5020752z M73.5,92h-19   c-0.8284302,0-1.5-0.6715698-1.5-1.5s0.6715698-1.5,1.5-1.5h19c0.8284302,0,1.5,0.6715698,1.5,1.5S74.3284302,92,73.5,92z    M79.6290283,78.3138428l-3.8140869,3.8141479c-0.1968994,0.1968994-0.4639893,0.3074951-0.7424927,0.3074951h-7.5405273   c-0.9354858,0-1.4039307-1.1309814-0.7424927-1.7924194l3.8141479-3.8141479   c0.1968994-0.1968994,0.4639282-0.3074951,0.7424316-0.3074951h7.5405273   C79.8220215,76.5214233,80.2904663,77.6524048,79.6290283,78.3138428z M91.6445312,81.385498   c0,0.579895-0.4700928,1.0499878-1.0499878,1.0499878h-8.1958008c-0.9354248,0-1.4039307-1.1309814-0.7424927-1.7924194   l3.8141479-3.8141479c0.1968994-0.1968994,0.4639893-0.3074951,0.7424316-0.3074951h4.3817139   c0.579895,0,1.0499878,0.4700928,1.0499878,1.0499878V81.385498z"></path><path d="M50.4868164,104.2631226c0,0-0.0617676-0.3118286-0.097229-0.4709473L44.420105,77.0176392l-0.0144653,0.0032349   l-0.4324341-1.9520874l-1.7244263-7.784668c-0.1762085-0.7955322-0.0320435-1.6120605,0.4060059-2.2991333   c0.4379883-0.6870728,1.1173706-1.1624146,1.9130249-1.338501l40.9205322-9.0524902   c-2.9532471-1.5320435-6.2611694-2.364502-9.6680298-2.364502H51.4976807c-6.4926758,0-12.6203003,3.0032349-16.5978394,8.1348877   l-5.5968018,7.2206421c-4.6619263,6.0145874-5.5067139,14.1537476-2.1793213,20.9974976l9.4466553,19.4298706l0.0455933-0.0122681   l3.1400757,6.9390259c1.7717896,3.9151611,5.644165,6.2942505,9.75354,6.2942505   c1.0372314,0,2.0895996-0.1516113,3.1270142-0.4683228h0.000061c1.0172729-0.3105469,1.6135254-1.3630981,1.3569336-2.3953247   L50.4868164,104.2631226z M49.5095825,119.2333984c-3.4109497,0-6.524231-2.0092773-7.9313965-5.1188354l-2.2575684-4.9886475   l9.6239624-2.7764282l3.1080933,12.5027466C51.2241821,119.1051025,50.3685913,119.2333984,49.5095825,119.2333984z"></path></g></svg>