<svg xmlns="http://www.w3.org/2000/svg" xmlns:xlink="http://www.w3.org/1999/xlink" version="1.1" x="0px" y="0px" viewBox="0 0 128 128" style="enable-background:new 0 0 128 128;" xml:space="preserve"><g><path d="M40.1708374,61.4414062c0.9264526,0.6519775,4.6719971,2.4187622,8.6479492,0.4460449   C50.7490845,62.5944824,52.8247681,63,55,63c3.072998,0,5.9639893-0.7738647,8.494812-2.1315308   c2.0039062,1.708252,5.8308716,2.739502,10.0803833,1.1079712c2.289856-0.8790894,2.6221924,0.6171875,5.6756592,0.8684692   c2.7512207,0.2264404,3.7953491-0.7689209,3.989563-2.166626c0.3587646-2.5814819-2.4688721-2.626709-2.4688721-4.4404297   c0-1.8136597-0.4324341-6.4976807-3.4754639-8.4331055c-1.8686523-1.1885376-2.781311-2.5213013-5.0281372-9.6352539   c-2.0026245-6.3406372-5.0983276-8.1343384-7.317749-8.5352783v-3.7230835   c3.7314453-0.4912109,6.6210938-3.6923828,6.6210938-7.5556641c0-4.2021484-3.4189453-7.6210938-7.6210938-7.6210938   c-0.7539062,0-1.4916992,0.1103516-2.2050781,0.328125c-1.0087891-3.0917969-3.8808594-5.2294922-7.2319336-5.2294922   c-3.2167969,0-6.081543,2.0585938-7.1611328,5.0195312c-0.4404297-0.078125-0.8867188-0.1181641-1.3349609-0.1181641   c-4.2021484,0-7.6210938,3.4189453-7.6210938,7.6210938c0,3.8632812,2.8896484,7.0644531,6.6210938,7.5556641v3.0126953   c0,0.0206299,0.010498,0.0377808,0.0117188,0.0581055c-4.210083,1.6102295-8.7714844,4.564209-10.0982056,9.9381104   c0,0-0.5722656,3.6161499,0.3775635,6.7335815c0,0,1.260376,3.5269165-3.1967773,6.8652954   c-3.4197998,2.5614014-1.8109131,6.3815308-0.477417,8.0610962C33.5471802,62.9896851,37.482605,62.5466309,40.1708374,61.4414062z    M62.239502,59.2497559C60.0626221,60.3603516,57.6068726,61,55,61c-1.5827637,0-3.1092529-0.2393188-4.5541992-0.6693726   C43.8366089,58.3634033,39,52.2396851,39,45c0-0.0576782,0.0080566-0.1133423,0.008667-0.1708374   c5.3586426-0.1940308,9.5490112-1.1590576,12.8325195-2.5130615c5.8596802-2.4163818,8.8173828-6.0675659,10.2802124-8.8141479   c0.4639282-0.8710327,0.7814331-1.6501465,0.9909668-2.2687378C67.8239746,34.0205688,71,39.1401978,71,45   C71,51.2155762,67.4299316,56.6016846,62.239502,59.2497559z M46.0170898,23.9765625   c-3.0996094,0-5.6210938-2.5214844-5.6210938-5.6210938s2.5214844-5.6210938,5.6210938-5.6210938   c0.5825195,0,1.1616211,0.0908203,1.7211914,0.2705078c0.2695312,0.0869141,0.5620117,0.0556641,0.8061523-0.0859375   s0.4174805-0.3798828,0.4770508-0.6552734c0.5537109-2.5673828,2.8632812-4.4306641,5.4916992-4.4306641   c2.7773438,0,5.1083984,1.9921875,5.543457,4.7363281c0.0498047,0.3134766,0.2456055,0.5849609,0.5268555,0.7314453   c0.2822266,0.1464844,0.6162109,0.1494141,0.9013672,0.0097656c0.7797852-0.3818359,1.609375-0.5761719,2.465332-0.5761719   c3.0996094,0,5.6210938,2.5214844,5.6210938,5.6210938s-2.5214844,5.6210938-5.6210938,5.6210938c-0.5522461,0-1,0.4472656-1,1   v3.8925781C62.3197021,28.5577393,61.6695557,28.2832642,61,28.0462036V24c0-0.5527344-0.4477539-1-1-1s-1,0.4472656-1,1v3.4614868   c-0.97229-0.2209473-1.9749146-0.3544922-3-0.4109497V23c0-0.5527344-0.4477539-1-1-1s-1,0.4472656-1,1v4.0505371   c-0.328186,0.0180664-0.65802,0.0284424-0.9813232,0.0639038l0.0003052-0.0036621c0,0-0.7821045,0.0574951-2.0189819,0.265625V24   c0-0.5527344-0.4477539-1-1-1s-1,0.4472656-1,1v3.7783813c-0.6210938,0.1443481-1.2868652,0.3186035-1.9829102,0.5280762v-3.329895   C47.0170898,24.4238281,46.5693359,23.9765625,46.0170898,23.9765625z"></path><path d="M60,84c0.842041,0,1.5593872-0.5217896,1.8543091-1.2584839C61.946228,82.5118408,62,82.2625122,62,82   c0-1.1046143-0.8954468-2-2-2s-2,0.8953857-2,2c0,0.3374634,0.0914917,0.6505737,0.2390747,0.9294434   C58.574585,83.5632935,59.2329102,84,60,84z"></path><circle cx="60" cy="90" r="2"></circle><circle cx="60" cy="98" r="2"></circle><circle cx="60" cy="106" r="2"></circle><path d="M53,84c0.6914673,0,1.3007202-0.3510742,1.6599121-0.8845215C54.8745117,82.7967529,55,82.4130859,55,82   c0-1.1046143-0.8954468-2-2-2s-2,0.8953857-2,2c0,0.4901733,0.1832275,0.9331665,0.4758911,1.2810059   C51.8427734,83.71698,52.3856201,84,53,84z"></path><circle cx="53" cy="90" r="2"></circle><circle cx="53" cy="98" r="2"></circle><circle cx="53" cy="106" r="2"></circle><path d="M119.9771118,29h-17.9542236C100.9056396,29,100,29.9056396,100,31.0228271V40   c0,5.3911133,3.8812256,9.8678589,9,10.8095703v4.3710938h-1.2854614l-0.8117065-2.1103516   c-0.4267578-1.1083984-1.5112305-1.8535156-2.6987305-1.8535156c-1.5595703,0-2.8286133,1.2207031-2.8891602,2.7783203   l-0.3452148,8.8310547c-0.0205078,0.5068359-0.1694336,1.0029297-0.4301758,1.4355469l-0.9916992,1.6396484   c-0.0024414,0.0040283-0.0021973,0.008728-0.0045776,0.0128174c-0.0028687,0.0048828-0.0077515,0.0076294-0.0105591,0.0125732   l-8.7451172,15.4658203c-0.1645508,0.2910156-0.4492188,0.4746094-0.7817383,0.5039062   c-0.3339844,0.0302734-0.6450195-0.1015625-0.8583984-0.3574219l-7.6445312-9.2236328   c-3.7307129-4.5015259-9.1855469-7.1174316-15.0151978-7.2304077l-0.0031128-0.0206909H46.1484985l-0.0029297,0.0281372   c-0.031311-0.0029297-0.0583496-0.0182495-0.0903931-0.0182495h-4.0698242c-3.2099609,0-6.4262695,0.7509766-9.3007812,2.171875   l-17.2807617,8.5361328C10.9423828,77.9863281,8.5107422,82.9326172,9.4912109,87.8125l4.0375977,20.0888672   c0.000061,0.0004272,0.0004272,0.0006714,0.0004883,0.0010986c0.000061,0.0003052-0.000061,0.0005493,0,0.0008545L13.9559326,110   H12c-1.1045532,0-2,0.8953857-2,2c0,1.1045532,0.8954468,2,2,2h2.7698364l0.1935425,0.9511719   c0.480957,2.3632812,2.5532227,4.0478516,4.9907227,3.9921875c0.90625-0.0390625,1.7392578,0.3583984,2.3222656,1.0332031   c0.5449219,0.6308594,1.3369141,0.9765625,2.1435547,0.9765625c0.324707,0,0.6518555-0.0556641,0.9658203-0.171875   c2.0825195-0.7646484,3.3720703-2.8398438,3.1357422-5.0458984L28.3355713,114h8.1005859l0.9398193,5.5048828   C37.6230469,120.9511719,38.8666992,122,40.3334961,122h8.6219482h27.0855713h11.2255249   c0.7073975,0,1.3621826-0.3737183,1.7219849-0.9827881l4.7258911-8C94.5020142,111.684021,93.5409546,110,91.9924927,110   H78.3834839l0.3347778-2.7578735c0.0808105-0.1289673,0.1429443-0.2706299,0.1577148-0.4325562l0.3106689-3.4263306   l0.4360352-3.5925293c0.017395-0.0662231,0.0380859-0.131897,0.0574951-0.1978149   c0.0697632-0.2546387,0.2145386-0.4788208,0.4492188-0.6124268c0.2768555-0.1572266,0.6030273-0.1748047,0.8974609-0.0449219   l5.3383789,2.3544922c5.3300781,2.3515625,11.5830078,0.1298828,14.2348633-5.0585938L109,79.7928467V91.999939   c0,1.1046143,0.8954468,2,2,2s2-0.8953857,2-2V72.0321655c0.2923584-0.067749,0.5787354-0.1677856,0.847168-0.3251343   c0.8222656-0.4814453,1.3554688-1.3007812,1.4638672-2.2470703l0.996582-8.7109375   c0.1616211-1.4140625-0.2890625-2.8349609-1.2368164-3.8974609c-0.5670776-0.6351318-1.2833252-1.104187-2.0708008-1.381897   v-4.6600952c5.1187744-0.9417114,9-5.418457,9-10.8095703v-8.9771729C122,29.9056396,121.0943604,29,119.9771118,29z M106,42   c0,0.5527344-0.4477539,1-1,1s-1-0.4472656-1-1v-8c0-0.5527344,0.4477539-1,1-1s1,0.4472656,1,1V42z M110,34   c0-0.5527344,0.4477539-1,1-1s1,0.4472656,1,1v11c0,0.0886841-0.0288086,0.1681519-0.0504761,0.25   C111.8363037,45.6782227,111.463623,46,111,46s-0.8363037-0.3217773-0.9495239-0.75C110.0288086,45.1681519,110,45.0886841,110,45   V34z M114.3203125,60.5224609l-0.996582,8.7109375c-0.0272827,0.237915-0.1549683,0.4335938-0.3237305,0.5928345   c-0.0549927,0.0518799-0.0962524,0.1158447-0.1635742,0.1552124c-0.2063599,0.121582-0.4403076,0.137146-0.670105,0.0974121   c-0.074707-0.0128784-0.1506958-0.0073853-0.2229614-0.0378418c-0.196228-0.0822754-0.3794556-0.1847534-0.5671387-0.2803955   c-0.9050293-0.4613647-1.7046509-1.0716553-2.3762207-1.8012085c-1.0548096-1.145874-1.7983398-2.5686646-2.0961914-4.152771   l-1.0234375-5.4404297c-0.0756836-0.4023438,0.1010742-0.6884766,0.2133789-0.8242188   c0.1118164-0.1347656,0.3608398-0.3613281,0.769043-0.3613281H109h2.3398438c0.5977173,0,1.1715088,0.1880493,1.6601562,0.5140991   c0.2094727,0.1398315,0.4075928,0.2974854,0.578125,0.4888306   C114.1469727,58.8212891,114.4174805,59.6738281,114.3203125,60.5224609z M87.1723633,99.4599609l-5.3383789-2.3544922   c-0.2672729-0.118103-0.5446167-0.1816406-0.8239746-0.218811c1.6224976-2.8014526,3.3417358-7.9801636-0.1223145-14.6727905   c-0.2529297-0.4882812-0.8569336-0.6806641-1.3476562-0.4277344c-0.4907227,0.2539062-0.6826172,0.8564453-0.4287109,1.3476562   c0.2772217,0.5355835,0.5040894,1.0550537,0.7095947,1.5670776c2.2178955,5.5265503,0.4731445,9.6548462-0.8638916,11.7131958   c-0.0737915,0.1134033-0.1305542,0.2338257-0.1994019,0.3494263c-0.3720093,0.6243286-0.677002,1.2745972-0.8996582,1.9437866   c-0.0689087,0.1682739-0.1140747,0.3461914-0.1521606,0.5280762c-0.0175781,0.0841064-0.0496216,0.1624756-0.0603027,0.2490234   l-0.00177,0.0144043c-0.1027222,0.414978-0.1887817,0.8317261-0.2267456,1.2502441l-0.2214355,2.4421387L76.3690796,110h-9.4915771   c0.0027466-0.0301514,0.0175171-0.0560913,0.0175171-0.0869141V82.4794312V80.09375   c0-2.6116943-2.0202637-4.7379761-4.5761719-4.9571533c2.3803711-1.6449585,4.0855103-4.194397,4.6049805-7.1537476   c0.0512085-0.291626,0.0968018-0.5852661,0.1245117-0.8842163c5.0205078,0.2636719,9.6850586,2.5966797,12.9145508,6.4921875   l7.6445312,9.2236328c0.6293945,0.7597656,1.5883789,1.1621094,2.5756836,1.0742188   c0.9829102-0.0869141,1.8598633-0.6523438,2.3457031-1.5117188l8.3134766-14.703125L109,70.9594727v4.4371948   L98.8188477,95.3212891C96.6494141,99.5673828,91.5361328,101.3857422,87.1723633,99.4599609z M40.3334961,120   c-0.4892578,0-0.9038086-0.3496094-0.9858398-0.8310547L38.46521,114h4.4187012l3.7186279,6H40.3334961z M26.5332031,115.9482422   c0.1381836,1.2919922-0.6171875,2.5078125-1.8374023,2.9560547c-0.3203125,0.1152344-0.6835938,0.0224609-0.9057617-0.2353516   c-0.9516602-1.1005859-2.3217773-1.7265625-3.7734375-1.7265625c-0.0541992,0-0.1103516,0.0019531-0.1665039,0.0019531   c-1.4174805,0-2.6430664-0.9970703-2.9267578-2.3916016L16.8108521,114l-0.8140259-4l-0.3259277-1.6015625l10.2104492-3.0820312   l3.4477539,3.4003906h-2.4580078c-0.2836914,0-0.5541992,0.1201172-0.7436523,0.3320312   c-0.1899414,0.2109375-0.2807617,0.4921875-0.2504883,0.7744141L25.895874,110l0.4285889,4L26.5332031,115.9482422z    M34.7080078,91.9921875c-0.1582031-0.8369141-0.6918945-1.5625-1.4643555-1.9912109   c-0.4604492-0.2558594-0.9697266-0.3847656-1.4799805-0.3847656c-0.3701172,0-0.7416992,0.0673828-1.0957031,0.2050781   l-4.472168,1.7373047c-0.0929565,0.0361328-0.1778564,0.0848389-0.2655029,0.1294556l-0.8302002-8.1157837   c-0.0561523-0.5488281-0.5532227-0.9404297-1.0961914-0.8935547c-0.5498047,0.0566406-0.9492188,0.5478516-0.8930664,1.0966797   l1.729187,16.9046021l0.2512817,2.7858276l-9.8183594,2.9628906l-3.8208008-19.0107422   c-0.8022461-3.9921875,1.1870117-8.0390625,4.8374023-9.8427734l17.2807617-8.5361328   c2.6010742-1.2851562,5.5107422-1.9648438,8.4150391-1.9648438h3.1147461   c0.0811768,0.8977661,0.28125,1.7598877,0.5655518,2.5830688c1.4920044,4.3200684,5.5889282,7.4364624,10.4100342,7.4364624   h5.8193359c1.6542969,0,3,1.3457031,3,3v2.4896851v27.3296509c0,0.0308228,0.0147705,0.0567627,0.0175171,0.0869141H46h-2.0026855   h-6.2149658L34.7080078,91.9921875z M102.2509766,65.2958984c0.4355469-0.7207031,0.6835938-1.5478516,0.7167969-2.390625   l0.3452148-8.8320312c0.019043-0.4804688,0.4101562-0.8564453,0.8911133-0.8564453   c0.3662109,0,0.7006836,0.2294922,0.8325195,0.5722656l0.6335449,1.6470947   c-0.4259033,0.1851196-0.8108521,0.4615479-1.1159668,0.8294678c-0.5717773,0.6894531-0.8051758,1.5898438-0.6396484,2.4697266   l1.0234375,5.4404297c0.2401123,1.2764282,0.7113647,2.4716187,1.3690186,3.5429688l-4.4397583-1.7883301L102.2509766,65.2958984z    M31.2368774,110c0.0933838-0.12323,0.1789551-0.2542114,0.2396851-0.4023438   c0.2788086-0.6796875,0.1210938-1.4521484-0.4023438-1.96875l-3.9503784-3.895874l-0.8377075-9.2877197   c-0.0400391-0.4414062,0.2207031-0.8613281,0.6337891-1.0214844l4.4731445-1.7382812   c0.2851562-0.1103516,0.6054688-0.0878906,0.8803711,0.0644531c0.2504883,0.1386719,0.421875,0.3623047,0.4658203,0.5957031   L35.7532959,110H31.2368774z M118,42c0,0.5527344-0.4477539,1-1,1s-1-0.4472656-1-1v-8c0-0.5527344,0.4477539-1,1-1   s1,0.4472656,1,1V42z"></path></g></svg>