<svg xmlns="http://www.w3.org/2000/svg" xmlns:xlink="http://www.w3.org/1999/xlink" version="1.1" x="0px" y="0px" viewBox="0 0 128 128" style="enable-background:new 0 0 128 128;" xml:space="preserve"><g><path d="M15.9874268,49.876709c0,2.2894897,1.8560791,4.1455078,4.1455078,4.1455078   c1.3013916,0,2.4482422-0.6118164,3.208252-1.5498047c0.5391846,0.2565308,1.135376,0.4118042,1.7720947,0.4118042   c1.8000488,0,3.3168945-1.1541138,3.8897705-2.7573242c1.2877197-0.1209106,2.4058838-0.8128662,3.0789795-1.8395996   C35.1124268,50.6066284,38.8891602,52,43,52c4.072998,0,7.8171387-1.3687744,10.833374-3.6494751   c0.6768799,0.9935303,1.7791748,1.657959,3.0411377,1.7763672c0.5727539,1.6032104,2.0895996,2.7573242,3.8896484,2.7573242   c0.6368408,0,1.2330322-0.1552734,1.7722168-0.4118042c0.7600098,0.9379883,1.9069824,1.5498047,3.208252,1.5498047   c2.2894287,0,4.1455078-1.8560181,4.1455078-4.1455078c0-0.4972534-0.1019287-0.9675293-0.2624512-1.4093018   c0.647583-0.7313843,1.0532227-1.6824951,1.0532227-2.7362061c0-1.8272705-1.1901855-3.3607788-2.8314209-3.9126587   c0.1987305-0.5838623,0.3116455-1.2074585,0.3116455-1.8585205c0-2.7150879-1.8774414-4.986084-4.4033203-5.6012573   c0.1037598-0.3995361,0.1762695-0.8112183,0.1762695-1.2431641c0-2.3677368-1.6605225-4.3406982-3.878418-4.8373413   C57.6630859,21.1455688,50.9384766,16,43,16c-7.9272461,0-14.6433105,5.1313477-17.0446777,12.2484131   c-2.27771,0.4510498-3.9959717,2.4570923-3.9959717,4.8671875c0,0.430603,0.0720215,0.8410034,0.1750488,1.2393799   c-2.5332031,0.6098633-4.4178467,2.8846436-4.4178467,5.6050415c0,0.651062,0.112793,1.2746582,0.3115234,1.8585205   c-1.6413574,0.5518799-2.8314209,2.0853882-2.8314209,3.9126587c0,1.0537109,0.4056396,2.0048218,1.0531006,2.7362061   C16.0893555,48.9091797,15.9874268,49.3794556,15.9874268,49.876709z M27.4731445,30.2071533   c1.1901855-0.0050659,2.3062744-0.0494995,3.3544922-0.1264648c8.182373-0.600647,12.166626-3.1924438,13.8356934-4.7237549   c1.3933105,4.256897,4.2924805,8.9303589,10.2873535,10.6540527c0.8619385,0.2478638,1.7891846,0.4324341,2.7841797,0.5477295   c0.3361816,0.0390015,0.673584,0.0764771,1.0256348,0.0988159c-0.078125,0.4649658-0.1772461,0.9216919-0.2946777,1.3722534   c-0.350708,1.3440552-0.8621826,2.6216431-1.5297852,3.8044434c-0.0151367,0.0266113-0.0324707,0.0515747-0.0476074,0.078125   c-0.9719238,1.6989746-2.2363281,3.2097168-3.7392578,4.446228C50.385498,48.6322632,46.8498535,50,43,50   c-3.9035645,0-7.4814453-1.4091187-10.2617188-3.7401123c-1.4489746-1.2148438-2.6728516-2.6844482-3.6186523-4.3344116   c-0.0422363-0.0735474-0.0910645-0.1427002-0.1320801-0.21698c-0.6348877-1.1495972-1.118042-2.3898926-1.4560547-3.6891479   c-0.2175293-0.8361206-0.3789062-1.6936646-0.458374-2.5766602C27.0302734,34.9666748,27,34.4869995,27,34   C27,32.6912231,27.175293,31.4254761,27.4731445,30.2071533z"></path><path d="M74.2646484,74.4750977c-0.1503906,0.0805664-0.3125,0.1186523-0.4716797,0.1186523   c-0.3564453,0-0.7021484-0.190918-0.8818359-0.5273438c-0.2617188-0.4863281-0.078125-1.0927734,0.4082031-1.3540039   l2.7587891-1.4801636c-0.2368164-0.6660767-0.5046387-1.3192749-0.8057861-1.9575195l-2.9490967,1.5822144   c-0.1503906,0.0805664-0.3125,0.1186523-0.4716797,0.1186523c-0.3564453,0-0.7021484-0.190918-0.8818359-0.5273438   c-0.2617188-0.4863281-0.078125-1.0927734,0.4082031-1.3540039l2.956543-1.5862427   c-0.3597412-0.6062012-0.7513428-1.1931152-1.1716309-1.7612915l-2.7810059,1.4920654   c-0.1503906,0.0805664-0.3125,0.1186523-0.4716797,0.1186523c-0.3564453,0-0.7021484-0.190918-0.8818359-0.5273438   c-0.2617188-0.4863281-0.078125-1.0927734,0.4082031-1.3540039l2.4385986-1.3083496   c-0.946167-1.0452271-2.0024414-2.0036621-3.170166-2.8480835c-0.1064453-0.0769653-0.2127686-0.1531372-0.3189697-0.2284546   c-3.3758545-2.3950195-7.2399902-3.9540405-11.2832031-4.6491089l-0.0526123,0.1001587l-8.5638428,17.7855225l-3.279541-7.4594116   l3.4094238-3.4093628c1.2089844-1.2084961,1.2089844-3.1757812,0-4.3842773l-1.5683594-1.5688477l-1.8828125-1.8833008   c-1.2089844-1.2075195-3.1748047-1.2060547-4.3837891,0.0004883l-1.8271484,1.8273926l-1.6240234,1.6242676   c-1.2089844,1.2084961-1.2089844,3.1757812,0,4.3842773l3.4326172,3.4326172l-3.2421875,7.5617676l-8.6243896-17.9111328   l-0.0428467-0.1020508c-4.0466309,0.6942749-7.9143066,2.2540283-11.2929688,4.651001   c-0.1062012,0.0753174-0.2125244,0.1514893-0.3190918,0.2284546c-1.1604004,0.8392334-2.2111816,1.7907104-3.1530762,2.8284302   l2.4753418,1.3280029c0.4863281,0.2612305,0.6699219,0.8676758,0.4082031,1.3540039   c-0.1796875,0.3364258-0.5253906,0.5273438-0.8818359,0.5273438c-0.1591797,0-0.3212891-0.0380859-0.4716797-0.1186523   l-2.8193359-1.5125732c-0.4210205,0.567749-0.8139648,1.1538696-1.1744385,1.7597656l2.9976807,1.6082764   c0.4863281,0.2612305,0.6699219,0.8676758,0.4082031,1.3540039c-0.1796875,0.3364258-0.5253906,0.5273438-0.8818359,0.5273438   c-0.1591797,0-0.3212891-0.0380859-0.4716797-0.1186523l-2.9916992-1.6050415   c-0.3017578,0.6378174-0.5710449,1.2902832-0.8085938,1.9559937l2.8041992,1.5045166   c0.4863281,0.2612305,0.6699219,0.8676758,0.4082031,1.3540039c-0.1796875,0.3364258-0.5253906,0.5273438-0.8818359,0.5273438   c-0.1591797,0-0.3212891-0.0380859-0.4716797-0.1186523l-2.4556885-1.3175049   c-0.5675049,2.2392578-0.7860107,4.5838623-0.6135254,6.9455566c0.7720947,10.5773315,2.2971191,28.2622681,4.3966064,34.5359497   c0.2709961,0.8092651,1.0256348,1.343811,1.8789062,1.343811c1.4909668,0,4.1473389,0,7.5228271,0   c0.208374-1.5431519,1.3859863-11.3446045-1.2515869-18.1401367c-3.1025391-7.9980469-2.2470703-14.9609375-2.2099609-15.253418   c0.0712891-0.5463867,0.5742188-0.9345703,1.1191406-0.862793c0.5478516,0.0703125,0.9345703,0.5712891,0.8652344,1.1186523   c-0.0087891,0.0668945-0.8193359,6.7724609,2.0908203,14.2739258c2.7182617,7.0056763,1.7072754,16.5410156,1.4046631,18.8637085   c5.0130615,0,11.2313232,0,17.5172119,0V84.0751953v-1.1358643v-0.1517334v-1.1671753   c-0.0185547-0.0220337-0.0429688-0.0455322-0.0595703-0.0667114l-2.796875-5.8100586l3.4155273-7.9663696   c0.1375732,0.0184326,0.2751465,0.0396118,0.4135742,0.0396118c0.1501465,0,0.2994385-0.0213013,0.4482422-0.0429077   l3.5058594,7.9745483l-2.7949219,5.8041992C44.0949707,81.5998535,44.0460205,81.6506348,44,81.7005615v1.06427v0.2171021   v1.1020508v31.8988647c6.614624,0,13.1499023,0,18.2807617,0c-0.1409912-1.9916992-0.5031738-10.114563,2.2504883-17.2123413   c2.8427734-7.3291016,1.2441406-15.7763672,1.2275391-15.8608398c-0.1054688-0.5415039,0.2480469-1.0668945,0.7890625-1.1728516   c0.546875-0.1069336,1.0673828,0.246582,1.1738281,0.7880859c0.0722656,0.3676758,1.7314453,9.0878906-1.3251953,16.9692383   c-2.652832,6.8373413-2.21875,14.9754639-2.1096191,16.4887695c2.9863281,0,5.3493652,0,6.7176514,0   c0.8533936,0,1.6080322-0.5345459,1.8789062-1.343811c2.0994873-6.2736816,3.6246338-23.9586182,4.3966064-34.5359497   c0.171875-2.3528442-0.0438232-4.6887817-0.6064453-6.9204712L74.2646484,74.4750977z M42.3933105,65.6247559   c-0.0671387-0.0414429-0.1408691-0.0715332-0.197998-0.1286621l-0.5838623-0.5838623l-2.8673096-2.8673096   c-0.4287109-0.4291992-0.4287109-1.1269531,0-1.5561523l2.3525391-2.3525391l1.0986328-1.0986328   c0.2148438-0.2148438,0.4960938-0.3217773,0.7783203-0.3217773c0.28125,0,0.5625,0.1069336,0.7773438,0.3212891   l1.1229248,1.1230469l2.3282471,2.3286133c0.4287109,0.4291992,0.4287109,1.1269531,0,1.5561523l-2.8590088,2.8590088   l-0.5921631,0.5921631c-0.0539551,0.053894-0.1235352,0.0812378-0.1865234,0.1211548   C43.208252,65.8436279,42.7513428,65.84552,42.3933105,65.6247559z M39.3115234,85.2626953h-2.8251953   c-1.1816406,0-2.2441406-0.65625-2.7724609-1.7124023l-4.9863281-9.9560547   c-0.1875-0.3745117-0.5644531-0.6074219-0.9833984-0.6074219h-8.515625c-0.5527344,0-1-0.4477539-1-1   c0-5.8217773,2.1132812-8.8632812,3.8857422-10.3901367c1.9785156-1.7041016,3.9902344-1.9560547,4.0751953-1.9658203   c0.5683594-0.0683594,1.0458984,0.3295898,1.109375,0.8769531c0.0634766,0.546875-0.3261719,1.0419922-0.8710938,1.1088867   c-0.2519531,0.0327148-5.7734375,0.8603516-6.1757812,9.3701172h7.4921875c1.1796875,0,2.2421875,0.6557617,2.7714844,1.7114258   l4.9873047,9.9570312c0.1875,0.375,0.5634766,0.6074219,0.9833984,0.6074219h2.8251953c0.5527344,0,1,0.4477539,1,1   S39.8642578,85.2626953,39.3115234,85.2626953z M49,109c-1.1044922,0-2-0.8954468-2-2c0-1.1046143,0.8955078-2,2-2s2,0.8953857,2,2   C51,108.1045532,50.1044922,109,49,109z M49,99c-1.1044922,0-2-0.8954468-2-2c0-1.1046143,0.8955078-2,2-2s2,0.8953857,2,2   C51,98.1045532,50.1044922,99,49,99z M66.2626953,72.9868164h-8.515625c-0.4189453,0-0.7958984,0.2329102-0.984375,0.6079102   l-4.9853516,9.9560547c-0.5283203,1.0556641-1.5908203,1.7119141-2.7724609,1.7119141h-2.8251953c-0.5527344,0-1-0.4477539-1-1   s0.4472656-1,1-1h2.8251953c0.4199219,0,0.7958984-0.2324219,0.9833984-0.6069336l4.9863281-9.9570312   c0.5302734-1.0561523,1.5927734-1.7119141,2.7724609-1.7119141h7.4921875   c-0.4023438-8.5166016-5.9326172-9.3383789-6.1767578-9.3701172c-0.5449219-0.0712891-0.9335938-0.5693359-0.8662109-1.1147461   c0.0673828-0.5458984,0.5546875-0.9355469,1.1054688-0.8710938c0.0791016,0.0092773,7.9609375,1.0605469,7.9609375,12.355957   C67.2626953,72.5390625,66.8154297,72.9868164,66.2626953,72.9868164z"></path><path d="M81.8209229,15.652832l9.3297119,6.5449829l7.2634277-4.0165405l-13.6347656-5.4238892   c-0.2823486-0.1123657-0.6005859-0.09021-0.864624,0.0602417l-2.0145264,1.1477051   C81.2628174,14.3284302,81.2203369,15.2315063,81.8209229,15.652832z"></path><path d="M119.2695312,16.7011108c-1.7990723-3.2648315-5.9042969-4.4530029-9.1689453-2.6539307l-9.2563477,5.100769   l-0.026123-0.0103149l-7.845459,4.3383179l0.0075684,0.0054321l-11.5515137,6.3654785l-6.1291504-3.9846191   c-0.3150635-0.204895-0.7185059-0.2157593-1.0441895-0.0281372l-1.6357422,0.9424438   c-0.4743652,0.2732544-0.6407471,0.8770142-0.3735352,1.3546753l3.2634277,5.833374   c2.1323242,3.8696289,6.9978027,5.2779541,10.8675537,3.1455688l10.8820801-5.996582v13.229126   c0,0.7578735,0.8101807,1.2403564,1.4764404,0.8791504l2.3605957-1.27948   c0.2641602-0.1431885,0.4499512-0.397644,0.5059814-0.6929932l3.0742188-16.2230835l13.8067627-7.6082764   C119.4504395,18.8848877,119.8024902,17.6685181,119.2695312,16.7011108z"></path></g></svg>