<svg xmlns="http://www.w3.org/2000/svg" xmlns:xlink="http://www.w3.org/1999/xlink" version="1.1" x="0px" y="0px" viewBox="0 0 128 128" style="enable-background:new 0 0 128 128;" xml:space="preserve"><g><path d="M45.8026733,45h7.8952637C56.788269,47.4979248,60.7169189,49,65,49s8.211792-1.5020752,11.302124-4h7.7723999   c1.4147949,0,2.362854-1.4244385,1.8526611-2.7440796c-2.1434937-5.543457-1.756958-10.1564331-1.756958-10.1564331   c0.6400757-11.0325317-8.1340942-20.3305664-19.1851807-20.3305664h-0.000061h-0.000061   c-11.0510864,0-19.8252563,9.2980347-19.1851807,20.3305664c0,0,0.2004395,4.5581055-1.8654175,10.1974487   C43.4542236,43.6075439,44.4069214,45,45.8026733,45z M65,47c-2.8023682,0-5.43573-0.7289429-7.7288818-2   c-4.8685913-2.6986694-8.1836548-7.8599243-8.2605591-13.7918091c1.0410767-0.0348511,2.034729-0.1005859,2.9903564-0.1905518   C52.0105591,34.3231201,54.6923218,37,58,37c2.972229,0,5.4330444-2.1633911,5.9100342-5h2.1799316   C66.5670166,34.8366089,69.027832,37,72,37c3.3137207,0,6-2.6862793,6-6s-2.6862793-6-6-6   c-2.972168,0-5.4329834,2.1633911-5.9100342,5h-2.1799316c-0.1122437-0.6676636-0.3287354-1.2996826-0.6421509-1.8731079   c6.9741211-3.328125,9.3352661-8.4282227,10.0735474-10.7543945C77.9259644,20.1893311,81,25.2359619,81,31   c0,6.0200195-3.3450317,11.2694702-8.2711182,14C70.43573,46.2710571,67.8024292,47,65,47z M62,31c0,2.2056274-1.7943726,4-4,4   c-2.2055664,0-4-1.7943726-4-4c0-0.0751953,0.0181274-0.1454468,0.0222168-0.2196655C54.138916,28.6785889,55.8696289,27,58,27   c1.4460449,0,2.7036743,0.7787476,3.4063721,1.9315186C61.7755127,29.5370483,62,30.2404175,62,31z M68,31   c0-2.2056274,1.7944336-4,4-4c2.2056274,0,4,1.7943726,4,4s-1.7943726,4-4,4C69.7944336,35,68,33.2056274,68,31z"></path><path d="M88.0421143,95.9829102c-0.1989136,0.0108643-0.397644,0.0239258-0.59729,0.0239258   c-0.7568359,0-1.5170898-0.078125-2.2695312-0.2368164L66,91.7201538v24.2797852L87.357666,116   c1.4001465,0,2.3473511-1.394165,1.8648071-2.7084961C87.0557251,107.3898926,87.3978271,100.5776978,88.0421143,95.9829102z    M83,105H73c-0.5522461,0-1-0.4477539-1-1s0.4477539-1,1-1h10c0.5522461,0,1,0.4477539,1,1S83.5522461,105,83,105z"></path><path d="M42.7045898,96.0175781c-0.2538452,0-0.506897-0.0127563-0.7594604-0.0301514   c0.5968628,4.4883423,0.8592529,11.1578369-1.3082275,17.3886719c-0.4473877,1.2860107,0.5346069,2.6237793,1.8961792,2.6237793   L64,115.999939V91.7626953l-19.0180664,4.0170898C44.2275391,95.9389648,43.4638672,96.0175781,42.7045898,96.0175781z"></path><path d="M95.921814,64.4517212c-0.0054932-0.0579834-0.0103149-0.1085205-0.0152588-0.1589966   c-0.0032349-0.0333252-0.0066528-0.0687256-0.0095825-0.0986938l-0.005127,0.0026245C94.994873,56.2102051,88.2260742,50,80,50   h-3.9155273c-0.5407715,0-1.0584717,0.2189941-1.4351196,0.6069946l-2.4304199,2.5039062   C70.4950562,54.8868408,68.2775879,55.8825684,66,56.0999756v17.4665527l8.7080078-1.7906494   c0.519043-0.1083984,1.0292969,0.2084961,1.1669922,0.71875l0.1069336,0.3961182   c1.4760132-0.3682251,3.2785034-0.7581787,5.020813-1.0731201c2.0293579-0.3668213,3.9671631-0.6306763,5.1741943-0.6306763   c2.0900879,0,5.8384399,2.5946655,7.6929321,6.7008667c0.0783081,0.1733398,0.1588135,0.3450317,0.2300415,0.5237427   c1.2816162,3.2138062,2.7017212,8.3317871-3.1639404,7.3092651c-0.5150146-0.0897827-1.0656128-0.2095947-1.6983032-0.3997803   c0,0-5.6155396-2.3112793-10.039917-0.5166016l0.6816406,2.5251465c0.0717773,0.265625,0.0307617,0.5488281-0.1123047,0.7832031   c-0.1435547,0.234375-0.3774414,0.3989258-0.6464844,0.4560547l-9.180603,1.9391479l15.6483765,3.3049927   c0.9229736,0.1947021,1.859436,0.2375488,2.77771,0.1430054c1.5966797-0.1643677,3.1374512-0.7516479,4.4503174-1.7318726   c2.0844727-1.5561523,3.3999023-3.9414062,3.609375-6.5444336C97.0775146,77.557312,96.1758423,67.1115112,95.921814,64.4517212z    M78,56c0,1.6542969-1.3457031,3-3,3c-0.5512695,0-1,0.4487305-1,1v1.6621094c0,0.777832-0.296875,1.515625-0.8354492,2.0771484   l-3.1357422,3.2661133c-0.1962891,0.2045898-0.4584961,0.3076172-0.7211914,0.3076172   c-0.2490234,0-0.4985352-0.0922852-0.6923828-0.2788086c-0.3984375-0.3823242-0.4116211-1.0151367-0.0288086-1.4135742   l3.1352539-3.2661133C71.9008789,62.1669922,72,61.9213867,72,61.6621094V60c0-1.6542969,1.3457031-3,3-3   c0.5512695,0,1-0.4487305,1-1v-3c0-0.5522461,0.4477539-1,1-1s1,0.4477539,1,1V56z"></path><path d="M75.0966797,77.2852783l-0.703125-2.0847168l-0.4158325-1.2327271L66,75.6083984l-1.9961548,0.4105225   l-2.0198364,0.4153442c0.0001221,0.0003052,0.0003662,0.0005493,0.0004883,0.0008545l-16.0133057,3.296814   c-5.3768311,1.1765137-6.7523193-0.3637085-5.088501-3.7397461c0.5123901-1.0396118,1.1069946-1.8499146,1.7426147-2.4909058   c2.0537109-2.0708618,4.5510864-2.3143311,6.2145386-2.3143311c5.7177734,0,9.671936,1.4044189,11.8172607,3.4782715L64,73.9778442   V56.0899658c-2.2667236-0.2363892-4.4676514-1.2431641-6.1740112-3.0224609l-2.3513794-2.4518433   C55.0974121,50.2223511,54.5761108,50,54.0311279,50H50c-8.2525635,0-15.041687,6.2492676-15.9035034,14.2729492   l-0.0078125-0.0084229c-0.2683716,3.0855713-1.0704346,13.5998535-0.3352661,21.6553955   c0.2290039,2.5141602,1.5332031,4.8212891,3.5771484,6.3305664c1.2739868,0.9399414,2.7602539,1.515625,4.3007812,1.6998901   c0.9707031,0.1160889,1.9624634,0.0792236,2.9375-0.1276245l15.692688-3.3145752l2.4199219-0.5111084l1.3779297-0.2910156   l1.041626-0.2200317l0.6445312-0.1361084l11.9277954-2.5193481L75.0966797,77.2852783z M52,53c0-0.5522461,0.4477539-1,1-1   s1,0.4477539,1,1v3c0,0.5512695,0.4487305,1,1,1c1.6542969,0,3,1.3457031,3,3v1.6621094   c0,0.2592773,0.0991211,0.5048828,0.2788086,0.6923828l3.1347656,3.2661133   c0.3828125,0.3984375,0.3696289,1.03125-0.0288086,1.4135742c-0.1938477,0.1865234-0.4433594,0.2788086-0.6923828,0.2788086   c-0.2626953,0-0.5249023-0.1030273-0.7211914-0.3076172l-3.1352539-3.2661133C56.296875,63.1777344,56,62.4399414,56,61.6621094V60   c0-0.5512695-0.4487305-1-1-1c-1.6542969,0-3-1.3457031-3-3V53z"></path></g></svg>