<svg xmlns="http://www.w3.org/2000/svg" xmlns:xlink="http://www.w3.org/1999/xlink" version="1.1" x="0px" y="0px" viewBox="0 0 128 128" style="enable-background:new 0 0 128 128;" xml:space="preserve"><g><path d="M55.1018066,51.9656372c3.8198242-0.0289917,7.3170166-0.425354,10.4746094-1.1973877   c-4.4553223-2.9573975-6.8076172-8.2689819-8.0483398-13.097229C57.2702637,36.6676636,56,31.6937618,56,27   c0-8.8224487,7.1776123-16,16-16s16,7.1775513,16,16c0,0.2620239-0.0268555,0.517334-0.0393066,0.7763062   c0.0054932,0.0483398,0.0253906,0.0921021,0.0236816,0.1421509c-0.0036621,0.1062622-0.2131348,4.4515991-2.6276855,9.5636597   c-0.5262451,1.1139526-1.1606445,2.2640991-1.9169922,3.4150391c-2.809082,4.2739868-7.3623047,8.5427856-14.6932373,10.9909668   c-0.0653076,0.0427856-0.1378174,0.0719604-0.2110596,0.0984497c-0.0802002,0.0290527-0.163208,0.0449219-0.2487793,0.0527344   c-3.4940186,1.1124268-7.6115723,1.8067017-12.4533691,1.9055786c1.6835938,3.9974365,4.131958,6.7495117,7.3347168,8.2001343   c7.8994141,3.5766602,17.8583984-1.7504883,17.9589844-1.8046875c7.8981934-5.053772,13.7814941-5.8479004,17.9833984-5.0235596   c1.7749023,0.3482056,3.2558594,0.9793701,4.4521484,1.7095947c0.5810547,0.3535156,1.0478516,0.0419922,1.1777344-0.0610352   c0.1269531-0.1015625,0.5253906-0.4804688,0.3164062-1.1079102c-1.5869141-4.7514648-3.6005859-7.9121094-5.0107422-9.7265625   c-2.7597656-3.550293-4.7490234-7.3452148-5.9130859-11.2792969C92.3496094,28.8183594,90.765625,21.8100586,90.75,21.7397461   C87.2080078,7.8232422,75.9787216,6.4326172,72.0041122,6.4326172c-9.9012718,0-19.0628586,6.4753256-19.879055,19.7837639   C51.094532,43.0194855,54.7990723,51.0429688,55.1018066,51.9656372z"></path><path d="M60.0358887,39.0617065c0.2087402,0.6572876,0.4404297,1.3148193,0.6977539,1.9650269   c1.4904785,3.7651978,3.8425293,7.2669067,7.5361328,8.9530029c4.1203613-1.3778687,7.5917969-3.4668579,10.3881836-6.2667236   c0.6162109-0.6170044,1.1976318-1.2706909,1.7485352-1.9562378c0.484375-0.6029663,0.9528809-1.2224731,1.3864746-1.8783569   c0.1047363-0.1584473,0.1965332-0.3165283,0.2961426-0.4749146C79.3341064,41.6487427,75.822876,43,72,43   c-5.1088867,0-9.6547852-2.4157104-12.5861816-6.1550293C59.5949707,37.5759888,59.7994385,38.317688,60.0358887,39.0617065z"></path><path d="M62.21875,21.9562378h20.1020508c1.6265869,0,2.604248-1.8616333,1.6308594-3.164856   c-2.6724854-3.5778809-6.9106445-5.8895874-11.6818848-5.8895874s-9.0095215,2.3117065-11.6818848,5.8895874   C59.614502,20.0946045,60.592041,21.9562378,62.21875,21.9562378z"></path><path d="M117,104h-11.1794434c3.2504883-1.928833,5.2937012-5.638916,4.8466797-9.701416l-2.6955566-24.4992676   c-0.4500732-4.0914307-2.128418-7.7683105-4.6230469-10.7147827c-0.2844238-0.0753784-0.5632324-0.1903076-0.8271484-0.3511353   c-5.0800781-3.1000977-12.1279297-1.9492188-20.3779297,3.3276367c-0.3730469,0.2050781-6.2167969,3.3286133-12.7929688,3.3291016   c-2.3144531,0-4.71875-0.3867188-7.0078125-1.4233398c-4.2911377-1.9431763-7.3786621-5.8209839-9.2092285-11.5371704   c-2.2788086,0.6886597-4.2772827,2.1635742-5.5787964,4.2329712L17.7822876,104H11c-0.5527344,0-1,0.4477539-1,1s0.4472656,1,1,1   h34.8397827l-7.4823608,12.4550781c-0.5634766,0.9394531-0.5791016,2.0693359-0.0390625,3.0224609   C38.8574219,122.4306641,39.8339844,123,40.9287109,123h51.8945312c1.0957031,0,2.0722656-0.5693359,2.6113281-1.5224609   c0.5400391-0.9536133,0.5244141-2.0834961-0.0390625-3.0224609L87.9130859,106H117c0.5527344,0,1-0.4477539,1-1   S117.5527344,104,117,104z M59.6845703,103c0-3.0737305,1.6899414-5.7987671,4.229126-7.2424927   c0.3557129-0.2022705,0.7281494-0.3774414,1.1151123-0.5265503c0.3496094-0.1348267,0.7089844-0.250061,1.0805664-0.3374634   c0.2858887-0.0671997,0.5759277-0.1239014,0.8730469-0.1610718l5.2111816-0.6518555l1.0424805-0.1304321l1.0407715-0.130188   L75,93.7294922V104h-2.6228027h-1.0164795h-1.0180664h-5.9324951H63.392334h-1.0167236h-1.69104   C60.1328125,104,59.6845703,103.5512695,59.6845703,103z M92.3945312,90.6650391   c0.828125-0.0566406,1.5761719-0.4389648,2.1054688-1.0776367c0.5302734-0.6391602,0.7685547-1.4448242,0.6708984-2.269043   l-1.4980469-12.6337891c-0.0644531-0.5483398,0.3271484-1.0458984,0.875-1.1108398   c0.5498047-0.0639648,1.0458984,0.3276367,1.1113281,0.8754883l1.4980469,12.6342773   c0.1621094,1.3735352-0.234375,2.7163086-1.1181641,3.7807617c-0.8828125,1.0644531-2.1289062,1.7021484-3.5078125,1.7958984   L77,93.717041v-1.1203613c0-0.2866211-0.1230469-0.5600586-0.3378906-0.7495117   c-0.052002-0.0457764-0.1179199-0.0657349-0.177002-0.0994873L92.3945312,90.6650391z M66.7391357,80.6162109   c0.434082-2.3262329,2.4650879-4.0147095,4.8292236-4.0147095c0.302124,0,0.6066895,0.0282593,0.9050293,0.0839844   c2.6646729,0.4971924,4.4279785,3.0696411,3.9307861,5.734314l-1.7423096,9.3365479l-1.0407715,0.130249l-1.0423584,0.1303711   l1.859375-9.9640503c0.2954102-1.5831299-0.7484131-3.105957-2.331543-3.4013672   c-0.1806641-0.0337524-0.3608398-0.0500488-0.538208-0.0500488c-1.376709,0-2.6014404,0.979187-2.8631592,2.3815918   l-2.2028809,11.8049927c-0.3598633,0.0533447-0.7120361,0.1266479-1.0579834,0.2156982   c-0.3692627,0.0950317-0.7294922,0.2097168-1.0808105,0.3429565L66.7391357,80.6162109z M35.3148804,104l12.755127-18.368042   c0.1947021-6.8029175,3.336731-11.413147,3.4924927-11.6373291c0.3154297-0.4526367,0.9384766-0.5634766,1.390625-0.2480469   c0.453125,0.3149414,0.5644531,0.9379883,0.2509766,1.3916016c-0.0279541,0.0396118-1.8874512,2.7802124-2.7353516,7.0457153   c-0.046875,0.2358398-0.0787354,0.4911499-0.1190186,0.736084c-0.2486572,1.8653564-0.5718994,6.8972168,2.4473877,10.480957   C56.0379639,97.2475586,55.8225098,101.7702026,55.4511719,104h-7.84375H35.3148804z M93.6806641,119.4853516   c0.2714844,0.4511719,0.0996094,0.8544922,0.0136719,1.0068359C93.6074219,120.6450195,93.3496094,121,92.8232422,121H40.9287109   c-0.5263672,0-0.7832031-0.3549805-0.8701172-0.5073242c-0.0859375-0.1523438-0.2578125-0.5561523,0.0136719-1.0073242   L48.1728516,106h12.5117188h1.3178711h1.0168457h1.0175781l-0.6032715,3.2330933l2.03479,4.9916382l3.6981201-3.921875   L69.9694824,106h1.0180664h1.0163574H76h9.5800781L93.6806641,119.4853516z"></path></g></svg>