<svg xmlns="http://www.w3.org/2000/svg" xmlns:xlink="http://www.w3.org/1999/xlink" version="1.1" x="0px" y="0px" viewBox="0 0 128 128" style="enable-background:new 0 0 128 128;" xml:space="preserve"><g><path d="M76.8359375,75.6772461v-3.9604492c0-0.5512695-0.4482422-1-1-1h-0.2841797c-1.6542969,0-3-1.3457031-3-3v-8.3481445   h-3.6463623c-2.9370117,0-5.7255859,1.2911987-7.6256104,3.5308228l-11.0153809,12.984436   c-0.0112305,0.0133667-0.0253906,0.0228271-0.0369873,0.0358276l2.6397705,2.2189331   c0.4228516,0.3554688,0.4775391,0.9863281,0.1220703,1.4091797c-0.1982422,0.2353516-0.4814453,0.3564453-0.7666016,0.3564453   c-0.2265625,0-0.4550781-0.0771484-0.6425781-0.234375l-5.6513672-4.7504272l-10.4191895-8.223877L27,59.8141479V54h34   c0.5527344,0,1-0.4477539,1-1s-0.4472656-1-1-1H27V27c0-1.1046143-0.8955078-2-2-2s-2,0.8953857-2,2v25h-9   c-0.5517578,0-1-0.4487305-1-1V14c0-0.5512695,0.4482422-1,1-1h66c0.5517578,0,1,0.4487305,1,1v3c0,0.5522461,0.4472656,1,1,1   s1-0.4477539,1-1v-3c0-1.6542969-1.3457031-3-3-3H14c-1.6542969,0-3,1.3457031-3,3v37c0,1.6542969,1.3457031,3,3,3h9v2.6348877   c-0.5244141-0.3085327-1.1037598-0.4639282-1.6811523-0.4639282c-1.0969238,0-2.1777344,0.538269-2.8188477,1.5455933   c-0.6446533,1.0129395-0.6953125,2.2940674-0.1328125,3.3547363l1.2077637,2.2770386   c0.7681885,1.4486084,1.0083008,3.1193848,0.6790771,4.725647c-0.5194092,2.5341187,0.3886719,5.1494141,2.3666992,6.8163452   L23,75.2099609V102c0,1.1045532,0.8955078,2,2,2s2-0.8954468,2-2V78.6420898l16.6999512,14.3461304   c3.979248,3.418457,9.9238281,3.1807251,13.6174316-0.5446777l6.1821289-6.2351685c0,0-0.9038086,6.007019,2.6096191,10.0982056   c0.3238525,0.3771362,0.4694824,0.8759766,0.4494629,1.3726807l-0.6989746,17.2960205   c-0.0458984,1.1353149,0.8621826,2.0807495,1.9984131,2.0807495H85V85.0834961l-7.2851562-7.2851562   C77.1484375,77.2319336,76.8359375,76.4785156,76.8359375,75.6772461z M21.3417969,62.4111938l-1.2077637-2.2769775   c-0.2248535-0.4240112-0.2044678-0.9389648,0.0532227-1.3438721c0.2468262-0.3878174,0.6699219-0.6193848,1.1315918-0.6193848   c0.2137451,0,0.5324707,0.0516357,0.8366699,0.2976685L23,59.1515503l4,3.2346802l5.7883301,4.6809082L27,75.1849976   l-0.3475342,0.4874268l-2.7429199-2.3114014C23.5576172,73.0643921,23.253418,72.725708,23,72.3569946   c-0.7683105-1.1176758-1.0668945-2.5146484-0.7867432-3.8814697   C22.6347656,66.4193726,22.3253174,64.2657471,21.3417969,62.4111938z"></path><path d="M99.4482422,59.4088135v8.3079834c0,1.6542969-1.3457031,3-3,3h-0.2841797c-0.5517578,0-1,0.4487305-1,1v3.9604492   c0,0.8012695-0.3125,1.5546875-0.8789062,2.1210938L87,85.0834961v31.9725342h17.3928223l-1.4133301-19.2088623   c-0.0605469-0.8076172,0.2138672-1.5996094,0.7734375-2.2285156c1.8535156-2.0898438,2.25-7.5,2.2470703-9.4082031   c-0.0009766-0.5522461,0.4462891-1.0009766,0.9980469-1.0019531c0.0009766,0,0.0009766,0,0.0019531,0   c0.5517578,0,0.9990234,0.4467773,1,0.9980469c0.0009766,0.3115234-0.0185547,7.6572266-2.7519531,10.7397461   c-0.1972656,0.2216797-0.2939453,0.4887695-0.2744141,0.7529297l1.4241943,19.3568115h6.9752197   c1.0776367,0,1.9614258-0.8537598,1.9987793-1.9307251l1.2873535-37.1329346   C117.0030518,68.0756226,109.2646484,59.8291626,99.4482422,59.4088135z M93,109c-1.1044922,0-2-0.8954468-2-2   c0-1.1046143,0.8955078-2,2-2s2,0.8953857,2,2C95,108.1045532,94.1044922,109,93,109z M93,100c-1.1044922,0-2-0.8954468-2-2   c0-1.1046143,0.8955078-2,2-2s2,0.8953857,2,2C95,99.1045532,94.1044922,100,93,100z M93,91c-1.1044922,0-2-0.8954468-2-2   c0-1.1046143,0.8955078-2,2-2s2,0.8953857,2,2C95,90.1045532,94.1044922,91,93,91z"></path><path d="M74.5517578,59.6732788v8.0435181c0,0.5512695,0.4482422,1,1,1h0.2841797c1.6542969,0,3,1.3457031,3,3v3.9604492   c0,0.2631836,0.1064453,0.5205078,0.2929688,0.7070312L85,82.2553711V70.2577515   c-1.0477295-0.2124023-2.0401611-0.7576904-2.7990723-1.6447144L74.5517578,59.6732788z"></path><path d="M87,70.2577515v11.9976196l5.8710938-5.8710938c0.1865234-0.1865234,0.2929688-0.4438477,0.2929688-0.7070312v-3.9604492   c0-1.6542969,1.3457031-3,3-3h0.2841797c0.5517578,0,1-0.4487305,1-1v-8.0435791l-7.6491699,8.9398193   C89.0401611,69.500061,88.0477295,70.0453491,87,70.2577515z"></path><path d="M105.1367188,54c1.414917,0,2.3630371-1.4244995,1.8527832-2.7440796   c-2.1435547-5.543457-1.7570801-10.1564331-1.7570801-10.1564331c0.6401367-11.0325317-8.1340332-20.3305664-19.1850586-20.3305664   h-0.0001221h-0.0001221c-11.0510254,0-19.8251953,9.2980347-19.1850586,20.3305664c0,0,0.2004395,4.5580444-1.8654785,10.1974487   C64.5164795,52.6075439,65.4692383,54,66.8649902,54h7.8328857C77.788208,56.4979248,81.7169189,58,86,58   s8.211792-1.5020752,11.302124-4H105.1367188z M86,56c-2.8023682,0-5.435791-0.7289429-7.7288818-2   c-4.8682861-2.6984863-8.1832275-7.8592529-8.260498-13.7905884c1.0402832-0.0336304,2.0355225-0.0967407,2.9906006-0.1853638   C73.0144043,43.3265991,75.6943359,46,79,46c2.972168,0,5.4331055-2.1633911,5.9100342-5h2.1799316   C87.5668945,43.8366089,90.027832,46,93,46c3.3137207,0,6-2.6862793,6-6s-2.6862793-6-6-6   c-2.972168,0-5.4331055,2.1633911-5.9100342,5h-2.1799316c-0.1107178-0.6583252-0.3223877-1.2821655-0.6290283-1.8491211   c6.9802246-3.3122559,9.361084-8.3999023,10.112793-10.746521C98.9494629,29.227478,102,34.2578735,102,40   c0,6.0200195-3.3449707,11.2694702-8.2711182,14C91.435791,55.2710571,88.8023682,56,86,56z M83,40c0,2.2055664-1.7944336,4-4,4   s-4-1.7944336-4-4c0-0.0719604,0.0174561-0.1391602,0.0212402-0.2102051C75.1331787,37.6834717,76.8664551,36,79,36   c1.4536133,0,2.7160645,0.7873535,3.4165039,1.9502563C82.7788086,38.5518188,83,39.2480469,83,40z M89,40   c0-2.2056274,1.7944336-4,4-4s4,1.7943726,4,4c0,2.2055664-1.7944336,4-4,4S89,42.2055664,89,40z"></path><path d="M43.6082764,21.2191162c-6.2115479,1.1393433-10.8789062,6.6942139-10.6282959,13.2908325   c0.2540283,6.6911011,5.7910156,12.2280273,12.4820557,12.4821167c6.5965576,0.2505493,12.1514893-4.4168701,13.2908936-10.6283569   c0.2250977-1.2271729-0.7280273-2.3601685-1.9758301-2.3601685h-8.8085938c-1.1046143,0-2-0.8954468-2-2v-8.8087769   C45.9685059,21.9471436,44.8354492,20.9940186,43.6082764,21.2191162z"></path><path d="M62.1259766,30.9082031c0.5683594-0.6801758,0.8037109-1.565918,0.6474609-2.4306641v-0.0004883   c-1.0361328-5.6982422-5.5595703-10.222168-11.2578125-11.2568359c-0.8642578-0.1557617-1.7509766,0.078125-2.4306641,0.6459961   C48.3955078,18.4418945,48,19.2856445,48,20.1821289v8.8105469c0,1.6542969,1.3457031,3,3,3h8.8105469   C60.7070312,31.9926758,61.5507812,31.597168,62.1259766,30.9082031z M50,28.9926758v-8.8105469   c0-0.3017578,0.1337891-0.5864258,0.3662109-0.7807617c0.1103516-0.0922852,0.3242188-0.2294922,0.6171875-0.2294922   c0.0556641,0,0.1142578,0.0048828,0.1748047,0.0161133c4.8828125,0.8867188,8.7597656,4.7631836,9.6464844,9.6464844   c0.0693359,0.3828125-0.1035156,0.6601562-0.2138672,0.7915039c-0.1943359,0.2329102-0.4785156,0.3666992-0.7802734,0.3666992H51   C50.4482422,29.9926758,50,29.5439453,50,28.9926758z"></path></g></svg>