<svg xmlns="http://www.w3.org/2000/svg" xmlns:xlink="http://www.w3.org/1999/xlink" version="1.1" x="0px" y="0px" viewBox="0 0 128 128" style="enable-background:new 0 0 128 128;" xml:space="preserve"><g><g><path d="M48,88c0-0.5527344-0.4477539-1-1-1h-5c-0.5522461,0-1,0.4472656-1,1s0.4477539,1,1,1h5    C47.5522461,89,48,88.5527344,48,88z"></path><path d="M48,84c0.5522461,0,1-0.4472656,1-1s-0.4477539-1-1-1h-7c-0.5522461,0-1,0.4472656-1,1s0.4477539,1,1,1H48z"></path><path d="M42,79h5c0.5522461,0,1-0.4472656,1-1s-0.4477539-1-1-1h-5c-0.5522461,0-1,0.4472656-1,1S41.4477539,79,42,79z"></path><path d="M96.2959595,40.3197021c5.0151367,0,9.5302124-2.1408691,12.6813354-5.5585327    c1.2576904-1.3640747,0.1196289-3.6071777-1.7254639-3.4125977c-1.100708,0.1160889-2.243042,0.0935059-3.4100952-0.086731    c-5.5601196-0.8585205-10.0150757-5.3831177-10.7832031-10.9563599c-0.588501-4.2698364,0.9066772-8.2062378,3.6132812-10.9435425    c1.3400269-1.3552246,0.2175293-3.6329956-1.682251-3.4812012c-0.6119995,0.0489502-1.2315063,0.1329956-1.857666,0.2554321    c-8.109314,1.585083-14.149292,8.821228-14.0809326,17.0836792    C79.1292725,32.6772461,86.8200684,40.3197021,96.2959595,40.3197021z"></path><path d="M68.270813,34.140686c1.0440063,0.6052246,1.914856,1.4760742,2.5200806,2.5200806    c0.4227905,0.7293091,1.4310913,0.7293091,1.8538818,0c0.6052246-1.0440063,1.4760742-1.914856,2.5200806-2.5200806    c0.7293091-0.4227905,0.7293091-1.4310913,0-1.8538818C74.1208496,31.6815796,73.25,30.81073,72.6447754,29.7667236    c-0.4227905-0.7293091-1.4310913-0.7293091-1.8538818,0c-0.6052246,1.0440063-1.4760742,1.914856-2.5200806,2.5200806    C67.5415039,32.7095947,67.5415039,33.7178955,68.270813,34.140686z"></path><path d="M56.2548218,17.4903564c1.0440063,0.6052246,1.914856,1.4760742,2.5200806,2.5200806    c0.4227905,0.7293091,1.4310913,0.7293091,1.8538818,0c0.6052246-1.0440063,1.4760742-1.914856,2.5200195-2.5200806    c0.7293701-0.4227905,0.7293701-1.4310913,0-1.8538818c-1.0439453-0.6052246-1.9147949-1.4760742-2.5200195-2.5200806    c-0.4227905-0.7293091-1.4310913-0.7293091-1.8538818,0c-0.6052246,1.0440063-1.4760742,1.914856-2.5200806,2.5200806    C55.5255127,16.0592651,55.5255127,17.0675659,56.2548218,17.4903564z"></path><path d="M105.3214722,17.4903564c1.0440063,0.6052246,1.914856,1.4760742,2.5200195,2.5200806    c0.4227905,0.7293091,1.4310913,0.7293091,1.8538818,0c0.6052246-1.0440063,1.4760742-1.914856,2.5200806-2.5200806    c0.7293701-0.4227905,0.7293701-1.4310913,0-1.8538818c-1.0440063-0.6052246-1.914856-1.4760742-2.5200806-2.5200806    c-0.4227905-0.7293091-1.4310913-0.7293091-1.8538818,0c-0.6051636,1.0440063-1.4760132,1.914856-2.5200195,2.5200806    C104.5921021,16.0592651,104.5921021,17.0675659,105.3214722,17.4903564z"></path><path d="M11.6455688,58.4575806c0,3.7776489,3.0623779,6.8400879,6.8400879,6.8400879    c0.1813965,0,0.3594971-0.0133057,0.5373535-0.0271606c1.2521973,1.3938599,3.0629883,2.2758179,5.0842285,2.2758179    c3.7034912,0,6.711853-2.9453125,6.8289795-6.6203003C33.809021,62.8667603,37.2721558,64,41,64    c2.9766846,0,5.7775269-0.7347412,8.2508545-2.0140381c0.9879761,0.5540161,2.1254272,0.8731079,3.3386841,0.8731079    c0.5422974,0,1.0671997-0.0697021,1.5730591-0.1889648c0.8443604,2.8198853,3.4559937,4.8762207,6.5506592,4.8762207    c3.7776489,0,6.8400879-3.062439,6.8400879-6.8401489c0-2.7475586-1.6237793-5.1102905-3.9606934-6.1980591    c2.1676025-1.4545898,3.5949097-3.9269409,3.5949097-6.7335205c0-4.4760132-3.628479-8.1044922-8.1044922-8.1044922    c-0.4134521,0-0.8164062,0.0408325-1.2131958,0.1005859C55.3326416,32.90448,48.7478027,28,41,28    c-0.6621704,0-1.31427,0.0411987-1.9578857,0.1109009l-0.0020142-0.005188    c-4.2367554,0.2164917-7.3736572,1.6450806-7.3736572,1.6450806c-6.3469849,3.3374634-8.8938599,7.3414917-9.9171753,9.9540405    c-0.2271118-0.019104-0.4552612-0.034729-0.6873169-0.034729c-4.4759521,0-8.1044922,3.628479-8.1044922,8.1044922    c0,1.8862915,0.6500244,3.6176147,1.7307129,4.9946899C12.8540649,53.9962158,11.6455688,56.0852661,11.6455688,58.4575806z     M41,62c-4.0971069,0-7.8273315-1.5611572-10.6608276-4.1029053c-0.2352905-0.5210571-0.5322876-1.0074463-0.8845215-1.4491577    c3.1230469-0.515686,5.5075073-3.2210083,5.5075073-6.4902344c0-0.5831909-0.083252-1.1456299-0.2255249-1.684082    c0.3852539,0.0701904,0.7803955,0.1121826,1.1859131,0.1121826c3.6373901,0,6.5860596-2.9486694,6.5860596-6.5859985    c0-0.9559326-0.2081299-1.8617554-0.5744019-2.6815186c0.3439331,0.0792236,0.6983032,0.1303711,1.0662842,0.1303711    c1.1277466,0,2.1496582-0.4094238,2.9642334-1.06604c0.8058472,2.1427002,2.4279785,4.9262085,5.6237183,6.5112305    c1.4522705,0.7202759,3.2330933,1.1880493,5.4081421,1.2385864C56.9967041,45.9552002,57,45.9771729,57,46    c0,1.5025635-0.2229004,2.9515381-0.6119385,4.3313599c-0.4185181,1.4841309-1.0454102,2.8780518-1.8483887,4.154541    c-1.6798096,2.6705322-4.1189575,4.8104248-7.0212402,6.1117554C45.5248413,61.4915161,43.3225098,62,41,62z     M40.0516357,30.7033691c0.0144043,0.0209961,0.0302124,0.0423584,0.045166,0.0635376    c-0.005249,0.0041504-0.0101929,0.008606-0.0154419,0.0127563L40.0516357,30.7033691z"></path><path d="M121,117h-0.9994507l0.682373-8.9904785c0.3431396-4.5214844-3.2329712-8.3793945-7.7675171-8.3793945h-0.2906494    c-4.5344849,0-8.1106567,3.8579102-7.7674561,8.3793945L105.5396729,117h-4.774353    c0.2999268-0.4177856,0.421814-0.9645996,0.2616577-1.5133667l-0.5784302-1.9824829    c-0.4522095-1.5498657-0.5460815-3.182251-0.2744751-4.7737427v-0.000061    c0.8117676-4.7570801-2.8529663-9.1002197-7.678833-9.1002197c-4.8095093,0-8.4699097,4.3152466-7.6855469,9.0603638    l0.0041504,0.0250854c0.2614136,1.5812988,0.1624756,3.2012329-0.2894287,4.7390137l-0.5961914,2.0286865    C83.7666626,116.03302,83.8883667,116.5812988,84.1890259,117h-6.3286743l-11.807251-36.2357178    c-2.6824951-8.2323608-10.357605-13.803772-19.0159912-13.803772H36.5149536    c-4.2311401,0-8.3740845,1.2099609-11.9402466,3.4871216c-3.9717407,2.5361328-7.0396118,6.2540283-8.7724609,10.6362305    c-2.4376221,6.1641846-6.0390625,15.1967163-8.3306274,20.937439c-1.3711548,3.4349976-0.993042,7.3143921,1.0111084,10.4229126    l0.0852661,0.1322632c1.2876587,1.9971924,3.1192017,3.5067139,5.2190552,4.4235229H7c-0.5522461,0-1,0.4472656-1,1    s0.4477539,1,1,1h34h80c0.5522461,0,1-0.4472656,1-1S121.5522461,117,121,117z M58.7666016,99.3964844    c2.3496094-6.203125,1.9277344-10.4970703,1.9233398-10.5390625c-0.0581055-0.5488281,0.3378906-1.0419922,0.8862305-1.1015625    c0.550293-0.0537109,1.0410156,0.3349609,1.1015625,0.8828125c0.0214844,0.1894531,0.4838867,4.6845703-1.9658203,11.2666016    L61.6815796,117h-2.003479L58.703125,99.8076172C58.6953125,99.6679688,58.7167969,99.5273438,58.7666016,99.3964844z     M24.9985352,105.2011719c-0.2944336-0.0400391-0.5556641-0.2089844-0.7124023-0.4619141    c-0.1572266-0.2519531-0.1938477-0.5605469-0.1005859-0.8427734l6.4428711-19.4267578    c0.1738281-0.5244141,0.7358398-0.8076172,1.2641602-0.6347656c0.5239258,0.1738281,0.8081055,0.7402344,0.6342773,1.2636719    l-6.0644531,18.2851562l14.6738281,2.0175781c0.0379639,0.005188,0.0691528,0.0253906,0.1055298,0.0346069L44,105.9251099    v-7.538147c-2.4588013-0.2661133-4.7223511-1.56427-6.1831055-3.5949707    c-0.3222656-0.4482422-0.2202148-1.0732422,0.2280273-1.3955078c0.4482422-0.3232422,1.0727539-0.2207031,1.3959961,0.2275391    C40.5256348,95.1331787,42.1854248,96.1158447,44,96.3713989v-3.3901978c-3.3547974-0.2531128-6-3.0492554-6-6.4689331v-8.0061646    c0-3.5864258,2.9074097-6.4938354,6.4938354-6.4938354h0.000061c3.5864258,0,6.4938354,2.9074097,6.4938354,6.4938354v8.0061646    c0,3.0670166-2.1288452,5.6309204-4.9877319,6.3111572v3.5254517c1.8327637-0.2922363,3.4830933-1.3192139,4.5424805-2.8869629    c0.309082-0.4570312,0.9306641-0.578125,1.3886719-0.2685547c0.4575195,0.3085938,0.5776367,0.9306641,0.2685547,1.3876953    C50.7665405,96.7023926,48.5014038,98.0723267,46,98.3776245v7.9021606l1.6737671,0.296814    c4.3511353,0.7715454,7.8286743,4.0532227,8.8508301,8.352356C56.7758789,115.9857178,55.9744873,117,54.8883057,117H42h-1h-1    v-9.7363281L24.9985352,105.2011719z"></path><circle cx="92.4771118" cy="90.4436035" r="7"></circle><circle cx="112.7700806" cy="90.4436035" r="7"></circle><circle cx="92.4771118" cy="54.4313354" r="7"></circle><circle cx="112.7700806" cy="54.4313354" r="7"></circle><circle cx="82.3306274" cy="72.4375" r="7"></circle><circle cx="102.6235962" cy="72.4375" r="7"></circle></g></g></svg>