<svg xmlns="http://www.w3.org/2000/svg" xmlns:xlink="http://www.w3.org/1999/xlink" version="1.1" x="0px" y="0px" viewBox="0 0 128 128" style="enable-background:new 0 0 128 128;" xml:space="preserve"><g><path d="M24.7954102,56.2983398c1.0545654-0.4227295,2.041626-0.6564331,2.8713379-0.7836914l-1.7058716-2.2271729   c-0.0128784-0.0238037-0.0142212-0.0505371-0.0292358-0.0736084l-2.2568359-3.4643555   c-0.6012573-0.9239502-1.4276733-1.6420898-2.3778687-2.1194458c0.5907593-0.1747437,1.0182495-0.7255249,0.9957886-1.3736572   l-0.6026611-17.3706055c-0.0255737-0.7367554,0.3687134-1.4074097,0.9967041-1.7935181   c2.2935791-1.4102173,3.7145996-4.1221313,3.7145996-7.5327148c0-1.161438-0.2276001-2.2880859-0.6776123-3.350708   c-0.2767944-0.6537476-0.9436035-1.1033325-1.6437378-0.9859619c-0.9747314,0.1633911-1.4917603,1.1344604-1.1877441,1.9870605   c0.2305298,0.6466064,0.4696655,1.291748,0.5006714,1.977478c0.1201172,2.6571045-1.0325928,5.9746704-4.5941162,5.9746704   l-2.4208984,0.0004883c-2.4890747,0.0450439-7.5322876,1.7087402-8.9429321,7.6619263   c-0.1962891,0.8283691,0.2713623,1.7541504,1.1026001,1.9377441c0.1101685,0.024353,0.2203979,0.0365601,0.3291016,0.0365601   c0.6865234,0,1.3056641-0.4746094,1.4624023-1.1723633c0.3491821-1.557251,1.010437-2.6688232,1.772644-3.4634399   c0.6419678-0.6692505,1.7684326-0.2077026,1.7362671,0.7191162L13.3838501,43.97229l-0.0029907-0.0098877   c-0.4404297-1.4453125-1.7514648-2.4165039-3.262207-2.4165039c-0.9555664,0-1.8730469,0.4047852-2.5175781,1.1103516   S6.6362305,44.3125,6.722168,45.2646484l0.5371094,5.9194336c0.2788086,3.0708008,2.8139648,5.3862305,5.8974609,5.3862305   c0.34375,0,0.6586914,0.1728516,0.8432617,0.4624023l1.9874878,3.1166992l1.6335449,2.9956665   C19.6829224,59.0942993,22.5761108,57.187561,24.7954102,56.2983398z M15.9733276,46.5849609l1.3830566-7.7028809   c0,0,0.1054077-0.350647,0.4415283-0.350647c0.3361816,0,0.4431152,0.350647,0.4431152,0.350647l1.2947388,7.6540527   c0.0369263,0.2182617,0.1368408,0.4058228,0.260376,0.5750122c-0.4040527-0.083313-0.8168945-0.1370239-1.239502-0.1370239   h-2.7270508C15.8937378,46.8533325,15.9480591,46.7255859,15.9733276,46.5849609z M16.7387695,57.607605l-1.0522461-1.6500854   c-0.5537109-0.8686523-1.4995117-1.387207-2.5297852-1.387207c-2.0419922,0-3.7211914-1.5332031-3.9052734-3.5668945   l-0.5371094-5.9194336c-0.0366211-0.3994141,0.0927734-0.7827148,0.3632812-1.0791016   c0.2705078-0.2958984,0.6401367-0.4589844,1.0410156-0.4589844c0.625,0,1.1669922,0.4018555,1.3491211,0.9995117   l0.6132812,2.0126953c0.4404297,1.4453125,1.7514648,2.4160156,3.262207,2.4160156h3.2133789   c1.3945312,0,2.6816406,0.6977539,3.4423828,1.8666992l1.2371216,1.899292   C21.3297119,53.2944336,18.5007324,54.5969238,16.7387695,57.607605z"></path><path d="M99.4484253,57.3692627l-3.7341309,6.0693359c-0.678772,1.1033325-2.2113647,1.2800903-3.1235352,0.3602905   l-5.5012817-5.5475464c-3.7553711-3.7869873-8.8677979-5.9171143-14.2011719-5.9171143h-0.6654053   c-0.428894,0-0.8464355,0.1378174-1.190979,0.3932495c-3.6259155,2.2294922-8.1699219,2.3397217-11.8997192,0.2886963   l-0.6574097-0.3615112c-0.3235474-0.2091675-0.7006226-0.3204346-1.0858765-0.3204346h-0.5002441   c-5.333374,0-10.4458008,2.130127-14.2012329,5.9171143l-5.6780396,5.725769   c-0.8536377,0.8608398-2.2706909,0.7703247-3.0078735-0.1920776l-4.9100952-6.4104614   c-2.0230103,0.0723877-7.4154053,0.947937-10.2767334,7.9593506l9.0612793,16.6165771   c1.4921265,2.7362671,4.3598633,4.4388428,7.4765625,4.4388428c1.8234253,0,3.5986938-0.5852661,5.0645752-1.6696777   l2.0529785-1.5186768c-0.366333-4.7514038,0.0921631-7.324646,0.1187744-7.4661255   c0.1005859-0.5419922,0.6210938-0.8969727,1.1640625-0.7993164c0.5419922,0.0996094,0.9013672,0.6210938,0.8022461,1.1635742   c-0.006897,0.0384521-0.6045532,3.4802246,0.2026367,9.7484741l0.7107544,4.4004517   c0.2510986,1.5546265,0.317688,3.1334839,0.1984253,4.7037354l-1.3786621,18.8977051   c-0.0845337,1.1588135,0.8328247,2.1455078,1.9946899,2.1455078h37.2109375c1.1618652,0,2.0792236-0.9866943,1.9946899-2.1455078   l-1.3786621-18.8977051c-0.1192627-1.5702515-0.0526733-3.1491089,0.1984253-4.7037354l1.2925415-8.0026855   c0.2392578-3.9855957-0.1375122-6.114624-0.1429443-6.1442871c-0.1010742-0.5429688,0.2568359-1.0654297,0.7998047-1.1660156   c0.546875-0.105957,1.0649414,0.2568359,1.1660156,0.7998047c0.0269165,0.1430664,0.4950562,2.7748413,0.1053467,7.6305542   l1.9274292,1.4258423c1.4030762,1.0379639,3.1022339,1.5980835,4.8474731,1.5980835   c3.1592407,0,6.0339966-1.8256226,7.3773193-4.6850586l8.1104126-17.2640991   C106.0091553,58.1952515,101.2106934,57.4208374,99.4484253,57.3692627z M72.2407227,60.2451172   c-0.3881836,0.0913086-0.7807617,0.1293945-1.1674805,0.1074219c-0.0097656,0.3916016-0.0556641,0.7558594-0.1499023,1.1142578   c-0.434082,1.6513672-1.8442383,2.9072266-3.5087891,3.125c-0.1904297,0.0249023-0.3793945,0.0371094-0.5668945,0.0371094   c-1.1547852,0-2.2416992-0.4648438-3.0458984-1.3183594c0,0-0.1196289,0-0.1201172,0.0004883   C62.75,64.2998047,61.4375,64.7666016,60.0800781,64.5927734c-1.6513672-0.2114258-3.0615234-1.4521484-3.5083008-3.0874023   c-0.0986328-0.359375-0.1484375-0.7280273-0.1479492-1.0952148c-0.4301758-0.0424805-0.8237305-0.0883789-1.2114258-0.190918   c-1.6010742-0.4228516-2.847168-1.7856445-3.1000977-3.390625c-0.0859375-0.5454102,0.2866211-1.0576172,0.8320312-1.1435547   c0.5463867-0.0869141,1.0576172,0.2866211,1.1435547,0.8320312c0.1313477,0.8339844,0.7890625,1.5449219,1.6357422,1.7685547   c0.2021484,0.0532227,0.4077148,0.0776367,0.6005859,0.0717773c0.5419922-0.0083008,1.0771484,0.1958008,1.4731445,0.581543   c0.3999023,0.3896484,0.628418,0.9277344,0.6264648,1.4765625c-0.0004883,0.1855469,0.0253906,0.375,0.0766602,0.5615234   c0.2333984,0.8530273,0.9873047,1.5234375,1.8339844,1.6323242c0.7138672,0.0898438,1.4033203-0.1523438,1.8920898-0.6704102   c0.8037109-0.8535156,2.2270508-0.8535156,3.0307617,0c0.4892578,0.519043,1.1845703,0.7626953,1.8979492,0.6694336   c0.8535156-0.1118164,1.6079102-0.7900391,1.8334961-1.6494141c0.0488281-0.1860352,0.0732422-0.3740234,0.0712891-0.5566406   c-0.0053711-0.5541992,0.2250977-1.0961914,0.6318359-1.4858398c0.4008789-0.3847656,0.9526367-0.5952148,1.4833984-0.5610352   c0.2006836,0.0078125,0.402832-0.0092773,0.605957-0.0566406c0.8447266-0.199707,1.5332031-0.921875,1.6743164-1.7563477   c0.0913086-0.5449219,0.6054688-0.9160156,1.1523438-0.8193359c0.5444336,0.0917969,0.9116211,0.6079102,0.8193359,1.1523438   C75.1523438,58.5058594,73.871582,59.8598633,72.2407227,60.2451172z"></path><path d="M41.4694214,53.5333252c1.5461426,0.7550659,3.3991089,0.4663696,4.6422119-0.7233276l1.2838745-1.2285767   c0.3148193-0.3013306,0.7301025-0.4594116,1.1644897-0.4941406c3.055603-0.2443848,4.6109009-2.1277466,5.3621826-3.5623169   C56.5895996,49.0882568,59.6849365,50,63,50c3.9986572,0,7.6801758-1.3198853,10.6677856-3.5256348   c2.0640259,4.1729736,6.8759766,3.4020386,6.8759766,3.4020386c6.3049316,7.178833,10.2376709,2.6842651,10.2376709,2.6842651   c3.7766724-3.7767334-3.7454834-11.3613281-3.7454834-11.3613281c0-8.3191528-4.336853-11.708252-6.4088135-12.8547363   C78.9378052,20.1564331,71.6885376,14,63,14c-7.4650879,0-13.8676758,4.5449219-16.5944824,11.0182495   c-3.0713501,4.7836914-3.2019043,8.0157471-3.375,11.8126221c-0.0250244,0.5491943-0.2875366,1.0644531-0.7034302,1.4240112   c-3.0313721,2.6211548-2.7199097,6.5580444-2.5331421,7.7923584c0.0410156,0.2709351,0.0314941,0.5429688-0.0321045,0.8095703   l-0.4850464,2.0325317C38.8304443,50.7597046,39.7415771,52.6894531,41.4694214,53.5333252z M55.0585327,45.5106201   c3.178833-2.5185547,2.1536865-6.6810303,1.3638916-8.7533569c-0.2806396-0.7363892-0.0091553-1.5383301,0.6004639-2.0378418   c4.0911255-3.352478,5.3979492-10.8920288,5.3979492-10.8920288s4.6497192,6.7626953,13.8643799,8.2609253   c0.8577881,0.1394653,1.7599487,0.2241821,2.6970215,0.2624512c-0.0956421,4.3806152-1.9547729,8.328125-4.9013672,11.1644897   C71.2027588,46.2857666,67.3008423,48,63,48c-2.9833374,0-5.7685547-0.8357544-8.1618042-2.2633057   C54.9107056,45.6602173,54.9749756,45.5767822,55.0585327,45.5106201z"></path><path d="M120.3481445,42.65625c-0.6445312-0.7055664-1.5620117-1.1103516-2.5175781-1.1103516   c-1.1660767,0-2.2081909,0.5825195-2.8278198,1.5111694l-0.53302-15.3626709   c-0.0241089-0.6954346,0.3206787-1.3453369,0.899292-1.7319946c2.4006348-1.6043091,3.9874268-4.3331909,3.9874268-7.4311523   c0-1.2069702-0.2363281-2.3764648-0.7020264-3.4781494c-0.2823486-0.6680298-0.968689-1.1253662-1.6812744-0.9902954   c-0.9925537,0.1880493-1.4946289,1.2176514-1.1147461,2.0827026c0.3504028,0.7976074,0.5175781,1.6516724,0.4962158,2.5355835   c-0.0684204,2.8362427-2.2408447,5.3165894-5.0479126,5.7282715c-3.6722412,0.5386353-6.8379517-2.3071289-6.8379517-5.8781128   c0-0.8310547,0.1674805-1.6337891,0.4980469-2.3862305c0.3798828-0.8650513-0.1221924-1.8946533-1.1147461-2.0827026   c-0.7125854-0.1350708-1.3989258,0.3222656-1.6812744,0.9902954c-0.4656982,1.1016846-0.7020264,2.2712402-0.7020264,3.4786377   c0,3.0978394,1.586792,5.8267822,3.9873047,7.4310913c0.5785522,0.3866577,0.9233398,1.036499,0.899231,1.7319946   l-0.6544189,18.8630981c-0.0179443,0.5170898,0.246521,0.9735718,0.6505737,1.2332764   c-0.8228149,0.4732056-1.5397949,1.133728-2.0770264,1.958313l-1.68396,2.5853271   c-0.0154419,0.000061-0.0441895-0.0001221-0.0441895-0.0001221l-1.9276733,3.1331177   c2.463623,0.3327026,6.6618042,1.7007446,10.1824341,6.824585l0.7833252-1.6674805   c0.086853-0.0679932,0.1673584-0.145752,0.2301025-0.2440796l2.1342773-3.347168   c0.1850586-0.2900391,0.5004883-0.4628906,0.84375-0.4628906c3.0834961,0,5.6186523-2.3154297,5.8974609-5.3862305   l0.5371094-5.9194336C121.3129883,44.3125,120.9926758,43.3618164,120.3481445,42.65625z M108.4993896,46.8557129   l1.4495239-8.0731201c0,0,0.1104736-0.3675537,0.4628296-0.3675537c0.3522949,0,0.4643555,0.3675537,0.4643555,0.3675537   l1.3569946,8.0219727c0.0099487,0.0588379,0.02948,0.1135254,0.0460815,0.1695557h-2.8865967   c-0.3285522,0-0.6506348,0.0350342-0.968689,0.0858154C108.4478149,46.9909668,108.486145,46.9295044,108.4993896,46.8557129z    M118.6977539,51.003418c-0.184082,2.0336914-1.8632812,3.5668945-3.9052734,3.5668945   c-1.0297852,0-1.9750977,0.5185547-2.5297852,1.387207l-0.8043823,1.2614136   c-1.7266846-3.0230103-4.6291504-4.1803589-6.6567993-4.614563l1.1486816-1.7635498   c0.7612305-1.1689453,2.0478516-1.8666992,3.4423828-1.8666992h3.2133789c1.5107422,0,2.8217773-0.9707031,3.262207-2.4160156   l0.6132812-2.0126953c0.1821289-0.5976562,0.7241211-0.9995117,1.3491211-0.9995117   c0.4008789,0,0.7705078,0.1630859,1.0410156,0.4589844c0.2705078,0.2963867,0.3999023,0.6796875,0.3632812,1.0791016   L118.6977539,51.003418z"></path><path d="M110.4124756,22.7703857c1.7283325,0,3.1293945-1.401062,3.1293945-3.1293335   c0-0.0025024-0.0007324-0.0048828-0.0007324-0.0073853c0.4277344-0.0016479,0.8845825-0.1156616,1.1715698-0.5393677   c0.6618652-0.9771118-0.2521362-2.0805054-0.2521362-2.0805054s0.0314941-2.1430054-2.0802002-2.1430054   c-1.4387817,0-2.1436157,1.0283203-2.4532471,1.6898804c-1.4961548,0.2346802-2.6439819,1.5183716-2.6439819,3.0803833   C107.2831421,21.3693237,108.6842041,22.7703857,110.4124756,22.7703857z"></path><path d="M17.7987061,24.2533569c1.6489868,0,2.9857788-1.336792,2.9857788-2.9858398s-1.336792-2.9858398-2.9857788-2.9858398   c-1.6490479,0-2.9858398,1.336792-2.9858398,2.9858398S16.1496582,24.2533569,17.7987061,24.2533569z"></path></g></svg>