<svg xmlns="http://www.w3.org/2000/svg" xmlns:xlink="http://www.w3.org/1999/xlink" version="1.1" x="0px" y="0px" viewBox="0 0 128 128" style="enable-background:new 0 0 128 128;" xml:space="preserve"><g><path d="M35,32c5.5228271,0,10-4.4771729,10-10c0-5.5228882-4.4771729-10-10-10s-10,4.4771118-10,10   C25,27.5228271,29.4771729,32,35,32z M43,22c0,4.4111938-3.5887451,8-8,8c-3.6293945,0-6.6970215-2.4314575-7.6721191-5.7494507   c5.2990723-0.2061768,7.3444824-3.9159546,8.1269531-6.9153442c1.3962402,0.7993164,4.0070801,2.0223999,7.1607666,2.2227173   C42.8632812,20.3284302,43,21.1481934,43,22z"></path><path d="M120.3314209,67.0067749l-9.4058838-25.4205933c-1.4521484-3.9244385-5.1940918-6.5297852-9.3786621-6.5297852H88.3778076   c-4.1844482,0-7.9263916,2.6053467-9.37854,6.5297852l-9.4060059,25.4205933   c-0.7590332,2.0513916,0.3443604,4.3217773,2.4262695,4.9926147c1.87146,0.6030273,3.8963623-0.3034668,4.6931152-2.1010742   l7.3894043-16.6720581c0.1761475-0.3972168,0.7727051-0.2815552,0.7823486,0.152832   c0.0655518,2.953064-0.1473389,6.1029663-1.4978027,10.1871338c-2.362793,7.145752-2.5621338,20.2229614-2.5621338,20.2229614   l-0.0410156,4.5532837c-5.359375,1.664856-8.1818848,4.25354-8.1818848,6.7542114v5.5459595   c-3.6317139,1.6123657-5.5224609,3.723877-5.5224609,5.7733765v7.5458984c0,4.1435547,7.6982422,8.546875,21.9648438,8.546875   c14.265625,0,21.9638672-4.4033203,21.9638672-8.546875v-5.5446167c3.6323242-1.6125488,5.5234375-3.7245483,5.5234375-5.7747192   v-7.5458984c0-2.3751831-2.5412598-4.831604-7.3876953-6.4992065l-0.0432129-4.8082886   c0,0-0.1993408-13.0772095-2.5622559-20.2229614c-1.3503418-4.0841675-1.5632324-7.2340698-1.4976807-10.1871338   c0.0096436-0.4343872,0.6062012-0.5500488,0.7822266-0.152832l7.3895264,16.6720581   c0.7967529,1.7976074,2.8215332,2.7041016,4.6931152,2.1010742   C119.9871826,71.3285522,121.0904541,69.0581665,120.3314209,67.0067749z M114.53125,95.0965576c0,0.000061,0,0.000061,0,0.0001221   c0,1.5045166-1.9487305,3.0897217-5.2901611,4.3249512c-1.1557617,0.4272461-2.4825439,0.809021-3.9523926,1.133728   c-0.6072998,0.1341553-1.2385254,0.2574463-1.894165,0.369751c-0.7513428,0.1286621-1.526123,0.2450562-2.3364258,0.3414307   c-0.4388428,0.0521851-0.8917236,0.0949707-1.3468018,0.1368408c-1.6236572,0.149292-3.3358154,0.2391968-5.1448975,0.2391968   c-1.5187988,0-2.9750977-0.0595703-4.3649902-0.1663818c-2.8814697-0.2213745-5.4533691-0.6576538-7.6495361-1.2299805   c-0.659668-0.171875-1.2833252-0.3557129-1.8707275-0.5507202c-0.1308594-0.043457-0.2705078-0.0843506-0.397583-0.1287842   c-0.6517334-0.2280273-1.2418213-0.4711304-1.7912598-0.7225952c-2.4731445-1.1318359-3.8907471-2.4682007-3.8907471-3.7474365   c0-0.000061,0-0.000061,0-0.0001221c0.0001221-1.6308594,2.2910156-3.3550415,6.1627197-4.6264038   c3.0089111-0.9879761,6.9671631-1.7035522,11.5877686-1.8780518c0.7230225-0.0272827,1.4608154-0.0422974,2.2143555-0.0422974   c1.0371094,0,2.0351562,0.0355835,3.0136719,0.0866089c4.684082,0.2442017,8.6621094,1.036438,11.5827637,2.1040649   C112.5537109,91.9799194,114.5311279,93.5795288,114.53125,95.0965576z M104.4853516,117.9893799v-2.1430054V112.59375   c1.9293213-0.7458496,3.4438477-1.6202393,4.5224609-2.5640869v3.6385498v0.2937012   C109.0078125,115.3480225,107.3553467,116.8027344,104.4853516,117.9893799z M89.0439453,120.5087891   c-1.4545898,0-2.8536377-0.0535278-4.1904297-0.1517944v-4.4088745v-1.1324463   c0.7374268,0.0491333,1.4940186,0.0863647,2.2750244,0.1090088c0.6295166,0.0182495,1.2579346,0.0372314,1.9154053,0.0372314   c1.2667236,0,2.4626465-0.0460815,3.625-0.1122437v5.5386353   C91.5015869,120.4620972,90.2978516,120.5087891,89.0439453,120.5087891z M69.0791016,113.9619141v-3.932312   c0.972168,0.850647,2.293457,1.6461182,3.9580078,2.3413086v5.3706055   C70.5212402,116.6030273,69.0791016,115.2532959,69.0791016,113.9619141z M69.0791016,106.4160156   c0-1.2185669,1.2858887-2.4891968,3.5441895-3.5855103c0.0681152,1.2185059,0.7868652,2.4523926,2.1506348,3.5855713   c1.3359375,1.1100464,3.2954102,2.1160278,5.8204346,2.9199829c2.2310791,0.7103882,4.9141846,1.2549438,8.0340576,1.5631714   c1.8361816,0.1813965,3.8041992,0.2902222,5.9379883,0.2902222c2.4376221,0,4.6680908-0.1369019,6.7165527-0.3707275   c1.293457-0.1477051,2.503418-0.3379517,3.6379395-0.5636597c-1.0117188,0.4480591-2.1970215,0.8585815-3.5283203,1.2206421   c-3.3070068,0.8994751-7.5196533,1.4862061-12.3486328,1.4862061c-0.2646484,0-0.5175781-0.0107422-0.7786865-0.0142212   c-2.7904053-0.0368652-5.3692627-0.2639771-7.6705322-0.637146c-7.0526123-1.1435547-11.515625-3.612915-11.515625-5.8944702   V106.4160156z M80.5595703,106.4160767v-4.6380005c0.0341797,0.0109253,0.0681152,0.0220947,0.1025391,0.032959   c2.1567383,0.680603,4.7332764,1.2059937,7.7138672,1.5151978v3.0898438v2.4365234   c-3.0124512-0.3391724-5.6293945-0.9177856-7.7624512-1.6323242c-0.0177002-0.0059204-0.036377-0.0115356-0.0539551-0.0174561   V106.4160767z M94.5664062,103.6425781c1.2670898,0,2.4633789-0.0460815,3.6259766-0.1123047v2.8858032v2.652832   c-1.1677246,0.0737915-2.371582,0.1205444-3.6259766,0.1205444c-1.4545898,0-2.8536377-0.0535278-4.1904297-0.1517944v-2.621582   v-2.9197388C91.7077637,103.585083,93.0932617,103.6425781,94.5664062,103.6425781z M105.1174316,102.6687012   c0.526001-0.1074829,1.0354004-0.2214355,1.526123-0.3439331c0.4433594-0.1106567,0.8840332-0.2220459,1.2983398-0.3439941   c0.0229492-0.0067139,0.0432129-0.0144043,0.065918-0.0211792v0.0693359v1.1860962v1.2961426v1.9049072v0.9698486   c-1.9885254,0.6224365-4.3625488,1.1273804-7.0571289,1.4417725c-0.2481689,0.0289307-0.5050049,0.0519409-0.7583008,0.0776367   v-2.4892578v-2.1306152v-0.9008179C101.9761963,103.2192383,103.6158447,102.9754639,105.1174316,102.6687012z    M74.6015625,99.8743896v-1.1641235c0.3200684,0.2800903,0.6704102,0.5550537,1.0664062,0.8218384   c0.3769531,0.2540283,0.7813721,0.5025635,1.2265625,0.7414551c0.4416504,0.2369385,0.9187012,0.4647827,1.4265137,0.6838989   c0.0755615,0.0325928,0.161499,0.0619507,0.2385254,0.0941162v5.364502v0.0061035   c-0.0043945-0.0020142-0.008667-0.0040283-0.0131836-0.0061035c-2.5074463-1.137207-3.9448242-2.484375-3.9448242-3.7734985   v-0.6417847v-1.0458984V99.8743896z M75.0371094,118.5221558v-5.4247437   c1.8288574,0.5848389,3.9528809,1.0627441,6.3837891,1.3860474c0.4633789,0.0616455,0.9477539,0.1118164,1.4326172,0.1621094   v0.9759521v4.550415C79.8161621,119.8299561,77.1794434,119.244873,75.0371094,118.5221558z M94.6689453,120.2247314v-5.5206909   c2.7041016-0.2507935,5.0876465-0.6778564,7.1392822-1.2369385c0.2279053-0.0621338,0.4573975-0.1231689,0.677124-0.1884155   v1.3330078v4.0933228C100.3135986,119.3848877,97.6737061,119.9200439,94.6689453,120.2247314z M110.9862061,106.229248   c-0.0047607,0.0023193-0.0098877,0.0045166-0.0146484,0.0068359c-0.305542,0.1479492-0.6226807,0.293335-0.9633789,0.4342041   c-0.0001221,0.000061-0.0002441,0.000061-0.0003662,0.0001221v-0.251709v-0.0026245v-0.0026245v-0.9974365v-1.5649414v-2.576355   c1.9299316-0.7459106,3.4447021-1.6204834,4.5234375-2.5644531v3.932312   C114.53125,103.8616333,113.2449951,105.1326294,110.9862061,106.229248z M94.5664062,86.5498047   c-0.6451416,0-1.2613525,0.0189209-1.8795166,0.036499l1.2480469-7.4767456   c0.0838623-0.5021362,0.5183105-0.8701172,1.0274658-0.8701172c0.5090332,0,0.9436035,0.367981,1.0274658,0.8701172   l1.2510986,7.4953613C96.3762207,86.5695801,95.486084,86.5498047,94.5664062,86.5498047z"></path><path d="M54.7958984,99.6066895v-4.5100098c0-1.9932251-1.7990723-4.041748-5.236084-5.6361084L47.703125,57.9591064   c-0.0668945-1.1366577,1.5141602-1.4837036,1.9294434-0.4235229l4.6481934,11.8677979   c0.8769531,2.239502,3.4150391,3.3305664,5.6436768,2.4262085l0.0083008-0.0033569   c2.2293701-0.9047241,3.2891846-3.4571533,2.3563232-5.6749268l-9.989502-23.7478027   c-1.8726807-4.4517822-6.2316895-7.3471069-11.0612793-7.3471069h-11.072998c-4.8424072,0-9.2102051,2.9105225-11.074707,7.3795776   L9.237793,66.0522461c-0.9244385,2.2159424,0.1364746,4.760376,2.3613281,5.663208   c2.2363281,0.9075317,4.7824707-0.194458,5.6516113-2.446167l4.4870605-11.6264038   c0.4108887-1.0649414,1.998291-0.7206421,1.9311523,0.4188843l-1.7404785,29.5325317   c-7.2331543,1.5478516-11.0622559,4.5859985-11.0622559,7.5023804v7.5458984c0,2.5283813,2.8813477,5.1481934,8.3574219,6.8105469   v4.5087891c0,4.1435547,7.6982422,8.546875,21.9638672,8.546875c14.2666016,0,21.9648438-4.4033203,21.9648438-8.546875v-7.5458984   C63.1523438,103.8883667,60.2713623,101.2689819,54.7958984,99.6066895z M56.6298828,117.9893799v-5.3956909   c1.9294434-0.7458496,3.4438477-1.6203003,4.5224609-2.5640869v3.932312   C61.1523438,115.3480225,59.5,116.8027344,56.6298828,117.9893799z M41.1875,120.5087891   c-1.4545898,0-2.8536377-0.0534668-4.1904297-0.1517944v-5.5413208c1.3317871,0.0888062,2.7172852,0.1462402,4.1904297,0.1462402   c1.1928711,0,2.3225098-0.0412598,3.4228516-0.1000977c0.0683594-0.0036621,0.1351318-0.0083008,0.203125-0.012207v0.1083984   v5.4302368C43.645752,120.4620361,42.4418945,120.5087891,41.1875,120.5087891z M21.2236328,113.9619141v-0.6757812v-3.2564697   c0.972168,0.850708,2.293457,1.6461182,3.9580078,2.3413086v2.9126587v2.4579468   C22.6657715,116.6030884,21.2236328,115.2532959,21.2236328,113.9619141z M12.8662109,102.6425781v-3.932312   c0.9724121,0.8508301,2.2939453,1.6463623,3.9589844,2.3416748v5.3707275   C14.3087158,105.2841187,12.8662109,103.9341431,12.8662109,102.6425781z M21.8040771,89.7037964   c3.0828857-0.7080688,6.8209229-1.1539917,11.0269775-1.1539917c0.0987549,0,0.1921387,0.0048218,0.2904053,0.0053101   c1.8223877,0.0089722,3.5505371,0.1040649,5.180542,0.2643433c4.9033203,0.4822388,8.8614502,1.5775757,11.3913574,2.9086304   c1.9863281,1.0449829,3.1025391,2.2300415,3.1025391,3.3684692c0,0.000061,0,0.000061,0,0.0001221   c0,1.0601807-0.980957,2.1591797-2.7182617,3.1497192c-0.135376,0.0771484-0.2625732,0.1554565-0.4072266,0.2312012   c-0.5284424,0.2766724-1.1296387,0.5402222-1.7770996,0.793457c-0.699707,0.2736816-1.4570312,0.5328979-2.2854004,0.7705688   c-1.5319824,0.4396973-3.2772217,0.8070068-5.1962891,1.0802612c-2.2973633,0.3270264-4.8366699,0.5206909-7.5805664,0.5206909   c-0.6621094,0-1.3088379-0.0144043-1.9475098-0.0355835c-0.8461914-0.0280762-1.6707764-0.0734863-2.4724121-0.1359253   c-0.8303223-0.0646973-1.6279297-0.1508179-2.4063721-0.2489624c-0.6483154-0.0817261-1.2766113-0.1740723-1.8863525-0.2767944   c-1.0380859-0.1749268-2.0251465-0.3745728-2.9414062-0.602356c-5.1716309-1.2858887-8.310791-3.3327026-8.310791-5.2462769   c0-0.000061,0-0.000061,0-0.0001221C12.8664551,93.1069946,16.2634277,90.9764404,21.8040771,89.7037964z M28.640625,106.4160767   v-2.9197388c0.621582,0.0413818,1.2490234,0.0790405,1.9013672,0.1017456   c0.7457275,0.0259399,1.503418,0.0444946,2.2890625,0.0444946c1.2670898,0,2.4633789-0.0460815,3.6259766-0.1123047v2.8858032   v2.652832c-1.1677246,0.0737915-2.371582,0.1205444-3.6259766,0.1205444c-1.1141357,0-2.1845703-0.039978-3.230835-0.0986328   c-0.3197021-0.0178833-0.6467285-0.0301514-0.9595947-0.0531616V106.4160767z M46.2724609,106.4160767v0.9698486   c-1.3581543,0.4251709-2.9006348,0.7921753-4.6009521,1.0839233c-1.0181885,0.1747437-2.0892334,0.3213501-3.2144775,0.4354858   v-2.4892578v-3.0314331c0.7937012-0.0736084,1.5588379-0.1623535,2.2969971-0.2655029   c2.0557861-0.2871704,3.9017334-0.6795044,5.5184326-1.1595459V106.4160767z M52.7958984,100.133667v1.0238037v1.4851074   c0,0.9732056-0.8120117,1.9810791-2.2878418,2.9060669c-0.4790039,0.3002319-1.0426025,0.5888062-1.6569824,0.8674316   c-0.1890869,0.0857544-0.3774414,0.1711426-0.5786133,0.2543335v-0.2543335v-5.1413574   c0.5810547-0.2245483,1.1234131-0.4604492,1.6282959-0.7072144c0.1008301-0.0493164,0.2071533-0.0969849,0.3050537-0.1470947   c0.3885498-0.1989746,0.7495117-0.4044189,1.0895996-0.6148682c0.4274902-0.2645874,0.8249512-0.5350952,1.1748047-0.8145142   c0.1158447-0.0925293,0.2183838-0.1868896,0.3256836-0.2807617v0.3570557V100.133667z M18.8251953,101.7784424   c0.7011719,0.2241821,1.4398193,0.4344482,2.2304688,0.6240234c0.1651611,0.0396118,0.3244629,0.0814209,0.4934082,0.1193848   c0.409668,0.092041,0.8417969,0.1740112,1.2739258,0.2559814c0.4929199,0.0934448,1.0039062,0.1778564,1.5258789,0.2573853   c0.7351074,0.1119995,1.4992676,0.2088013,2.291748,0.2910156v3.0898438v2.4365234   c-1.6828613-0.1894531-3.2329102-0.4580688-4.6574707-0.7778931c-0.2543945-0.0571289-0.5141602-0.1117554-0.7595215-0.1724243   c-0.1672363-0.0413208-0.3215332-0.0870972-0.484375-0.1300049c-0.060791-0.0159302-0.1203613-0.0322266-0.1804199-0.0484009   c-0.1118164-0.0300903-0.2260742-0.0592651-0.3356934-0.0900879c-0.2897949-0.0814209-0.5698242-0.1653442-0.8447266-0.2514648   c-0.0524902-0.0164795-0.1027832-0.0334473-0.1547852-0.0501099c-0.1337891-0.0427856-0.2684326-0.0852051-0.3984375-0.1290894   V101.7784424z M27.1816406,118.5222168v-3.8830566v-1.541626c0.3972168,0.1270142,0.8034668,0.2502441,1.2296143,0.3665161   c1.9089355,0.5209961,4.1104736,0.9246826,6.5858154,1.1815186v5.5263062   C31.9602051,119.829895,29.3238525,119.244873,27.1816406,118.5222168z M46.8134766,120.2246704v-4.9480591v-0.5726318   c0.78125-0.0724487,1.5352783-0.1593018,2.2626953-0.260376c2.0703125-0.2875977,3.9277344-0.6820679,5.5537109-1.164978v5.4263306   C52.4581299,119.3848877,49.8183594,119.9199829,46.8134766,120.2246704z M50.6430664,112.1350098   c-2.3657227,0.4417114-5.0571289,0.727356-7.9963379,0.800293c-0.4831543,0.0119629-0.9631348,0.0266113-1.4592285,0.0266113   c-4.6658936,0-8.7565918-0.5477295-12.0117188-1.395813c-0.7830811-0.2039795-1.5238037-0.4226685-2.2045898-0.6587524   c0.7382812,0.0717773,1.5014648,0.1289673,2.2878418,0.1730347c1.1462402,0.064209,2.324707,0.1090698,3.5720215,0.1090698   c3.4550781,0,6.5161133-0.2625122,9.1845703-0.7127686c3.6308594-0.6126709,6.5169678-1.5789185,8.621582-2.7357178   c0.7641602-0.4199829,1.4306641-0.8631592,1.9863281-1.3248901c1.4338379-1.1914062,2.1723633-2.4944458,2.1723633-3.7734985   v-0.914978c3.989624,1.2767334,6.3564453,3.0310059,6.3564453,4.6884155v0.000061   C61.1523438,108.5870361,57.1101074,110.9275513,50.6430664,112.1350098z M34.6895752,79.4100342   c0.0834961-0.4868164,0.5054932-0.8427124,0.9995117-0.8427124s0.9161377,0.355896,0.9996338,0.8427124l1.2593994,7.3450928   c-1.4075928-0.1168213-2.9107666-0.1781616-4.4849854-0.1930542L34.6895752,79.4100342z"></path><path d="M80.088623,23.5483398c0.4455566,1.4523926,2.0915527,2.3048706,3.4484863,1.6217651   c0.0872803-0.0439453,0.1668701-0.0927734,0.2368164-0.1471558c0,0,0.1083984,0.6774292-0.8112793,2.1148071   c-0.6491699,1.0147705-0.6258545,2.3222046,0.0969238,3.2859497c1.3186035,1.7581787,4.114624,1.4598389,4.9118652-0.5881958   c0.1643066-0.4224243,0.2724609-0.9141235,0.3305664-1.4542236C90.1362305,30.5915527,92.9033203,32,96,32   c1.7402344,0,3.3754883-0.446106,4.8007812-1.2277222c0.4013672,1.3062744,1.517334,2.4404297,2.5949707,3.2692871   c1.1397705,0.8765869,2.7983398,0.4591675,3.3999023-0.8468628c0.4060059-0.8817749,0.2005615-1.9310913-0.5200195-2.581604   c-0.7924805-0.715271-1.3597412-1.5198364-1.7668457-2.2854614c0.4764404,0.4854736,1.0097656,0.8961792,1.5291748,1.2212524   c1.1151123,0.6976929,2.5921631,0.192688,3.086792-1.026123c0.3486328-0.8591309,0.1120605-1.8601074-0.6118164-2.439209   c-1.5021973-1.2012939-2.2043457-2.6706543-2.5313721-3.7182617C105.9859619,22.243042,106,22.123291,106,22   c0-0.9494629-0.1408691-1.864502-0.3881836-2.7347412c-0.0004883-0.0058594-0.0009766-0.0119019-0.0014648-0.0177612   c2.2984619-0.0526733,4.1479492-1.9238281,4.1479492-4.2349854c0-1.6317749-0.9311523-3.0318604-2.2814941-3.7423096   c0.0606689-0.2857666,0.095459-0.5810547,0.095459-0.8849487c0-2.3442993-1.9003906-4.2446899-4.244751-4.2446899   s-4.244751,1.9003906-4.244751,4.2446899c0,0.1033325,0.0231934,0.2001953,0.0305176,0.3016357   c-2.2890625-0.6558838-4.295166-0.3895874-4.295166-0.3895874s-5.8249512,0.0466309-9.413208,6.2444458   c0,0-1.6230469,2.3549805-4.2115479,3.987915c-0.9957275,0.6281128-1.4707031,1.8259888-1.1254883,2.951416L80.088623,23.5483398z    M88.9638672,18.1963501c1.9488525-0.380249,3.4138184-1.4788818,4.4267578-2.581665   c0.5444336,3.1008911,2.4492188,8.3110962,8.9865723,11.1954346C100.9155273,28.743103,98.6047363,30,96,30   c-4.4112549,0-8-3.5888062-8-8C88,20.6240845,88.3493652,19.3283081,88.9638672,18.1963501z"></path></g></svg>