<svg xmlns="http://www.w3.org/2000/svg" xmlns:xlink="http://www.w3.org/1999/xlink" version="1.1" x="0px" y="0px" viewBox="0 0 128 128" style="enable-background:new 0 0 128 128;" xml:space="preserve"><g><path d="M77.3606567,55.0316772c0.9111938,0.9083252,2.1677246,1.47052,3.5560303,1.47052   c2.7822876,0,5.0375977-2.2554321,5.0375977-5.0376587c0-0.5030518-0.0961304-0.979126-0.2335205-1.437561   c2.3276367-1.0031738,3.9581299-3.3164062,3.9581299-6.0119629c0-0.951355-0.2074585-1.8527832-0.5724487-2.668396   c0.4331055-0.8392334,0.6819458-1.7891846,0.6819458-2.7987061c0-1.2818604-0.395813-2.4703979-1.0697632-3.4533691   c1.3392944-1.3566895,2.1676025-3.2191162,2.1676025-5.2761841c0-3.2278442-2.0396118-5.972168-4.8972168-7.0353394   c0.257019-0.7578125,0.40271-1.5668945,0.40271-2.411499c0-4.1491089-3.3635254-7.5126953-7.5126343-7.5126953   c-0.0569458,0-0.1119385,0.0072021-0.1685791,0.0084839c-1.2369385-2.4517822-3.7712402-4.137085-6.7049561-4.137085   c-1.3617554,0-2.6353149,0.3678589-3.7366943,1.0013428C66.8908691,8.0632935,64.8065796,7,62.4738159,7   c-2.1646729,0-4.1098633,0.9208374-5.4807739,2.3858032c-0.9353027-0.4180908-1.9689331-0.6555786-3.0596924-0.6555786   c-2.9346924,0-5.4697266,1.6865234-6.7062378,4.1397705c-4.0458984,0.1181641-7.2913208,3.427124-7.2913208,7.5015259   c0,0.8690186,0.1550903,1.7000732,0.4265137,2.4765015c-2.7647705,1.1090698-4.7197266,3.8091431-4.7197266,6.9703369   c0,1.8949585,0.7069092,3.6210327,1.864502,4.942688c-0.8236694,1.0419922-1.3190918,2.3555298-1.3190918,3.7868652   c0,1.3897705,0.4688721,2.6669312,1.2496948,3.6940308c-0.1587524,0.5646362-0.2496948,1.1577148-0.2496948,1.7730713   c0,2.6955566,1.6304932,5.0087891,3.9581299,6.0119629c-0.1373901,0.4584351-0.2335205,0.9345093-0.2335205,1.437561   c0,2.7822266,2.2553711,5.0376587,5.0375977,5.0376587c1.6964722,0,3.1893921-0.8449097,4.1022339-2.1300659   C53.3531494,58.4155273,58.3734131,61,64,61C69.30896,61,74.0661011,58.6876831,77.3606567,55.0316772z M64,59   c-5.4066772,0-10.1864624-2.7026978-13.0842285-6.8205566C49.085022,49.5778809,48,46.4157715,48,43   c0-0.7926025,0.0771484-1.5657349,0.1890259-2.3278198c0.3339233-0.0820923,0.6583862-0.1870117,0.9682007-0.3214722   c2.1677246-0.9405518,3.6851196-3.0978394,3.6851196-5.6113892c0-0.3473511-0.0357056-0.68573-0.0913696-1.0172729   c0.4564209,0.1087036,0.9302368,0.1724243,1.4199219,0.1724243c2.9176636,0,5.3538208-2.0444946,5.9648438-4.7778931   c1.0991211,0.449646,2.3001099,0.7017822,3.5610352,0.7017822c1.1923218,0,2.3284302-0.2307129,3.3782959-0.6349487   c-0.0175781,0.2097778-0.0320435,0.4205933-0.0320435,0.6349487c0,4.1491699,3.3635254,7.5126953,7.5126343,7.5126953   c1.2033691,0,2.3366089-0.2900391,3.3449097-0.7930298c-0.2195435,0.6303101-0.3449097,1.3047485-0.3449097,2.0098877   c0,0.5856934,0.0872803,1.1502075,0.2409668,1.6865234c0.3681641,1.284668,1.1453247,2.3928833,2.182312,3.1809082   c-0.0970459,3.7545166-1.4833984,7.1907349-3.7456665,9.8756714C73.2959595,56.7770386,68.9047241,59,64,59z"></path><path d="M54.5892944,61.5057983c-0.7414551-0.6953125-1.7197876-1.0822754-2.7362671-1.0822754H47.440918h-1.493103h-0.4330444   c-6.1598511,0-11.9760742,2.8384399-15.7661133,7.6943359L19.793396,80.8726807   c-1.8008423,2.3071899-2.9105835,5.0776978-3.2005005,7.9901123v0.000061   c-0.4458618,4.479187,1.0802612,8.930542,4.180603,12.1939697l10.9725342,11.5494385l-0.0023193,0.005188l4.9121094,4.3151245   c1.1947021,1.0495605,2.6340332,1.7493896,4.1641235,2.0618896c0.15979,0.9180298,0.9609375,1.6499634,1.9633179,1.6499634H63   V68.4990234c-0.7409668-0.1306152-1.4526367-0.4678345-2.0394897-1.0181885L54.5892944,61.5057983z M37.5911865,104.4822998   c1.039856,0.7619019,2.4405518,1.4512939,4.234436,1.6585083c0.0131836,0.0994263,0.0400391,0.1942749,0.0603638,0.2914429   c0.2965698,1.4168091,1.3286743,2.5773315,2.7633667,3.0042114l4.2799072,1.2734985   c0.3922729,0.1166992,0.5662231,0.4052734,0.6349487,0.5668945c0.0687866,0.1616211,0.1561279,0.4870605-0.0317383,0.850708   l-0.6384277,1.2357178c-1.130249,2.1873779-3.2706299,3.6056519-5.7255859,3.7938843   c-0.1799927,0.0137939-0.3601074,0.0206299-0.5393066,0.0206299c-0.5303955,0-1.0531616-0.0665894-1.5629272-0.1825562   c-1.1368408-0.258667-2.2015991-0.7904053-3.0904541-1.571228l-3.802124-3.3400269L37.5911865,104.4822998z M28.340332,87.0322266   c-0.2841797-0.4726562-0.1308594-1.0878906,0.3422852-1.3720703c0.4736328-0.2841797,1.0874023-0.1318359,1.3725586,0.3427734   l3.4833984,5.7979736l7.3516846-7.1263428l0.6694336,12.8522949c0,0,0.2509155,2.7698975,0.3140259,6.5942383   c-3.3414307-0.4793701-4.8519897-3.0770874-4.8912964-3.1461182l0.0031128-0.006958c0,0-3.0177612-4.5693359-3.0719604-4.6594238   L28.340332,87.0322266z M59,75h-2.5c-1.9296875,0-3.5-1.5703125-3.5-3.5c0-0.8271484-0.6728516-1.5-1.5-1.5   c-1.9296875,0-3.5-1.5703125-3.5-3.5V64c0-0.5527344,0.4477539-1,1-1s1,0.4472656,1,1v2.5c0,0.8271484,0.6728516,1.5,1.5,1.5   c1.9296875,0,3.5,1.5703125,3.5,3.5c0,0.8271484,0.6728516,1.5,1.5,1.5H59c0.5522461,0,1,0.4472656,1,1S59.5522461,75,59,75z"></path><path d="M110.6516724,88.862854v-0.000061c-0.289917-2.9124146-1.3996582-5.6829224-3.2004395-7.9901123l-9.9553223-12.7548218   c-3.7900391-4.855896-9.6062622-7.6943359-15.7661133-7.6943359h-0.6959839h-1.2301025h-4.2632446   c-1.0164795,0-1.994812,0.3869629-2.7362671,1.0822754l-6.3712158,5.9750366   C66.0092163,67.8782959,65.5178833,68.1553345,65,68.3338623v52.3045654h19.6102295   c1.0148926,0,1.822876-0.7504272,1.9680786-1.6847534c1.4731445-0.3273926,2.8573608-1.0124512,4.0123901-2.0270996   l4.9121094-4.3151245l-0.0029907-0.0065918l10.9712524-11.5480347   C109.5714722,97.793396,111.0975952,93.342041,110.6516724,88.862854z M86.3215332,116.9628296   c-0.553772,0.1380005-1.1247559,0.2149658-1.7041626,0.2149658c-0.1791992,0-0.359314-0.0068359-0.5393066-0.0206299   c-2.4549561-0.1882324-4.5953369-1.6065063-5.7255859-3.7938843l-0.6384888-1.2357788   c-0.1878662-0.3635864-0.1005249-0.6890259-0.0317383-0.850647s0.2427368-0.4501953,0.6349487-0.5668945l4.2800293-1.2734985   c1.5330811-0.4561768,2.6178589-1.7460938,2.8236694-3.2956543c0.0299683-0.003479,0.0552979-0.0122681,0.085083-0.0159912   c1.7509155-0.2194824,3.1268921-0.8933716,4.149353-1.6425171l3.4175415,7.6016846l-3.802124,3.3400269   C88.4187012,116.1724854,87.4052124,116.692688,86.3215332,116.9628296z M72,102c-1.1045532,0-2-0.8954468-2-2   c0-1.1046143,0.8954468-2,2-2s2,0.8953857,2,2C74,101.1045532,73.1045532,102,72,102z M72,93c-1.1045532,0-2-0.8954468-2-2   c0-1.1046143,0.8954468-2,2-2s2,0.8953857,2,2C74,92.1045532,73.1045532,93,72,93z M72,84c-1.1045532,0-2-0.8954468-2-2   c0-1.1046143,0.8954468-2,2-2s2,0.8953857,2,2C74,83.1045532,73.1045532,84,72,84z M72.5,75H70c-0.5522461,0-1-0.4472656-1-1   s0.4477539-1,1-1h2.5c0.8271484,0,1.5-0.6728516,1.5-1.5c0-1.9296875,1.5703125-3.5,3.5-3.5c0.8271484,0,1.5-0.6728516,1.5-1.5V64   c0-0.5527344,0.4477539-1,1-1c0.1516113,0,0.291687,0.0391235,0.4204102,0.0994873C80.7606812,63.2589722,81,63.598999,81,64   v1.614563V66.5c0,1.9296875-1.5703125,3.5-3.5,3.5c-0.8271484,0-1.5,0.6728516-1.5,1.5C76,73.4296875,74.4296875,75,72.5,75z    M98.9042969,87.0322266l-3.7237549,6.197998l-4.9215088,7.737793l0.0039673,0.0088501   c-0.0488892,0.0856934-1.515686,2.5912476-4.7428589,3.1224976c0.0636597-3.8131714,0.3136597-6.5725098,0.3136597-6.5725098   l0.6622314-12.7149048l7.2099609,6.9889526l3.4834595-5.7979736c0.2856445-0.4746094,0.8994141-0.6269531,1.3725586-0.3427734   S99.1884766,86.5595703,98.9042969,87.0322266z"></path></g></svg>