<svg xmlns="http://www.w3.org/2000/svg" xmlns:xlink="http://www.w3.org/1999/xlink" version="1.1" x="0px" y="0px" viewBox="0 0 128 128" style="enable-background:new 0 0 128 128;" xml:space="preserve"><g><path d="M67,81h-7.3334351c-0.1992188-3.3919678-1.8028564-6.5596313-4.4682617-8.7020264l-5.8939209-4.7374268   c-0.2946777,0.1235352-0.5952148,0.2374268-0.9039917,0.3364258l-0.4564819,0.1463013l-1.8393555,0.5895386l-5.5151978,1.7675781   c-0.5112305,0.1640625-1.0380859,0.2446289-1.5625,0.2446289c-0.3603516,0-0.7171631-0.0500488-1.0690918-0.1256714   c-0.5426636-0.1166382-1.0687866-0.3146973-1.5558472-0.6066284c-0.0217896-0.0130615-0.0453491-0.0218506-0.0669556-0.0352783   c-0.8330078-0.5163574-1.4845581-1.2541504-1.9025269-2.1155396c-0.1484985-0.3061523-0.2694092-0.6265259-0.3550415-0.9602661   c-0.0422974-0.164978-0.0787964-0.3320923-0.1047363-0.5023193c-0.0249634-0.1639404-0.0253906-0.3256836-0.034668-0.4882812   c-0.2405396,0.036377-0.480835,0.0737305-0.7241211,0.0996094c-1.8345337,0.1959229-3.4124146,0.2055054-4.7335205,0.0519409   l0.5707397,1.0587158l0.5552368,1.0298462l0.0787354,0.1461182c1.2592773,2.3354492,0.5742188,5.25-1.59375,6.7802734   c-0.9130859,0.6445312-1.9711914,0.9584961-3.0229492,0.9584961c-0.6581421,0-1.3095093-0.1376953-1.9255981-0.3795776   C23.5852051,77.8995972,25.0568237,79.8766479,27.0728149,81H14c-0.5522461,0-1,0.4477539-1,1s0.4477539,1,1,1h17.6258545   l3.5036621,32.5575562C35.340271,117.515564,36.992981,119,38.9623413,119c2.0596313,0,3.7554932-1.6191406,3.850769-3.6766357   L44.3097534,83h3.6906128c0.00177,4.5916138,0.0097046,23.8475952,0.0201416,32.1569824   C48.0231323,117.2840576,49.748291,119,51.8753662,119h0.0261841c1.9501953,0,3.5927124-1.4526978,3.8265991-3.388916   c1.0725098-8.8778687,3.8607788-32.131897,3.8607788-32.131897C59.611084,83.3200684,59.6229248,83.1598511,59.6387939,83H67   c0.5522461,0,1-0.4477539,1-1S67.5522461,81,67,81z"></path><path d="M17,44c0.8804321,0,1.6645508-0.3861084,2.2133789-0.9901733l0.0167847,0.0111084l0.2479248-0.3319702l0.0120239-0.0161133   l1.9833374-2.6560669C23.361084,37.4888306,26.3310547,36,29.4860229,36H34c3.7060547,0,6.9337158-2.0210571,8.6611328-5.0162354   C45.0701294,30.8969727,47,28.9301147,47,26.5c0-1.7574463-1.017395-3.2632446-2.4862671-4.0040894   C44.8148804,21.8920288,45,21.2206421,45,20.5c0-2.3328247-1.7817383-4.2285767-4.0549316-4.4551392   C40.9671631,15.8641968,41,15.6866455,41,15.5c0-2.4852905-2.0147095-4.5-4.5-4.5   c-1.6671143,0-3.105835,0.9170532-3.8834229,2.2640381C31.8074951,12.4847412,30.7120972,12,29.5,12   c-2.3328247,0-4.2285767,1.7817383-4.4551392,4.0549316C24.8641968,16.0328369,24.6866455,16,24.5,16   c-2.4852905,0-4.5,2.0147095-4.5,4.5c0,0.5925293,0.1212158,1.1551514,0.3293457,1.6732788   C18.4155273,22.69104,17,24.4223633,17,26.5c0,1.4628906,0.7090454,2.7496338,1.7902222,3.5715332   C16.6445312,30.4138184,15,32.2578735,15,34.5c0,1.4375,0.6865234,2.7028198,1.7357788,3.5266724   C15.2047729,38.1624756,14,39.4336548,14,41C14,42.6568604,15.3431396,44,17,44z M34,34   c-4.1444092,0-7.5616455-3.1682129-7.9599609-7.2097168C30.0595703,26.5712891,32.510437,25.0844727,34,23.2662354   c0.8719482-1.06427,1.4129028-2.2398682,1.7485962-3.34198c0.1740723-0.5715942,0.2959595-1.1240845,0.3756714-1.6289062   c0.1376343,0.0380249,0.274231,0.0773315,0.4088135,0.1224365c0.7410889,0.248291,1.4333496,0.6011353,2.0604248,1.0429688   c1.0269775,0.7235718,1.8775635,1.6795654,2.4711304,2.7947388c0.4086914,0.7680054,0.6889648,1.6116333,0.8287964,2.5020142   C41.9571533,25.1635132,42,25.576416,42,26c0,1.6902466-0.5302734,3.2572632-1.4284668,4.550354   C39.1256104,32.632019,36.7209473,34,34,34z"></path><path d="M41.0426636,39.0598145C40.651062,39.0280151,40.2582397,39,39.8583984,39h-7.8720703   c-3.592041,0-6.9067993,1.9307251-8.6790161,5.0551758l-6.6987305,11.8103638   c-1.8413696,3.24646-1.682373,7.2084351,0.3047485,10.3018188l1.7711792,2.3422852l3.9761353,4.3668213   c1.1020508,1.2104492,2.940918,1.4101562,4.2773438,0.4672852c1.3417969-0.9472656,1.7661133-2.7514648,0.9863281-4.1972656   l-0.7312012-1.3563843l-0.638916-1.1852417l-0.7276001-1.3496704l-1.4862671-2.7571411   c-0.1534424-0.2849121-0.2523804-0.5880127-0.3075562-0.8964233c-0.1251221-0.6994629,0-1.4257812,0.3647461-2.0443726   c0.0578613-0.0981445,0.1170654-0.1957397,0.1869507-0.2877197c1.2607422-1.6601562,3.9804688-4.9472656,8.0322266-8.3046875   c0.0352783-0.0291748,0.078186-0.0386963,0.1159668-0.0622559c2.1721802-1.8201904,4.4137573-3.4763184,6.2990723-4.7194824   c0.168457-0.1108398,0.3632812-0.168457,0.5600586-0.168457c0.0922852,0,0.1845703,0.0126953,0.2753906,0.0380859   c0.15625,0.0444336,0.4423828,0.1689453,0.5996094,0.5053711c0.949707,2.0327148,2.8422852,4.5605469,6.4628906,5.0625   c0.3603516,0.0498047,0.5610352,0.2929688,0.6489258,0.4335938c0.0088501,0.0142212,0.0083618,0.031189,0.0164795,0.0457153   c0.0703735,0.1015015,0.1188354,0.2105713,0.1479492,0.3307495c0.0443115,0.1828003,0.0553589,0.374939-0.0125732,0.5654297   l-0.1821289,0.5107422l-1.5263672,4.2807617c-0.2695312,0.7539062-0.8154297,1.3583984-1.5380859,1.7021484l-0.0112915,0.0053711   l-6.7807007,3.2231445c-0.2123413,0.1008911-0.4021606,0.229126-0.5810547,0.3685303   c-0.7147827,0.5570679-1.1482544,1.3900757-1.1876221,2.2982788c-0.0087891,0.2022095-0.0045166,0.4066162,0.0269775,0.6134644   c0.0204468,0.1345825,0.0661621,0.2606201,0.1033325,0.3897095c0.0957642,0.3323364,0.2354126,0.6453857,0.4316406,0.9252319   c0.0497437,0.0709839,0.1102295,0.1337891,0.1658936,0.2004395c0.2114868,0.253418,0.4501953,0.4853516,0.7376099,0.6633301   c0.7758789,0.4814453,1.7197266,0.597168,2.590332,0.3188477l7.4991455-2.4034424l0.3118896-0.0999756   C51.2503662,64.8834839,53.6644287,61.8391113,54,58.2745972c0.0249023-0.2642212,0.0408936-0.5306396,0.0424805-0.7999878   l0.0199585-3.4001465l0.0186157-3.168335l-0.0011635-2.7151299C55.2754211,46.7940636,56,44.9829292,56,43   c0-4.4182739-3.5817261-8-8-8C45.015564,35,42.4176636,36.6374512,41.0426636,39.0598145z M48,37c3.3084106,0,6,2.6915894,6,6   c0,1.4182739-0.4972534,2.7210083-1.3230591,3.7491455C51.576355,48.1193237,49.8901367,49,48,49c-3.3084106,0-6-2.6915894-6-6   c0-1.3493042,0.453186-2.5917969,1.2078247-3.5951538C44.3035278,37.9480591,46.0408936,37,48,37z"></path><path d="M111,29h-5.9990234v-1.5c0-1.9329834-1.5669556-3.5-3.5-3.5H101.5c-1.9329834,0-3.5,1.5670166-3.5,3.5V29H82v-1.5   c0-1.9329834-1.5669556-3.5-3.5-3.5c-1.9329834,0-3.5,1.5670166-3.5,3.5V29h-6c-1.1045532,0-2,0.8954468-2,2v6v30   c0,1.1045532,0.8954468,2,2,2h42c1.1046143,0,2-0.8954468,2-2V37v-6C113,29.8954468,112.1046143,29,111,29z M111,67H69V38h42V67z    M69,31h6.050415c0.2445068,1.6940308,1.6878662,3,3.449585,3c1.7617798,0,3.2050781-1.3059692,3.449585-3H98.050415   c0.2445068,1.6940308,1.6878662,3,3.449585,3h0.0009766c1.7617798,0,3.2050781-1.3059692,3.449585-3H111v5H69V31z M77,29v-1.5   c0-0.8270874,0.6729126-1.5,1.5-1.5s1.5,0.6729126,1.5,1.5V29v1v0.5c0,0.1761475-0.0360718,0.3428345-0.0921021,0.5   c-0.2070923,0.5806885-0.756958,1-1.4078979,1s-1.2008057-0.4193115-1.4078979-1C77.0360718,30.8428345,77,30.6761475,77,30.5V30   V29z M100,29v-1.5c0-0.8270874,0.6733398-1.5,1.5009766-1.5c0.8270874,0,1.5,0.6729126,1.5,1.5V29v1v0.5   c0,0.1761475-0.0361328,0.3428345-0.0922241,0.5c-0.2071533,0.5806885-0.7573853,1-1.4087524,1   c-0.6509399,0-1.2008057-0.4193115-1.4078979-1C100.0360718,30.8428345,100,30.6761475,100,30.5V30V29z"></path><path d="M100,51h6c1.1046143,0,2-0.8954468,2-2v-6c0-1.1045532-0.8953857-2-2-2h-6c-1.1045532,0-2,0.8954468-2,2v6   C98,50.1045532,98.8954468,51,100,51z M106,49h-6v-6h6V49z"></path><path d="M87,51h6c1.1045532,0,2-0.8954468,2-2v-6c0-1.1045532-0.8954468-2-2-2h-6c-1.1045532,0-2,0.8954468-2,2v6   C85,50.1045532,85.8954468,51,87,51z"></path><path d="M74,51h6c1.1046143,0,2-0.8954468,2-2v-6c0-1.1045532-0.8953857-2-2-2h-6c-1.1045532,0-2,0.8954468-2,2v6   C72,50.1045532,72.8954468,51,74,51z M80,49h-6v-6h6V49z"></path><path d="M87,64h6c1.1046143,0,2-0.8954468,2-2v-6c0-1.1045532-0.8953857-2-2-2h-6c-1.1045532,0-2,0.8954468-2,2v6   C85,63.1045532,85.8954468,64,87,64z M93,62h-6v-6h6V62z"></path><path d="M100,64h6c1.1046143,0,2-0.8954468,2-2v-6c0-1.1045532-0.8953857-2-2-2h-6c-1.1045532,0-2,0.8954468-2,2v6   C98,63.1045532,98.8954468,64,100,64z M106,62h-6v-6h6V62z"></path><path d="M74,64h6c1.1045532,0,2-0.8954468,2-2v-6c0-1.1046143-0.8954468-2-2-2h-6c-1.1045532,0-2,0.8953857-2,2v6   C72,63.1045532,72.8954468,64,74,64z"></path></g></svg>