<svg xmlns="http://www.w3.org/2000/svg" xmlns:xlink="http://www.w3.org/1999/xlink" version="1.1" x="0px" y="0px" viewBox="0 0 128 128" style="enable-background:new 0 0 128 128;" xml:space="preserve"><g><path d="M30.4296875,35.5546875c0.3574219-0.421875,0.3046875-1.0527344-0.1162109-1.4091797   c-0.4238281-0.3583984-1.0537109-0.3046875-1.4091797,0.1162109c-0.2207031,0.2607422-0.4384766,0.5224609-0.6523438,0.7871094   c-0.3486328,0.4287109-0.2822266,1.0585938,0.1464844,1.40625c0.1855469,0.1503906,0.4082031,0.2236328,0.6289062,0.2236328   c0.2910156,0,0.5800781-0.1259766,0.7773438-0.3701172C30.0107422,36.0556641,30.21875,35.8037109,30.4296875,35.5546875z"></path><path d="M25.5585938,40.5712891c0.1669922,0.1074219,0.3544922,0.1582031,0.5390625,0.1582031   c0.3291016,0,0.6513672-0.1621094,0.8427734-0.4599609c0.1767578-0.2753906,0.3564453-0.5478516,0.5380859-0.8183594   c0.3076172-0.4589844,0.1855469-1.0800781-0.2724609-1.3876953c-0.4580078-0.3095703-1.0810547-0.1855469-1.3876953,0.2724609   c-0.1894531,0.2822266-0.3769531,0.5664062-0.5615234,0.8535156C24.9589844,39.6533203,25.09375,40.2724609,25.5585938,40.5712891z   "></path><path d="M33.7910156,32.0107422c0.4013672-0.3789062,0.4199219-1.0117188,0.0410156-1.4140625   c-0.3798828-0.4003906-1.0117188-0.4189453-1.4140625-0.0410156c-0.2470703,0.234375-0.4931641,0.4707031-0.7363281,0.7099609   c-0.3925781,0.3886719-0.3964844,1.0214844-0.0087891,1.4150391c0.1962891,0.1972656,0.4541016,0.296875,0.7119141,0.296875   c0.2539062,0,0.5078125-0.0957031,0.703125-0.2880859C33.3193359,32.4599609,33.5537109,32.2333984,33.7910156,32.0107422z"></path><path d="M23.1923828,44.9755859c0.1435547,0.0712891,0.2949219,0.1044922,0.4443359,0.1044922   c0.3681641,0,0.7216797-0.203125,0.8964844-0.5546875c0.1455078-0.2929688,0.2939453-0.5849609,0.4443359-0.8730469   c0.2558594-0.4892578,0.0673828-1.09375-0.421875-1.3496094c-0.4902344-0.2578125-1.09375-0.0664062-1.3496094,0.421875   c-0.1582031,0.3017578-0.3125,0.6054688-0.4638672,0.9101562C22.4960938,44.1298828,22.6982422,44.7294922,23.1923828,44.9755859z"></path><path d="M46.4121094,22.5585938c-0.2255859-0.5048828-0.8183594-0.7294922-1.3212891-0.5029297   c-0.3125,0.1396484-0.6220703,0.2841797-0.9287109,0.4306641c-0.4980469,0.2392578-0.7089844,0.8359375-0.4707031,1.3339844   c0.171875,0.359375,0.5302734,0.5683594,0.9033203,0.5683594c0.1445312,0,0.2919922-0.03125,0.4306641-0.0976562   c0.2929688-0.140625,0.5869141-0.2773438,0.8837891-0.4111328C46.4130859,23.6542969,46.6386719,23.0625,46.4121094,22.5585938z"></path><path d="M37.71875,27.4560547c-0.3320312-0.4394531-0.9589844-0.5292969-1.4003906-0.1972656   c-0.2714844,0.2050781-0.5410156,0.4130859-0.8076172,0.6230469c-0.4345703,0.3417969-0.5087891,0.9707031-0.1679688,1.4042969   c0.1972656,0.2509766,0.4912109,0.3818359,0.7871094,0.3818359c0.2158203,0,0.4345703-0.0703125,0.6171875-0.2138672   c0.2568359-0.2021484,0.5146484-0.4023438,0.7744141-0.5976562C37.9628906,28.5234375,38.0507812,27.8964844,37.71875,27.4560547z"></path><path d="M41.9287109,24.7617188c-0.2832031-0.4746094-0.8974609-0.6318359-1.3710938-0.3476562   c-0.2929688,0.1748047-0.5830078,0.3505859-0.8701172,0.5302734c-0.46875,0.2919922-0.6123047,0.9082031-0.3203125,1.3769531   c0.1894531,0.3046875,0.515625,0.4716797,0.8496094,0.4716797c0.1806641,0,0.3632812-0.0488281,0.5273438-0.1513672   c0.2773438-0.171875,0.5556641-0.3417969,0.8369141-0.5087891C42.0556641,25.8505859,42.2109375,25.2363281,41.9287109,24.7617188z   "></path><path d="M49.2138672,22.4853516c0.109375,0,0.2216797-0.0175781,0.3310547-0.0566406l0.375-0.1279297   c0.5244141-0.1728516,0.8085938-0.7392578,0.6347656-1.2636719c-0.1728516-0.5234375-0.7353516-0.8085938-1.2636719-0.6347656   l-0.4082031,0.1396484c-0.5214844,0.1826172-0.7949219,0.7529297-0.6123047,1.2744141   C48.4150391,22.2275391,48.8007812,22.4853516,49.2138672,22.4853516z"></path><path d="M43.4912109,102.9375c-0.2890625-0.1533203-0.5761719-0.3095703-0.8623047-0.4677734   c-0.4824219-0.2705078-1.0917969-0.0947266-1.359375,0.3886719c-0.2685547,0.4824219-0.09375,1.0917969,0.3886719,1.359375   c0.2978516,0.1660156,0.5966797,0.328125,0.8974609,0.4873047c0.1484375,0.0791016,0.3085938,0.1162109,0.4667969,0.1162109   c0.3583984,0,0.7050781-0.1933594,0.8847656-0.5322266C44.1660156,103.8017578,43.9794922,103.1962891,43.4912109,102.9375z"></path><path d="M34.6806641,96.8076172c-0.4121094-0.3671875-1.0449219-0.3310547-1.4121094,0.0820312   s-0.3300781,1.0449219,0.0820312,1.4121094c0.2539062,0.2255859,0.5097656,0.4492188,0.7675781,0.6699219   c0.1884766,0.1621094,0.4199219,0.2412109,0.6503906,0.2412109c0.28125,0,0.5615234-0.1181641,0.7587891-0.3496094   c0.3603516-0.4189453,0.3115234-1.0498047-0.1083984-1.4091797C35.1708984,97.2412109,34.9248047,97.0253906,34.6806641,96.8076172   z"></path><path d="M23.8037109,81.9238281c-0.1328125-0.296875-0.2626953-0.5957031-0.3886719-0.8955078   c-0.2148438-0.5097656-0.8017578-0.7451172-1.3095703-0.5341797c-0.5087891,0.2138672-0.7480469,0.7998047-0.5341797,1.3095703   c0.1318359,0.3134766,0.2675781,0.6259766,0.40625,0.9365234c0.1660156,0.3710938,0.53125,0.5917969,0.9140625,0.5917969   c0.1357422,0,0.2744141-0.0273438,0.4072266-0.0869141C23.8027344,83.0195312,24.0292969,82.4277344,23.8037109,81.9238281z"></path><path d="M47.9345703,104.9755859c-0.3046875-0.1201172-0.6074219-0.2421875-0.9072266-0.3671875   c-0.5126953-0.2177734-1.0957031,0.0263672-1.3085938,0.5351562c-0.2138672,0.5097656,0.0263672,1.0957031,0.5351562,1.3085938   c0.3154297,0.1328125,0.6318359,0.2607422,0.9501953,0.3847656c0.1201172,0.046875,0.2431641,0.0693359,0.3652344,0.0693359   c0.3994141,0,0.7763672-0.2412109,0.9306641-0.6347656C48.7021484,105.7568359,48.4482422,105.1767578,47.9345703,104.9755859z"></path><path d="M38.4980469,99.8603516c-0.4511719-0.3212891-1.0742188-0.2158203-1.3945312,0.234375   s-0.2158203,1.0742188,0.234375,1.3945312c0.2773438,0.1982422,0.5576172,0.3925781,0.8398438,0.5839844   c0.171875,0.1171875,0.3671875,0.1728516,0.5605469,0.1728516c0.3203125,0,0.6347656-0.1533203,0.828125-0.4384766   c0.3105469-0.4570312,0.1914062-1.0791016-0.265625-1.3886719   C39.0302734,100.2353516,38.7636719,100.0488281,38.4980469,99.8603516z"></path><path d="M28.1679688,89.5429688c-0.3212891-0.4482422-0.9453125-0.5527344-1.3955078-0.2314453   c-0.4492188,0.3222656-0.5527344,0.9462891-0.2314453,1.3955078c0.1982422,0.2773438,0.3994141,0.5507812,0.6025391,0.8232422   c0.1962891,0.2626953,0.4970703,0.4013672,0.8017578,0.4013672c0.2080078,0,0.4179688-0.0644531,0.5976562-0.1992188   c0.4423828-0.3300781,0.5332031-0.9570312,0.2021484-1.3994141C28.5498047,90.0722656,28.3583984,89.8085938,28.1679688,89.5429688   z"></path><path d="M31.2226562,93.3554688c-0.3701172-0.4121094-1.0019531-0.4453125-1.4121094-0.0761719   c-0.4111328,0.3691406-0.4453125,1.0009766-0.0761719,1.4121094c0.2275391,0.2529297,0.4570312,0.5048828,0.6894531,0.7529297   c0.1972656,0.2099609,0.4638672,0.3164062,0.7304688,0.3164062c0.2451172,0,0.4902344-0.0898438,0.6835938-0.2695312   c0.4033203-0.3779297,0.4238281-1.0107422,0.046875-1.4140625C31.6621094,93.8388672,31.4404297,93.5986328,31.2226562,93.3554688z   "></path><path d="M25.5546875,85.4169922c-0.2705078-0.4814453-0.8798828-0.6533203-1.3613281-0.3847656   c-0.4814453,0.2695312-0.6542969,0.8789062-0.3847656,1.3613281c0.1660156,0.2958984,0.3359375,0.5917969,0.5078125,0.8847656   c0.1865234,0.3173828,0.5205078,0.4931641,0.8632812,0.4931641c0.171875,0,0.3466797-0.0439453,0.5058594-0.1376953   c0.4765625-0.2802734,0.6347656-0.8935547,0.3554688-1.3691406C25.875,85.9833984,25.7128906,85.7011719,25.5546875,85.4169922z"></path><path d="M77.0019531,106.0478516c-0.3115234,0.0957031-0.6240234,0.1884766-0.9384766,0.2792969   c-0.53125,0.1513672-0.8378906,0.7050781-0.6855469,1.2363281c0.125,0.4394531,0.5253906,0.7246094,0.9609375,0.7246094   c0.0908203,0,0.1835938-0.0126953,0.2753906-0.0390625c0.3261719-0.0927734,0.6523438-0.1894531,0.9755859-0.2890625   c0.5283203-0.1630859,0.8242188-0.7226562,0.6621094-1.25C78.0888672,106.1835938,77.5322266,105.8828125,77.0019531,106.0478516z"></path><path d="M81.5761719,104.3496094c-0.2978516,0.1298828-0.5976562,0.2568359-0.8984375,0.3798828   c-0.5107422,0.2099609-0.7558594,0.7939453-0.546875,1.3046875c0.1591797,0.3867188,0.5322266,0.6210938,0.9257812,0.6210938   c0.1269531,0,0.2548828-0.0234375,0.3789062-0.0742188c0.3144531-0.1289062,0.6279297-0.2617188,0.9394531-0.3974609   c0.5068359-0.2207031,0.7382812-0.8105469,0.5175781-1.3164062   C82.6728516,104.3623047,82.0849609,104.1298828,81.5761719,104.3496094z"></path><path d="M90.0253906,99.4824219c-0.2626953,0.1923828-0.5283203,0.3828125-0.7949219,0.5703125   c-0.4511719,0.3173828-0.5605469,0.9414062-0.2431641,1.3935547c0.1943359,0.2763672,0.5048828,0.4248047,0.8193359,0.4248047   c0.1982422,0,0.3994141-0.0585938,0.5742188-0.1816406c0.2783203-0.1953125,0.5537109-0.3935547,0.828125-0.5957031   c0.4453125-0.3271484,0.5410156-0.9521484,0.2138672-1.3974609C91.0966797,99.2509766,90.46875,99.1542969,90.0253906,99.4824219z"></path><path d="M106.1357422,79.8662109c-0.5078125-0.2041016-1.0947266,0.0410156-1.3017578,0.5537109   c-0.1220703,0.3027344-0.2470703,0.6054688-0.3759766,0.90625c-0.2167969,0.5078125,0.0195312,1.0957031,0.5273438,1.3125   c0.1279297,0.0546875,0.2607422,0.0800781,0.3925781,0.0800781c0.3876953,0,0.7578125-0.2275391,0.9199219-0.6074219   c0.1328125-0.3125,0.2636719-0.6269531,0.3916016-0.9433594C106.8955078,80.65625,106.6484375,80.0732422,106.1357422,79.8662109z"></path><path d="M104.1123047,84.4404297c-0.4853516-0.2617188-1.0927734-0.0791016-1.3544922,0.4072266   c-0.1533203,0.2861328-0.3105469,0.5703125-0.4726562,0.8525391c-0.2744141,0.4794922-0.1083984,1.0908203,0.3710938,1.3652344   c0.1572266,0.0898438,0.328125,0.1318359,0.4960938,0.1318359c0.3466797,0,0.6845703-0.1806641,0.8691406-0.5029297   c0.1699219-0.2978516,0.3349609-0.5976562,0.4980469-0.8994141   C104.78125,85.3085938,104.5986328,84.7021484,104.1123047,84.4404297z"></path><path d="M107.6347656,75.0947266c-0.5332031-0.1503906-1.0839844,0.1621094-1.2314453,0.6943359   c-0.0878906,0.3154297-0.1787109,0.6298828-0.2734375,0.9433594c-0.1601562,0.5292969,0.1396484,1.0869141,0.6679688,1.2460938   c0.0966797,0.0292969,0.1933594,0.0429688,0.2890625,0.0429688c0.4296875,0,0.8271484-0.2783203,0.9570312-0.7109375   c0.0986328-0.3271484,0.1933594-0.6552734,0.2851562-0.984375   C108.4775391,75.7939453,108.1669922,75.2421875,107.6347656,75.0947266z"></path><path d="M85.9355469,102.1513672c-0.28125,0.1621094-0.5644531,0.3212891-0.8496094,0.4765625   c-0.4853516,0.2646484-0.6640625,0.8720703-0.3994141,1.3564453c0.1816406,0.3330078,0.5244141,0.5214844,0.8789062,0.5214844   c0.1621094,0,0.3261719-0.0390625,0.4775391-0.1220703c0.2988281-0.1630859,0.5957031-0.3300781,0.890625-0.5   c0.4785156-0.2753906,0.6435547-0.8867188,0.3671875-1.3652344C87.0253906,102.0400391,86.4150391,101.875,85.9355469,102.1513672z   "></path><path d="M93.7978516,96.3759766c-0.2402344,0.2207031-0.4833984,0.4384766-0.7285156,0.6542969   c-0.4140625,0.3662109-0.453125,0.9980469-0.0878906,1.4121094c0.1982422,0.2236328,0.4736328,0.3378906,0.75,0.3378906   c0.2353516,0,0.4716797-0.0820312,0.6621094-0.25c0.2548828-0.2255859,0.5078125-0.453125,0.7578125-0.6835938   c0.4072266-0.3740234,0.4326172-1.0058594,0.0585938-1.4121094C94.8378906,96.0273438,94.2021484,96.0009766,93.7978516,96.3759766   z"></path><path d="M100.2021484,89.0146484c-0.1845703,0.2685547-0.3740234,0.5341797-0.5644531,0.7978516   c-0.3242188,0.4472656-0.2246094,1.0722656,0.2226562,1.3964844c0.1777344,0.1289062,0.3828125,0.1904297,0.5859375,0.1904297   c0.3095703,0,0.6152344-0.1435547,0.8105469-0.4130859c0.2001953-0.2753906,0.3974609-0.5546875,0.5917969-0.8349609   c0.3134766-0.4550781,0.1992188-1.0771484-0.2548828-1.3916016   C101.1376953,88.4472656,100.5166016,88.5595703,100.2021484,89.0146484z"></path><path d="M97.203125,92.8740234c-0.2138672,0.2460938-0.4306641,0.4892578-0.6494141,0.7294922   c-0.3710938,0.4091797-0.3408203,1.0410156,0.0673828,1.4130859c0.1923828,0.1738281,0.4326172,0.2597656,0.6728516,0.2597656   c0.2714844,0,0.5429688-0.1103516,0.7402344-0.3271484c0.2285156-0.2519531,0.4550781-0.5068359,0.6787109-0.7646484   c0.3623047-0.4169922,0.3173828-1.0478516-0.0996094-1.4101562C98.1962891,92.4111328,97.5644531,92.4550781,97.203125,92.8740234z   "></path><path d="M105.2441406,48.6367188c0.1132812,0.3046875,0.2226562,0.6103516,0.3300781,0.9169922   c0.1435547,0.4130859,0.5302734,0.671875,0.9443359,0.671875c0.109375,0,0.2197266-0.0175781,0.328125-0.0556641   c0.5224609-0.1816406,0.7978516-0.7509766,0.6162109-1.2724609c-0.1113281-0.3222656-0.2265625-0.6416016-0.3457031-0.9599609   c-0.1923828-0.5175781-0.7695312-0.7792969-1.2861328-0.5869141   C105.3134766,47.5429688,105.0507812,48.1191406,105.2441406,48.6367188z"></path><path d="M106.6894531,53.2988281c0.0791016,0.3144531,0.1542969,0.6298828,0.2255859,0.9472656   c0.1044922,0.4648438,0.5175781,0.7802734,0.9746094,0.7802734c0.0732422,0,0.1464844-0.0078125,0.2207031-0.0244141   c0.5390625-0.1210938,0.8769531-0.65625,0.7558594-1.1953125c-0.0751953-0.3330078-0.1542969-0.6660156-0.2373047-0.9960938   c-0.1347656-0.5351562-0.6796875-0.859375-1.2138672-0.7255859   C106.8798828,52.2197266,106.5546875,52.7626953,106.6894531,53.2988281z"></path><path d="M103.2861328,44.1660156c0.1464844,0.2900391,0.2900391,0.5820312,0.4296875,0.875   c0.171875,0.359375,0.5302734,0.5683594,0.9033203,0.5683594c0.1445312,0,0.2919922-0.03125,0.4306641-0.0976562   c0.4980469-0.2392578,0.7089844-0.8359375,0.4707031-1.3339844c-0.1474609-0.3066406-0.296875-0.6123047-0.4511719-0.9160156   c-0.2490234-0.4921875-0.8486328-0.6923828-1.34375-0.4394531   C103.2333984,43.0712891,103.0361328,43.6728516,103.2861328,44.1660156z"></path><path d="M78.0751953,22.2998047c0.3085938,0.1035156,0.6162109,0.2109375,0.921875,0.3222656   c0.1132812,0.0410156,0.2285156,0.0605469,0.3427734,0.0605469c0.4082031,0,0.7919922-0.2519531,0.9394531-0.6572266   c0.1894531-0.5195312-0.078125-1.0927734-0.5966797-1.2822266c-0.3212891-0.1171875-0.6445312-0.2304688-0.96875-0.3398438   c-0.5273438-0.1738281-1.0917969,0.1074219-1.2675781,0.6289062   C77.2705078,21.5566406,77.5517578,22.1230469,78.0751953,22.2998047z"></path><path d="M101.3681641,40.7578125c0.1894531,0.3046875,0.515625,0.4726562,0.8505859,0.4726562   c0.1796875,0,0.3623047-0.0488281,0.5263672-0.1503906c0.4697266-0.2910156,0.6132812-0.9082031,0.3222656-1.3769531   c-0.1806641-0.2900391-0.3642578-0.578125-0.5517578-0.8632812c-0.3017578-0.4609375-0.9228516-0.5917969-1.3847656-0.2871094   c-0.4619141,0.3027344-0.5898438,0.9228516-0.2871094,1.3847656   C101.0214844,40.2089844,101.1972656,40.4814453,101.3681641,40.7578125z"></path><path d="M98.5566406,36.7617188c0.1972656,0.2509766,0.4912109,0.3818359,0.7871094,0.3818359   c0.2158203,0,0.4345703-0.0703125,0.6171875-0.2138672c0.4345703-0.3417969,0.5087891-0.9707031,0.1679688-1.4042969   c-0.2109375-0.2685547-0.4248047-0.5332031-0.6416016-0.7958984c-0.3515625-0.4248047-0.9804688-0.4863281-1.4082031-0.1347656   c-0.4257812,0.3515625-0.4863281,0.9814453-0.1347656,1.4082031   C98.1513672,36.2539062,98.3554688,36.5068359,98.5566406,36.7617188z"></path><path d="M84.8330078,24.0927734c0.2460938-0.4951172,0.0439453-1.0947266-0.4501953-1.3408203   c-0.3066406-0.1523438-0.6142578-0.2998047-0.9238281-0.4453125c-0.4990234-0.2324219-1.0957031-0.0166016-1.3300781,0.4824219   c-0.2333984,0.5-0.0175781,1.0957031,0.4824219,1.3300781c0.2958984,0.1376953,0.5898438,0.2792969,0.8808594,0.4238281   c0.1435547,0.0712891,0.2949219,0.1044922,0.4443359,0.1044922C84.3046875,24.6474609,84.6582031,24.4443359,84.8330078,24.0927734   z"></path><path d="M92.96875,28.265625c-0.2666016-0.2158203-0.5332031-0.4277344-0.8027344-0.6367188   c-0.4365234-0.3369141-1.0644531-0.2568359-1.4033203,0.1787109c-0.3378906,0.4365234-0.2578125,1.0654297,0.1787109,1.4033203   c0.2578125,0.1992188,0.5126953,0.4013672,0.765625,0.6074219c0.1855469,0.1503906,0.4091797,0.2236328,0.6298828,0.2236328   c0.2910156,0,0.5800781-0.1259766,0.7773438-0.3701172C93.4619141,29.2431641,93.3974609,28.6142578,92.96875,28.265625z"></path><path d="M96.7490234,31.6953125c-0.2392578-0.2421875-0.4804688-0.4814453-0.7246094-0.7177734   c-0.3964844-0.3857422-1.03125-0.375-1.4140625,0.0195312c-0.3857422,0.3964844-0.3759766,1.0292969,0.0195312,1.4140625   c0.234375,0.2285156,0.4658203,0.4580078,0.6953125,0.6904297c0.1962891,0.1972656,0.4541016,0.296875,0.7119141,0.296875   c0.2539062,0,0.5078125-0.0957031,0.703125-0.2880859C97.1328125,32.7216797,97.1367188,32.0888672,96.7490234,31.6953125z"></path><path d="M89.1298828,26.6503906c0.2978516-0.4638672,0.1630859-1.0830078-0.3017578-1.3818359   c-0.2871094-0.1845703-0.5761719-0.3652344-0.8681641-0.5429688c-0.4697266-0.2880859-1.0869141-0.1376953-1.3740234,0.3330078   c-0.2880859,0.4716797-0.1386719,1.0869141,0.3330078,1.3740234c0.2783203,0.1699219,0.5537109,0.3427734,0.8291016,0.5195312   c0.1669922,0.1074219,0.3544922,0.1582031,0.5390625,0.1582031C88.6162109,27.1103516,88.9384766,26.9482422,89.1298828,26.6503906   z"></path><path d="M73.4599609,103.9609375c-0.3291016-0.1708984-0.7314453-0.1445312-1.0371094,0.0693359   c-0.0151367,0.0101318-1.3212891,0.9018555-3.4228516,1.1418457v-5.2902832c0-0.3730469-0.2089844-0.7128906-0.5400391-0.8847656   c-0.3300781-0.1728516-0.7304688-0.1455078-1.0371094,0.0683594c-0.0166016,0.0117188-1.7529297,1.2021484-4.453125,1.2021484   c-1.2207031,0-1.8505859-0.3144531-2.6484375-0.7119141c-1.0107422-0.5039062-2.15625-1.0751953-4.4472656-1.0751953   c-1.515625,0-3.3144531,0.5498047-5.3447266,1.6347656C50.203125,100.2890625,50,100.6279297,50,100.9970703v8.4082031   c0,0.3515625,0.1845703,0.6767578,0.4853516,0.8574219c0.3007812,0.1796875,0.6738281,0.1904297,0.9853516,0.0244141   c1.5367432-0.8192749,2.6929932-1.1752319,3.5292969-1.3156738v5.3996582c0,0.3515625,0.1845703,0.6767578,0.4853516,0.8574219   c0.2998047,0.1806641,0.6738281,0.1904297,0.9853516,0.0244141c2.1669922-1.1552734,3.5908203-1.3984375,4.4033203-1.3984375   c1.8193359,0,2.6630859,0.4208984,3.5546875,0.8652344c0.8671875,0.4326172,1.8486328,0.9228516,3.5410156,0.9228516   c3.3720703,0,5.5214844-1.5087891,5.6113281-1.5732422C73.84375,113.8818359,74,113.5791016,74,113.2558594v-8.4091797   C74,104.4736328,73.7900391,104.1337891,73.4599609,103.9609375z M72,112.6855469   c-0.671875,0.3525391-2.1064453,0.9570312-4.0302734,0.9570312c-1.2207031,0-1.8505859-0.3144531-2.6474609-0.7119141   c-1.0117188-0.5048828-2.1572266-1.0761719-4.4482422-1.0761719c-1.1376953,0-2.4365234,0.3105469-3.8740234,0.9248047v-3.8248291   c1.0869141,0.1341553,1.7457275,0.4590454,2.4287109,0.7994385c0.8671875,0.4326172,1.8486328,0.9228516,3.5410156,0.9228516   c3.3720703,0,5.5214844-1.5087891,5.6113281-1.5732422C68.84375,108.9160156,69,108.6132812,69,108.2900391v-1.1120605   c1.2161865-0.1132812,2.237793-0.40271,3-0.7043457V112.6855469z M52,107.8134766v-1.4726562v-4.7333984   c1.8701172-0.9228516,3.1279297-1.1269531,3.8740234-1.1269531c1.8203125,0,2.6630859,0.4199219,3.5546875,0.8652344   c0.8671875,0.4326172,1.8496094,0.921875,3.5410156,0.921875c1.6826172,0,3.0605469-0.375,4.0302734-0.7597656v3.635376v1.0206909   v1.0059814v0.5498657c-0.671875,0.3525391-2.1064453,0.9570312-4.0302734,0.9570312   c-1.2207031,0-1.8505859-0.3144531-2.6474609-0.7119141c-0.8286133-0.4135132-1.7581787-0.866394-3.3222656-1.0186157   c-0.3083496-0.0300293-0.6373291-0.0500488-1-0.0535889c-0.0438232-0.0004272-0.0812988-0.0039673-0.1259766-0.0039673   c-0.2814941,0-0.5732422,0.0195923-0.8740234,0.0574951c-0.5324707,0.0670776-1.0996094,0.2038574-1.6898193,0.3887939   C52.8858643,107.4678955,52.4523926,107.6201172,52,107.8134766z"></path><path d="M58.1706543,106.0563354c0.3608398,0.3349609,0.840332,0.5440674,1.37146,0.5440674   c0.7989502,0,1.4830322-0.4672852,1.8114014-1.1398926c0.1307373-0.2675781,0.2105713-0.5643311,0.2105713-0.8821411   c0-0.0385742-0.0091553-0.074585-0.0113525-0.1126709c-0.020752-0.3710938-0.1345215-0.7172852-0.3288574-1.0083618   c-0.3625488-0.5428467-0.9799805-0.9009399-1.6817627-0.9009399c-0.9742432,0-1.7867432,0.6893921-1.9785156,1.6066895   c-0.0279541,0.1341553-0.0435791,0.2728271-0.0435791,0.4152832c0,0.2175903,0.043457,0.4231567,0.1069336,0.6195068   C57.7346191,105.5300903,57.9206543,105.8242798,58.1706543,106.0563354z"></path><path d="M64,25c2.7568359,0,5-2.2431641,5-5s-2.2431641-5-5-5s-5,2.2431641-5,5S61.2431641,25,64,25z M64,17   c1.6542969,0,3,1.3457031,3,3s-1.3457031,3-3,3s-3-1.3457031-3-3S62.3457031,17,64,17z"></path><path d="M53,21h2c0.0202637,0,0.0371094-0.010376,0.0571289-0.0115356   c0.1813965,1.6517334,0.8164062,3.1651001,1.7705078,4.4257202c-0.0102539,0.0093994-0.0236816,0.0123901-0.0336914,0.0223389   l-1.6132812,1.6132812c-0.390625,0.390625-0.390625,1.0234375,0,1.4140625   c0.1953125,0.1953125,0.4511719,0.2929688,0.7070312,0.2929688s0.5117188-0.0976562,0.7070312-0.2929688l1.5986328-1.5986938   c1.3317871,1.1281738,2.9926758,1.8771362,4.8181152,2.0776367C63.010376,28.9628296,63,28.9796753,63,29v2   c0,0.5527344,0.4472656,1,1,1s1-0.4472656,1-1v-2c0-0.0203247-0.010376-0.0371704-0.0114746-0.0571899   c1.8254395-0.2005005,3.4863281-0.9494629,4.8181152-2.0776367l1.5986328,1.5986938   c0.1953125,0.1953125,0.4511719,0.2929688,0.7070312,0.2929688s0.5117188-0.0976562,0.7070312-0.2929688   c0.390625-0.390625,0.390625-1.0234375,0-1.4140625l-1.6132812-1.6132812   c-0.0100098-0.0099487-0.0234375-0.0129395-0.0336914-0.0223389c0.9541016-1.2606201,1.5891113-2.7739868,1.7705078-4.4257202   C72.9628906,20.989624,72.9797363,21,73,21h2c0.5527344,0,1-0.4472656,1-1s-0.4472656-1-1-1h-2   c-0.0202637,0-0.0371094,0.010376-0.0571289,0.0115356c-0.2005615-1.8255615-0.9494629-3.4863281-2.0776367-4.8181152   l1.9541016-1.9541626c0.390625-0.390625,0.390625-1.0234375,0-1.4140625s-1.0234375-0.390625-1.4140625,0l-1.9975586,1.9975586   c-1.2592773-0.9512329-2.7702637-1.5844727-4.4191895-1.765564C64.989624,11.0371704,65,11.0203247,65,11V9   c0-0.5527344-0.4472656-1-1-1s-1,0.4472656-1,1v2c0,0.0203247,0.010376,0.0371704,0.0114746,0.0571899   c-1.6489258,0.1810913-3.1599121,0.8143311-4.4191895,1.765564l-1.9975586-1.9975586   c-0.390625-0.390625-1.0234375-0.390625-1.4140625,0s-0.390625,1.0234375,0,1.4140625l1.9541016,1.9541626   c-1.1281738,1.3317871-1.8770752,2.9925537-2.0776367,4.8181152C55.0371094,19.010376,55.0202637,19,55,19h-2   c-0.5527344,0-1,0.4472656-1,1S52.4472656,21,53,21z M64,13c3.859375,0,7,3.140625,7,7s-3.140625,7-7,7s-7-3.140625-7-7   S60.140625,13,64,13z"></path><path d="M117.0771484,60.1943359c-0.3465576-0.8459473-1.3771973-1.8027954-4.265625-1.675415   C111.3518066,56.9721069,109.2895508,56,107,56c-4.3865967,0-7.9567871,3.5499268-7.9963379,7.9273071   c-2.6413574,2.140686-2.7600098,3.692627-2.3806152,4.621521c0.3261719,0.7978516,1.2490234,1.6962891,3.7509766,1.6962891   c0.265625,0,0.5488281-0.0097656,0.8515625-0.03125c0.2049561-0.0145874,0.4333496-0.0564575,0.6470947-0.0807495   C103.262207,71.296814,105.0500488,72,107,72c4.2087402,0,7.6610107-3.2692261,7.9696045-7.4005127   C116.6875,63.1368408,117.6428223,61.5786133,117.0771484,60.1943359z M107,58   c3.1783447,0,5.7800293,2.4855347,5.9804688,5.6140747c-1.225708,0.918335-2.9616699,1.9432983-5.2617188,2.8829956   c-1.7972412,0.7337646-3.574585,1.2606812-5.1495361,1.5346069C101.5979004,66.96521,101,65.5529175,101,64   C101,60.6914062,103.6914062,58,107,58z M98.4746094,67.7929688c-0.064209-0.1571045,0.1179199-0.6906128,0.8699951-1.477478   c0.2078857,0.6858521,0.5098877,1.3294678,0.883667,1.9242554C98.9538574,68.2155762,98.5169678,67.8971558,98.4746094,67.7929688z    M107,70c-0.7744141,0-1.5125732-0.1524048-2.1928711-0.4207153c1.1870117-0.3122559,2.4255371-0.7232056,3.6674805-1.2306519   c1.4100342-0.5761719,2.8041992-1.269165,4.0568848-2.0256348C111.6218262,68.4810791,109.4853516,70,107,70z    M114.7376709,62.0038452c-0.1300049-0.50354-0.3070068-0.9870605-0.52771-1.4473267   c0.7119141,0.1026001,0.9822998,0.3141479,1.015625,0.3936768   C115.3012695,61.135437,115.1401367,61.5115356,114.7376709,62.0038452z"></path><path d="M22.2861328,71c1.4003906,0,2.6015625-0.9521484,2.9208984-2.3154297   c0.1835938-0.7861328,0.4492188-1.5566406,0.7880859-2.2919922l1.40625-3.0478516   c0.015625-0.0341797,0.0292969-0.0693359,0.0410156-0.1044922c0.3808594-0.9072266,0.5742188-1.8652344,0.5742188-2.8486328   c0-2.21875-0.9863281-4.2978516-2.7050781-5.7041016c-1.7197266-1.40625-3.9746094-1.9580078-6.1914062-1.5068359   c-2.7265625,0.5527344-4.9882812,2.7441406-5.6279297,5.453125c-0.3701172,1.5722656-0.2402344,3.1689453,0.375,4.6230469   c0.0097656,0.0302734,0.0224609,0.0585938,0.0351562,0.0878906l1.4072266,3.0488281   c0.3369141,0.7285156,0.6015625,1.5,0.7871094,2.2910156C16.4160156,70.0478516,17.6171875,71,19.0175781,71H22.2861328z    M18.0439453,68.2275391c-0.2158203-0.921875-0.5253906-1.8222656-0.9189453-2.6728516l-1.3789062-2.9873047   c-0.0048828-0.0136719-0.0107422-0.0273438-0.0166016-0.0410156c-0.4658203-1.0732422-0.5664062-2.2607422-0.2900391-3.4335938   c0.4628906-1.9628906,2.1025391-3.5507812,4.0771484-3.9511719c1.6210938-0.3330078,3.2753906,0.0683594,4.5283203,1.0947266   c1.2529297,1.0244141,1.9716797,2.5390625,1.9716797,4.1552734c0,0.7382812-0.1494141,1.4570312-0.4443359,2.1357422   c-0.0087891,0.0185547-0.015625,0.0380859-0.0234375,0.0576172l-1.3701172,2.9697266   c-0.3955078,0.8583984-0.7041016,1.7568359-0.9189453,2.6728516C23.1533203,68.6826172,22.7529297,69,22.2861328,69h-3.2685547   C18.5507812,69,18.1503906,68.6826172,18.0439453,68.2275391z"></path><path d="M23,74c0.5527344,0,1-0.4472656,1-1s-0.4472656-1-1-1h-5c-0.5527344,0-1,0.4472656-1,1s0.4472656,1,1,1H23z"></path><path d="M23,76c0-0.5527344-0.4472656-1-1-1h-3c-0.5527344,0-1,0.4472656-1,1s0.4472656,1,1,1h3C22.5527344,77,23,76.5527344,23,76   z"></path><path d="M21,51.5888672c0.5527344,0,1-0.4472656,1-1V48c0-0.5527344-0.4472656-1-1-1s-1,0.4472656-1,1v2.5888672   C20,51.1416016,20.4472656,51.5888672,21,51.5888672z"></path><path d="M26.5117188,48.3613281c-0.515625-0.1943359-1.0917969,0.0722656-1.2841797,0.5908203l-0.8017578,2.1669922   c-0.1923828,0.5175781,0.0722656,1.0927734,0.5908203,1.2841797c0.1142578,0.0429688,0.2314453,0.0625,0.3466797,0.0625   c0.40625,0,0.7880859-0.2490234,0.9375-0.6533203l0.8017578-2.1669922   C27.2949219,49.1279297,27.0302734,48.5527344,26.5117188,48.3613281z"></path><path d="M15.7167969,51.8125c0.1494141,0.4033203,0.5322266,0.6533203,0.9384766,0.6533203   c0.1152344,0,0.2324219-0.0195312,0.3466797-0.0615234c0.5175781-0.1923828,0.7832031-0.7666016,0.5917969-1.2851562   l-0.8007812-2.1669922c-0.1914062-0.5185547-0.7675781-0.78125-1.2851562-0.5917969   c-0.5175781,0.1923828-0.7832031,0.7666016-0.5917969,1.2851562L15.7167969,51.8125z"></path><path d="M81.0219727,79.6664429l-0.6768799-4.0014038C79.2058105,68.9297485,73.3720703,64,66.5412598,64h-5.0825195   c-6.8308105,0-12.6645508,4.9297485-13.803833,11.6650391l-0.6768799,4.0014038C46.7716064,80.8869019,47.7121582,82,48.9500732,82   h30.0998535C80.2878418,82,81.2283936,80.8869019,81.0219727,79.6664429z"></path><path d="M49.4017334,52.8443604c0,2.2622681,1.8339844,4.0962524,4.0963135,4.0962524   c0.5805664,0,1.1311035-0.1242065,1.6315918-0.3421021c0.9133301,1.765686,2.354248,3.2802124,4.2512207,4.2684326   C60.8564453,61.6356812,62.4354248,62,63.9916992,62c3.6081543,0,7.0928955-1.9594116,8.8752441-5.3808594   c0.114502-0.2199097,0.2097168-0.444458,0.3063965-0.6685181c0.7149658,0.6087646,1.6296387,0.9899902,2.642334,0.9899902   c2.262207,0,4.0961914-1.8339844,4.0961914-4.0962524c0-1.7327271-1.0795898-3.2061768-2.5996094-3.8047485   c0.251709-0.531189,0.4038086-1.1184692,0.4038086-1.7453613c0-2.2623291-1.8339844-4.0962524-4.0963135-4.0962524   c-1.1888428,0-2.2503662,0.5145874-2.9986572,1.3235474c-0.5985107-0.5292969-1.2614746-1.0026855-2.0019531-1.3884888   C67.1435547,42.3643188,65.5645752,41.999939,64.0083008,42c-2.1342773,0.000061-4.2160645,0.7010498-5.9372559,1.9693604   c-0.6713867-0.4810181-1.4882812-0.7713623-2.3771973-0.7713623c-2.2623291,0-4.0961914,1.8339233-4.0961914,4.0962524   c0,0.6268921,0.1519775,1.2141724,0.4038086,1.7453613C50.4813232,49.6381836,49.4017334,51.1116333,49.4017334,52.8443604z    M60.3048096,59.0932007c-1.6397705-0.854187-2.8529053-2.2039795-3.5670166-3.7683716   c-0.3725586-0.815979-0.6081543-1.6888428-0.6929932-2.5842285c0.5318604-0.0718994,1.0343018-0.1794434,1.5067139-0.3195801   c3.4946289-1.0366211,5.4140625-3.791687,6.4401855-6.1102905c0.5214844,1.5800781,1.6801758,3.0779419,4.2299805,3.0779419   c0,0-0.220459,3.7125854,3.526123,4.5651245c-0.1491699,0.592041-0.3605957,1.1768188-0.6546631,1.741333   C69.7098389,58.3504639,66.9887695,60,63.9916992,60C62.7003174,60,61.4599609,59.6949463,60.3048096,59.0932007z"></path></g></svg>