<svg xmlns="http://www.w3.org/2000/svg" xmlns:xlink="http://www.w3.org/1999/xlink" version="1.1" x="0px" y="0px" viewBox="0 0 128 128" style="enable-background:new 0 0 128 128;" xml:space="preserve"><g><path d="M102.791626,32.8060913l1.3209229,0.1194458c1.5773926,0.1426392,3.0039062-0.9400635,3.2907715-2.4978027   c0.2675781-1.4524536-0.5384521-2.8892212-1.9174805-3.4178467l-1.1883545-0.4555664   c-0.126709-1.9738159-1.2095947-3.7611694-2.9003906-4.7875366l-4.3369141-2.6326294   c-0.8015137-0.4866333-1.7177734-0.7405396-2.6468506-0.7405396c-0.2281494,0-0.4570312,0.0153198-0.6853027,0.0462646v0.000061   c-1.6400146,0.2223511-3.0218506,1.2203369-3.7833252,2.6125488l-4.4644775-1.7114258   c0.6870117,1.3007812,1.0804443,2.7797241,1.0804443,4.3502808c0,2.9678955-1.3944092,5.6116943-3.5577393,7.3257446   l6.550293,0.5921631l-1.1802979,3.5969849h-0.0001221l-5.7879639,15.7724609   c-0.3109131,0.8473511-1.1040039,1.4219971-2.0059814,1.4535522l-23.1235352,0.8096924   c-1.5535889,0.0544434-2.8626709,1.1765747-3.1540527,2.7034302l-0.96521,5.0597534   c-0.3187256,1.6709595-2.3214111,2.3770142-3.6176758,1.2753296l-7.1663818-6.0907593   c-0.6599121-0.5608521-1.5124512-0.8425293-2.3764648-0.7851562l-0.4399414,0.0291748   c-7.0800781,0.4698486-13.7644043,3.434082-18.8657227,8.3660889l-10.1682129,9.8308105   c-1.8588867,1.7971802-2.9494629,4.2445068-3.0427246,6.8283691l-0.8026123,22.2177734l13.4637451,1.4180298l1.6171875-16.4241333   c0.0629883-0.6397705,0.4296875-1.2102051,0.9855957-1.5332031l5.479248-3.1842651   c1.1330566-0.6584473,2.5803223-0.0743408,2.9306641,1.1882935c1.4127197,5.0921021,4.2944336,17.2672119,3.4606934,30.7542725   c-0.0706787,1.1428833,0.8500977,2.1038818,1.9951172,2.1038818L69,116.999939c1.1044922,0.000061,2-0.8953857,2-2V92.8723145   c0,0,5.612915-7.0973511,1.4694824-19.2220459l17.6374512-4.8660278c3.6575928-1.0090942,6.4289551-4.0012207,7.1555176-7.7252197   l4.6420898-23.7973022l-0.0092773-0.0014038L102.791626,32.8060913z M91.3468018,23.0354614   c0.0689697-0.4602661,0.2467041-0.883667,0.4959717-1.2553711c0.4846191-0.7223511,1.2576904-1.2368164,2.1539307-1.3583374   c0.1375732-0.0186768,0.277832-0.0281372,0.416626-0.0281372c0.5675049,0,1.1239014,0.1556396,1.6090088,0.4501953   l4.3369141,2.6326294c0.7733154,0.4694214,1.3572998,1.1779785,1.6766357,2.0010986l-0.2320557,0.1209106l-3.9031982,2.0335083   c-0.6086426,0.3170776-1.2930908,0.4846802-1.9793701,0.4846802c-0.6414795,0-1.2858887-0.147522-1.8635254-0.4265747   l-0.3378906-0.1633301C92.0212402,26.7060547,91.0675049,24.901123,91.3468018,23.0354614z M91.5974121,31.7940674   L100.7879639,32.625l-0.4934082,2.4517212l-9.2895508-1.4770508L91.5974121,31.7940674z"></path><path d="M23.9492188,43.9905396c-0.2475586,0.6417847-0.388916,1.3365479-0.388916,2.0656738   c0,3.1748657,2.5737305,5.7485352,5.7485352,5.7485352c2.4882812,0,4.6008301-1.5837402,5.401123-3.7957153   C37.7984619,50.5012207,41.7224121,52,46,52c6.2351074,0,11.727417-3.171875,14.9576416-7.9882812   c0.6661377,0.4118042,1.4439697,0.6608887,2.284668,0.6608887c2.4107666,0,4.3649902-1.9542236,4.3649902-4.3649292   c0-1.4060059-0.6763916-2.6430664-1.7086182-3.4414062c1.0322266-0.7983398,1.7086182-2.0354004,1.7086182-3.4414062   c0-2.0771484-1.4539795-3.8077393-3.397583-4.2490845c0.5585938-0.7335205,0.9031982-1.6384888,0.9031982-2.6317139   c0-1.6524048-0.9290771-3.072937-2.2830811-3.8140869c0.2583008-0.557312,0.4124756-1.1722412,0.4124756-1.8269043   c0-2.4107056-1.9542236-4.3649292-4.3649902-4.3649292c-0.2629395,0-0.5174561,0.0328369-0.7675781,0.0773926   c0.0510254-0.2669678,0.0828857-0.5409546,0.0828857-0.8227539c0-2.4107056-1.9542236-4.3649292-4.3649902-4.3649292   c-0.5610352,0-1.0931396,0.1150513-1.5859375,0.3079224c-0.8227539-2.605896-3.2580566-4.4956665-6.1359863-4.4956665   c-2.2822266,0-4.2819824,1.1915283-5.4244385,2.9830322c-0.7359619-0.3422852-1.5533447-0.5388184-2.418457-0.5388184   c-2.7681885,0-5.078125,1.9570923-5.6247559,4.5628052c-0.8070068-0.364502-1.6999512-0.5723877-2.6430664-0.5723877   c-3.5537109,0-6.4346924,2.8809204-6.4346924,6.4346924c0,1.164856,0.314209,2.2543335,0.8554688,3.1968384   c-3.0307617,0.5209351-5.3391113,3.1550903-5.3391113,6.3346558c0,1.7442017,0.6966553,3.3237915,1.8234863,4.4827881   c-1.119751,1.0489502-1.8234863,2.5365601-1.8234863,4.1919556C19.0766602,41.1918945,21.1914062,43.567688,23.9492188,43.9905396z    M46,50c-4.2443848,0-8.0975342-1.6724854-10.9644775-4.3789062c-1.4627686-1.3807373-2.6608887-3.0310669-3.5228271-4.8740845   c-0.3881836-0.8297729-0.7049561-1.6964111-0.9472656-2.5958252c-0.170166-0.631958-0.302002-1.2780762-0.394043-1.9381104   c-0.090332-0.6487427-0.1496582-1.3063965-0.1594238-1.9772949C30.0107422,34.1564941,30,34.0795898,30,34   c0-2.3988647,0.5456543-4.6676636,1.4958496-6.7120972c0.0395508-0.085144,0.0811768-0.1690063,0.1221924-0.2533569   c0.6152344,0.3312988,1.3082275,0.5367432,2.0557861,0.5367432c1.4487305,0,2.7229004-0.713623,3.5168457-1.7999878   c1.0212402,0.6351929,2.2225342,1.0081787,3.5136719,1.0081787c3.1210938,0,5.7340088-2.1468506,6.4616699-5.0422363   c0.6685791,0.4161987,1.4511719,0.6674194,2.2966309,0.6674194c1.6599121,0,3.0860596-0.9373169,3.8242188-2.3013916   c0.0473633-0.0874023,0.1005859-0.1708374,0.1419678-0.2616577c0.1821289,0.0959473,0.3587646,0.199585,0.5366211,0.3022461   c0.1988525,0.1147461,0.394165,0.234375,0.5875244,0.3572998c1.2259521,0.7796021,2.3344727,1.7210083,3.3046875,2.7945557   c0.5456543,0.6039429,1.0529785,1.2416992,1.5026855,1.923645c0.8632812,1.3091431,1.5357666,2.7518311,1.9866943,4.2900391   c0.1248779,0.4259644,0.2415771,0.8554688,0.3311768,1.2952881C61.8884277,31.8375854,62,32.9059448,62,34   c0,0.7469482-0.0693359,1.4763794-0.1689453,2.1963501c-0.0592041,0.428833-0.1276855,0.8540039-0.220459,1.2713623   c-0.4060059,1.828064-1.12854,3.5345459-2.1022949,5.0696411C56.6689453,47.013855,51.6821289,50,46,50z"></path><path d="M59.1827393,31.8469238c-0.2401123-0.6565552-0.581665-1.2636108-1.0131836-1.7971191   c-0.2781982-0.3438721-0.5911865-0.6576538-0.9346924-0.9361572c-1.0827637-0.8781128-2.4610596-1.4060059-3.9637451-1.4060059   c-3.1383057,0-5.7330322,2.2970581-6.2131348,5.3001709h-2.230835c-0.6040039-2.8493042-3.1318359-4.9880371-6.1611328-4.9880371   c-3.4793701,0-6.3000488,2.8206177-6.3000488,6.2999878c0,3.4794312,2.8206787,6.2999878,6.3000488,6.2999878   c3.246582,0,5.9177246-2.456543,6.2607422-5.6119385h2.1313477c0.4802246,3.0028076,3.0749512,5.2998657,6.2130127,5.2998657   c2.9815674,0,5.4735107-2.0737305,6.1271973-4.855896c0.1091309-0.4644775,0.1728516-0.9463501,0.1728516-1.4440918   C59.571167,33.2473755,59.4295654,32.5217896,59.1827393,31.8469238z M38.6660156,38.619751   c-2.3710938,0-4.3000488-1.9289551-4.3000488-4.2999878s1.9289551-4.2999878,4.3000488-4.2999878   c2.3709717,0,4.2999268,1.9289551,4.2999268,4.2999878S41.0369873,38.619751,38.6660156,38.619751z M53.2711182,38.3076782   c-2.3709717,0-4.2999268-1.9289551-4.2999268-4.2999878s1.9289551-4.3000488,4.2999268-4.3000488   c2.3710938,0,4.3000488,1.9290161,4.3000488,4.3000488S55.6422119,38.3076782,53.2711182,38.3076782z"></path><path d="M77.2106934,31.0413208c1.4057617,0,2.7145996-0.4016724,3.8312988-1.0862427   c2.107666-1.2921143,3.5186768-3.6102295,3.5186768-6.2637329c0-1.7837524-0.6361084-3.418396-1.6929932-4.6913452   c-1.3481445-1.6239014-3.3814697-2.6586914-5.6569824-2.6586914c-4.0593262,0-7.3499756,3.2907104-7.3499756,7.3500366   C69.8607178,27.7506104,73.1513672,31.0413208,77.2106934,31.0413208z"></path><path d="M111.7186279,78.9683838c-4.418335,0-8,3.5817261-8,8s3.581665,8,8,8s8-3.5817261,8-8   S116.1369629,78.9683838,111.7186279,78.9683838z M111.7186279,91.7768555c-2.1268311,0-3.8509521-1.7240601-3.8508301-3.8508911   h7.7016602C115.5695801,90.0527954,113.845459,91.7768555,111.7186279,91.7768555z"></path><path d="M103.7186279,66.520752c0,4.418335,3.581665,8,8,8s8-3.581665,8-8c0-4.4182739-3.581665-8-8-8   S103.7186279,62.102478,103.7186279,66.520752z M115.569458,67.4783936c0.0001221,2.12677-1.723999,3.8508911-3.8508301,3.8508911   s-3.8509521-1.7241211-3.8508301-3.8508911H115.569458z"></path><path d="M111.7186279,95.9476318c-5.364502,0-9.5952148,4.5640259-9.1893311,9.913147l0.7053223,9.2905273   c0.0791016,1.0429077,0.9482422,1.8486328,1.9941406,1.8486328h12.9797363c1.0458984,0,1.9150391-0.8057251,1.9942627-1.8486328   l0.7052002-9.2905273C121.3139648,100.5116577,117.0831299,95.9476318,111.7186279,95.9476318z"></path><path d="M98.3364258,111.9217529c-0.5012207-1.7174683-0.6032715-3.5267944-0.298584-5.2897339v-0.000061   c0.9577637-5.5428467-3.3032227-10.6141968-8.9282227-10.6260986c-5.6191406-0.0118408-9.9001465,5.0314941-8.9753418,10.5740967   l0.0061035,0.0371094c0.2919922,1.7495728,0.1838379,3.5425415-0.3164062,5.2443237l-0.7380371,2.5114136   c-0.3857422,1.312439,0.5966797,2.6270752,1.9645996,2.6270752C85.1804199,116.999939,92.9606934,117,97.0871582,116.999939   c1.3662109,0,2.3481445-1.3116455,1.9655762-2.62323L98.3364258,111.9217529z"></path><path d="M95.5,74c-2.4853516,0-4.5,2.0147095-4.5,4.5c0,0.2507324,0.0344238,0.4923096,0.0737305,0.7318726   c-0.6418457-0.1659546-1.3112793-0.2634888-2.0048828-0.2634888c-4.418457,0-8,3.5817261-8,8s3.581543,8,8,8   c4.4182129,0,8-3.5817261,8-8c0-1.4658813-0.401001-2.8352661-1.0892334-4.0167236C98.2362061,82.7091675,100,80.8209839,100,78.5   C100,76.0147095,97.9853516,74,95.5,74z M89.0688477,91.7768555c-2.1269531,0-3.8509521-1.7240601-3.8508301-3.8508911h7.7015381   C92.9196777,90.0527954,91.1955566,91.7768555,89.0688477,91.7768555z"></path><path d="M6.8563232,110.8416748c0,5.4239502,4.3969727,9.8208618,9.8208008,9.8208618h0.0001221   c1.0184326,0,1.8742676-0.7653809,1.9875488-1.7775269l1.6552734-14.7902222l-13.4637451-1.4179688V110.8416748z    M8.8563232,104.8984985l9.2521973,0.9744263l-1.4313965,12.7896118c-4.3123779,0-7.8208008-3.5084229-7.8208008-7.8208618   V104.8984985z"></path></g></svg>