<svg xmlns="http://www.w3.org/2000/svg" xmlns:xlink="http://www.w3.org/1999/xlink" version="1.1" x="0px" y="0px" viewBox="0 0 128 128" style="enable-background:new 0 0 128 128;" xml:space="preserve"><g><path d="M42.6340942,40.3786621c-0.4196167,0.5697021-0.6756592,1.2667847-0.6756592,2.0285645   c0,1.8973389,1.5380859,3.4354248,3.4354248,3.4354248c0.9458008,0,1.8017578-0.3827515,2.4229736-1.0010986   C50.7334595,50.8484497,56.8739624,55,64,55c7.4092407,0,13.7677002-4.4794312,16.5285645-10.8754883   c0.5950317,1.0227661,1.6906738,1.7181396,2.9591675,1.7181396c1.8973389,0,3.4354858-1.5380859,3.4354858-3.4354248   c0-0.7754517-0.2664795-1.4829712-0.6998901-2.0579224c1.4530029-0.6398926,2.4701538-2.0878906,2.4701538-3.7774658   c0-2.28125-1.8493652-4.1306152-4.1306763-4.1306152c-1.1262207,0-2.1447144,0.4534302-2.8898926,1.1843262   c-0.8371582-4.4089355-3.2833862-8.2374268-6.7034302-10.8743286l0.0195312-0.0146484   c-2.9100952-2.8190918-3.0484009-5.7543335-3.0484009-5.7543335l-0.0054932,0.00177   c-0.2608643-3.4356079-2.9257812-5.5075684-5.3587646-6.6881104c-1.5535278-0.7537231-3.225708,0.7947388-2.6091309,2.4076538   c0.0830078,0.2171021,0.1427612,0.4477539,0.1311646,0.6798706c-0.1543579,3.097168-5.5726318,6.2133179-7.8621216,7.3959351   c-0.3148804,0.151001-0.6317139,0.2976074-0.9361572,0.4660645c-0.0423584,0.0198975-0.0791016,0.0369263-0.0791016,0.0369263   l0.0197144-0.0008545c-4.413208,2.4647827-7.6751709,6.7305298-8.8015747,11.8054199   c-0.6380005-0.4035034-1.3887329-0.6456909-2.1994629-0.6456909c-2.281311,0-4.1306763,1.8493652-4.1306763,4.1306152   C40.1090088,38.2836914,41.1503296,39.7520752,42.6340942,40.3786621z M64,53   c-6.3684082,0-11.8634644-3.7492676-14.4367676-9.1481934c1.215271-0.6954346,2.3521118-1.4035645,3.4144897-2.1206665   c1.0830078,0.8787231,2.461853,1.4071045,3.96521,1.4071045c3.2466431,0,5.9176636-2.4564819,6.2607422-5.6118774h2.1312866   c0.4802246,3.0028687,3.0749512,5.2997437,6.2131348,5.2997437c3.4793701,0,6.2999878-2.8205566,6.2999878-6.2999878   c0-3.4793701-2.8206177-6.2999878-6.2999878-6.2999878c-3.1383057,0-5.7331543,2.2973022-6.2131958,5.3002319h-2.230835   c-0.1618652-0.763855-0.4641113-1.4747925-0.8753052-2.1088867c3.3880005-4.1812744,4.8692017-7.9598999,5.5090332-10.2785034   c2.0785522,2.5452881,5.7384033,6.0288086,10.4929199,6.5820312C79.3537598,31.9074707,80,34.3775635,80,37   C80,45.8224487,72.8224487,53,64,53z M61.2429199,36.8382568c0,2.3710327-1.9289551,4.2999878-4.2999878,4.2999878   c-0.8150635,0-1.5697632-0.2406616-2.2199707-0.6361694c-1.2412109-0.7549438-2.0800171-2.1078491-2.0800171-3.6638184   c0-2.3710327,1.9289551-4.2999878,4.2999878-4.2999878c1.7252197,0,3.2062378,1.0273438,3.8905029,2.4970703   C61.0895996,35.5855103,61.2429199,36.1924438,61.2429199,36.8382568z M67.2481079,36.526123   c0-2.3710327,1.9289551-4.2999878,4.2999878-4.2999878s4.2999878,1.9289551,4.2999878,4.2999878   s-1.9289551,4.2999878-4.2999878,4.2999878S67.2481079,38.8971558,67.2481079,36.526123z"></path><path d="M115.5874023,102.1191406H96.7977905c3.8756714-1.7557983,6.5767822-5.6488647,6.5767822-10.180542v-0.000061   c0-1.8602829-0.4641876-3.6911697-1.350502-5.3267441L90.6063156,65.5418701   c-2.7971115-5.1616936-8.1964569-8.3769531-14.0673065-8.3769531h-2.3736649c-1.0608673,0-2.0782928,0.4214287-2.8284378,1.1715775   l-2.6323166,2.6323166c-2.3431473,2.3431473-6.1421432,2.3431473-8.4852905,0l-2.6323242-2.6323242   c-0.750145-0.750145-1.7675552-1.1715698-2.8284187-1.1715698h-2.8065872c-5.8708649,0-11.2702179,3.215271-14.0673256,8.376976   L26.4669495,86.6118088c-0.8863087,1.6355743-1.3504944,3.4664536-1.3504944,5.3267288v0.000061   c0,4.5316772,2.7011108,8.4247437,6.5767822,10.180542H10.6586914c-0.5522461,0-1,0.4472656-1,1s0.4477539,1,1,1h51.4620361   h1.5817871h51.8848877c0.5522461,0,1-0.4472656,1-1S116.1396484,102.1191406,115.5874023,102.1191406z M76.2929688,88.8525391   l11.1313477-3.2001953c0.5327148-0.1513672,1.0854492,0.1542969,1.2373047,0.6845703   c0.152832,0.53125-0.1538086,1.0849609-0.6845703,1.2373047l-11.1313477,3.2001953   c-0.0922852,0.0263672-0.1855469,0.0390625-0.2768555,0.0390625c-0.4345703,0-0.8344727-0.2851562-0.9604492-0.7236328   C75.4555664,89.5585938,75.762207,89.0048828,76.2929688,88.8525391z M43.9516602,88.3232422   c-0.5429688-0.1015625-0.8999023-0.625-0.7978516-1.1679688c0.1030273-0.5419922,0.6259766-0.8974609,1.1679688-0.796875   l18.5895996,3.5041504v-0.0491333l7.6409302,1.3549194l-0.3119507-0.1019897l0.6888428,0.1221313   c1.2770996,0.2266846,2.4916382,0.6657715,3.6104126,1.2834473l-0.6182251-0.2021484   c3.3616943,1.6431885,5.8934937,4.7178955,6.7868042,8.4750977c0.1171265,0.4926758,0.0272827,0.9726562-0.1954956,1.3742676   H63.9116211H62.911377h-0.9997559V91.7089844L43.9516602,88.3232422z"></path><path d="M51.3012695,106H34.4008789h-0.0410156c-0.3525391,0-0.6791992,0.1855469-0.859375,0.4892578l-5.9052734,10   c-0.184082,0.3085938-0.1875,0.6923828-0.0097656,1.0048828S28.0952148,118,28.4545898,118h12.1147461h7.4365234h0.0605469   c0.4316406,0,0.8149414-0.2773438,0.949707-0.6875l3.2348633-10c0.1005859-0.3046875,0.0483398-0.6386719-0.1396484-0.8984375   S51.6220703,106,51.3012695,106z M32.4327393,112.2666626c4.8526001-0.1333008,7.2203369-3.007019,8.022522-4.2666626h9.4636841   l-1.1732788,3.5604858c-6.0571289,0.2334595-8.178772,3.0396729-8.8539429,4.4395142h-9.678833L32.4327393,112.2666626z"></path><path d="M101.9208984,113c0.3657227,0,0.7016602-0.1992188,0.8774414-0.5205078   c0.175293-0.3203125,0.1616211-0.7109375-0.0351562-1.0185547l-3.2021484-5C99.3769531,106.1738281,99.0595703,106,98.71875,106   H81.8183594c-0.3237305,0-0.6274414,0.15625-0.8149414,0.4208984c-0.1875,0.2636719-0.2358398,0.6015625-0.1293945,0.9072266   l1.7387695,5C82.7524414,112.7304688,83.1313477,113,83.5571289,113H101.9208984z M90.1240845,111l8.3222046-2.5714111   L100.0927734,111H90.1240845z M93.0604858,108l-8.8813477,2.7441406L83.2250977,108H93.0604858z"></path><path d="M104.3198242,115.4609375C104.1357422,115.1738281,103.8183594,115,103.4775391,115H84.4360352   c-0.3237305,0-0.6274414,0.15625-0.8149414,0.4208984c-0.1875,0.2636719-0.2358398,0.6015625-0.1293945,0.9072266l1.7382812,5   C85.3696289,121.7304688,85.7485352,122,86.1743164,122h20.5048828c0.3657227,0,0.7016602-0.1992188,0.8774414-0.5205078   c0.175293-0.3203125,0.1616211-0.7109375-0.0351562-1.0185547L104.3198242,115.4609375z M86.8852539,120l-1.0429688-3h17.0883789   l1.9208984,3H86.8852539z"></path><path d="M74.199707,106.8242188C74.1142578,106.3466797,73.699707,106,73.215332,106h-0.0532227h-6.4765625h-6.6000977   c-0.4584961,0-0.8579102,0.3115234-0.9697266,0.7558594l-3.5244141,14   c-0.0751953,0.2988281-0.0083008,0.6162109,0.1811523,0.859375C55.9619141,121.8574219,56.2529297,122,56.5610352,122h20.2495117   c0.3095703,0,0.6020508-0.1435547,0.7915039-0.3886719c0.1889648-0.2451172,0.2543945-0.5634766,0.1762695-0.8632812   L74.199707,106.8242188z M60.8647461,108h4.8760376c0.1380615,1.3392944,0.565918,2.4129028,1.2752686,3.2124023   l-8.833252,7.440918L60.8647461,108z M59.6876831,120l9.0315552-7.6079712   c0.7472534,0.295105,1.5424194,0.4107056,2.2954102,0.4107056c1.0039673,0,1.9185791-0.1842041,2.5359497-0.3462524L75.5166016,120   H59.6876831z"></path></g></svg>