<svg xmlns="http://www.w3.org/2000/svg" xmlns:xlink="http://www.w3.org/1999/xlink" version="1.1" x="0px" y="0px" viewBox="0 0 128 128" style="enable-background:new 0 0 128 128;" xml:space="preserve"><g><path d="M26.0356445,51.2412109c3.3704224,0,6.8773804-1.4064331,9.9373779-3.666748   c-1.4359741,2.1403809-3.3104858,3.7230835-5.477417,4.526123c-1.5537109,0.5761719-2.3461914,2.3027344-1.7705078,3.8554688   c0.4482422,1.2099609,1.5942383,1.9589844,2.8134766,1.9589844c0.3461914,0,0.6982422-0.0605469,1.0419922-0.1875   c3.4890747-1.2931519,6.447876-3.8115845,8.6038208-7.1705322C44.3474731,53.3162231,48.4729004,55,53,55   c7.3740845,0,13.7039795-4.4390869,16.4857178-10.7866211c0.0325317,0.4260864,0.0552979,0.862854,0.0552979,1.3217773   c0,1.6572266,1.3432617,3,3,3s3-1.3427734,3-3c0-1.3331299-0.1218262-2.5630493-0.3123779-3.7090454   c0.784668,0.420166,1.6412964,0.8037109,2.5921631,1.1279907c0.3208008,0.109375,0.6474609,0.1611328,0.96875,0.1611328   c1.2480469,0,2.4135742-0.7851562,2.8388672-2.0322266c0.534668-1.5683594-0.3027344-3.2734375-1.8710938-3.8085938   c-5.4042969-1.8427734-6.2148438-6.4013672-6.2412109-6.5605469c-0.0224609-0.1582031-0.0571289-0.3154297-0.1044922-0.46875   c-2.8375244-9.197876-12.4226685-12.7008667-15.6997681-13.6471558c-1.4006958-2.3870239-4.1740723-4.6868286-9.3807983-4.6868286   c-6.1513672,0-9.0673828,3.2138672-11.4101562,5.796875c-2.0776367,2.2900391-3.4501953,3.8037109-6.8955078,3.8037109   c-1.6567383,0-3,1.3427734-3,3s1.3432617,3,3,3c1.6066895,0,2.9867554-0.2260742,4.197937-0.5998535   c-1.618042,1.3460083-3.2637329,2.0373535-4.197937,2.0373535c-1.6567383,0-3,1.3427734-3,3s1.3432617,3,3,3   c1.3952026,0,3.0564575-0.4437256,4.7520752-1.2819824c-1.7857056,1.6700439-3.7106323,2.5251465-4.7520752,2.5251465   c-1.6567383,0-3,1.3427734-3,3s1.3432617,3,3,3c1.2564697,0,2.7286987-0.3587036,4.2473145-1.0405273   c-2.5374146,2.4779663-5.6939087,4.0893555-8.2370605,4.0893555c-1.6567383,0-3,1.3427734-3,3   S24.3789062,51.2412109,26.0356445,51.2412109z M53,53c-4.1586914,0-7.9395752-1.6081543-10.7877808-4.2183228   c-1.2442627-1.1402588-2.3120728-2.4665527-3.1473389-3.9460449c-0.3539429-0.6268921-0.6628418-1.2803955-0.9310303-1.9558716   c-0.4338989-1.0931396-0.7437134-2.2453003-0.9277954-3.4403687c-0.0910034-0.5908813-0.1494751-1.190918-0.1737061-1.8010864   C37.0238647,37.4249268,37,37.2154541,37,37c0-0.4763794,0.0305176-0.9454346,0.0714722-1.4113159   c0.3320312-0.0166016,0.6542969-0.0418091,0.9724731-0.0709229c1.2908325-0.118042,2.4743042-0.3314209,3.5491943-0.6339722   c1.0639038-0.2994995,2.026001-0.6808472,2.897522-1.1282349c4.3391113-2.227478,6.4151001-6.0778198,7.3922119-9.5498047   c0.5765991,2.0789795,1.8083496,4.3535767,4.4338989,5.5836182c1.6135254,0.7559814,2.8743896,2.0854492,3.383728,3.7929077   c0.8839111,2.9631348,3.1419067,7.0874634,8.843689,7.1433105C66.8585815,47.7539673,60.5379028,53,53,53z"></path><path d="M69.0844727,100.4960938c0.1835938,0.1435547,0.4013672,0.2138672,0.6181641,0.2138672   c0.2958984,0,0.5888672-0.1308594,0.7861328-0.3818359c0.3417969-0.4335938,0.2666016-1.0625-0.1669922-1.4042969   L57.2861328,88.6630859c-0.4335938-0.3388672-1.0620117-0.2666016-1.4042969,0.1679688   c-0.3417969,0.4335938-0.2666016,1.0625,0.1669922,1.4042969L69.0844727,100.4960938z"></path><path d="M114.8520508,46.984375l-2.9178467-2.241394l1.4656982-1.8650513   c0.3413086-0.4345703,0.2661133-1.0634766-0.1679688-1.4042969l-10.7055664-8.4140625   c-0.2084961-0.1640625-0.4692383-0.2373047-0.7373047-0.2070312c-0.2631836,0.0322266-0.503418,0.1669922-0.6669922,0.375   l-1.4855347,1.8902588l-2.9338989-2.2545166c-0.4375-0.3369141-1.065918-0.2548828-1.4023438,0.1835938   c-0.3364258,0.4375-0.2543945,1.0654297,0.1835938,1.4023438l2.916687,2.241272l-2.5256348,3.2136841L92.8671875,37.59375   c-0.4379883-0.3369141-1.0664062-0.2548828-1.4023438,0.1835938c-0.3364258,0.4384766-0.2543945,1.0664062,0.1835938,1.4023438   l2.9905396,2.2971802l-1.4280396,1.8170776c-0.3413086,0.4345703-0.2661133,1.0634766,0.1679688,1.4042969l1.1207886,0.8808594   c-1.1796875,1.5359497-2.0274658,3.3233643-2.4644775,5.2526855l-3.164917,4.020813   c-2.8054199-1.3026733-5.8951416-1.9095459-9.09198-1.7061157c-4.647583,0.2929688-9.0036621,2.3012695-12.244873,5.5772705   c-1.3604126-0.4660034-2.7883301-0.7227783-4.2435913-0.7227783H43.6123047c-4.130188,0-8.0698242,2.1571655-10.8549194,5.2070312   L12.8064575,85.0553589c-2.1092529,2.3097534-3.2787476,5.324707-3.2787476,8.4526978   c0,4.7608643,2.6970825,9.1108398,6.9614258,11.2276611l20.4970093,10.1748657l0.3633423-0.5327759v0.000061l-0.3633423,0.5327759   l0.2904663,0.0983276l0.3308105,0.1119385l0.6487427,0.2196045l0.9799805,0.331665l1.0797119,0.3654175   c3.9508057,1.3372192,8.093689,2.0192871,12.2646484,2.0192871h4.3410034c0.9874878,0,1.9293213-0.1859741,2.8039551-0.5103149   c1.5738525,0.3222046,3.1694336,0.5061646,4.7716064,0.5061646c0.4829102,0,0.9663086-0.0146484,1.4492188-0.0449219   c6.0053711-0.3740234,11.2490234-3.0410156,14.7651367-7.5087891c1.7202148-2.1845703,2.9267578-4.6748047,3.5864258-7.4023438   c0.0193481-0.0799561,0.0471802-0.1586914,0.0671387-0.2385254l7.4866333,5.6126099   c1.6134033,1.2095947,3.5755615,1.8634644,5.5921021,1.8634644c5.0583496,0,9.1938477-4.0338745,9.3197632-9.0906372   l0.8707886-34.9821777l-0.1592407-4.6915283c-0.0583496-1.7184448,0.1655273-3.4348145,0.6626587-5.0808716l0.7227783-2.3932495   c0.5119629-1.6950073,0.3870239-3.4871216-0.2877197-5.0755615l2.1254272-2.7045288l2.9351196,2.2546387   c0.1816406,0.1396484,0.3959961,0.2070312,0.6088867,0.2070312c0.2998047,0,0.5966797-0.1347656,0.793457-0.390625   C115.3720703,47.9482422,115.2900391,47.3203125,114.8520508,46.984375z M81.152832,81.3259277   c0.2645874,2.2208862-0.3516235,4.4118652-1.7349854,6.1693726c-1.5981445,2.0303345-3.9988403,3.1948242-6.5866089,3.1948242   c-0.3433228,0-0.6816406-0.0274658-1.0169678-0.0679321l8.8555298-11.2502441   C80.9030762,79.9957275,81.0720825,80.6478271,81.152832,81.3259277z M67.6592407,88.895874   c-0.6453247-0.5079346-1.2019043-1.0983887-1.6634521-1.7504883l9.9268799-12.6113892   c0.7427368,0.2954102,1.447876,0.6936035,2.0946045,1.2026978c0.6296997,0.4956665,1.1729736,1.071228,1.6278687,1.7045288   l-9.946106,12.6356812C68.9764404,89.7835083,68.2900391,89.3924561,67.6592407,88.895874z M64.5236816,83.3067017   c-0.2645874-2.2208862,0.3516235-4.4118652,1.7349854-6.1693726c1.5980225-2.0302124,3.9989624-3.1946411,6.5872803-3.1948242   c0.3208008,0,0.6370239,0.024353,0.9508667,0.0596924l-8.8135376,11.1969604   C64.7623901,84.5939331,64.6018066,83.9624634,64.5236816,83.3067017z M79.2542725,74.1651611   c-0.6470337-0.5093384-1.3379517-0.9222412-2.0535278-1.2548218l2.1465454-2.7269897l10.0687256-12.7915039   c1.2323608,0.718811,2.395874,1.585083,3.4511719,2.6247559c0.0603638,0.0594482,0.112793,0.1246948,0.1720581,0.1849365   c0.0209351,0.0491333,0.0386963,0.0993042,0.059021,0.1486206L82.2399902,74.1446533l-1.321106,1.6784058   C80.4356689,75.2225952,79.8857422,74.6621704,79.2542725,74.1651611z M106.9458618,53.5175171l-0.7227783,2.3932495   c-0.5615234,1.859314-0.8128052,3.7861328-0.7468872,5.7269287l0.0890503,2.6237183h-7.3997803H97.088623H96.0625   c-0.0565796-0.8200073-0.1889648-1.6264648-0.3775024-2.420105c-0.0908813-0.3825684-0.2007446-0.760498-0.3220215-1.1358032   c-0.173645-0.5374146-0.3695679-1.0691528-0.6051636-1.5899048c-0.0146484-0.0323486-0.0250854-0.0657959-0.039978-0.0980835   c-0.0731812-0.1587524-0.1208496-0.326355-0.1865234-0.487915c-0.7056885-1.7351685-1.0016479-3.6150513-0.8157349-5.4836426   l0.0363159-0.3650513c0.0344238-0.3457031,0.1081543-0.6793823,0.1721191-1.0161743   c0.3399048-1.7897339,1.0696411-3.4470825,2.1447754-4.852356c0.2028198-0.2650757,0.4294434-0.5109863,0.6548462-0.7576904   c0.2266235-0.2479248,0.4646606-0.4831543,0.7129517-0.7109985c0.4279785-0.3927002,0.8873291-0.7507935,1.3752441-1.0776367   c0.6685181-0.447876,1.3734741-0.8511353,2.1413574-1.1578979l1.7422485-0.6954956l-0.1113892,5.9770508l-0.0097046,0.5221558   c-0.0039673,0.1694336,0.010498,0.3358154,0.0371094,0.4989014c0.0788574,0.4833374,0.2952271,0.9266968,0.6205444,1.2978516   c0.0315552,0.0359497,0.0552979,0.0769043,0.0889893,0.1113892c0.4973755,0.5092163,1.1917114,0.8012695,1.9049683,0.8012695   c0.0112915,0,0.0219727-0.0031128,0.0332031-0.0032349c0.6871338-0.008667,1.331604-0.2778931,1.8155518-0.7567139   c0.0036621,0.0182495,0.0041504,0.0369873,0.0076294,0.0552979   C107.2438965,51.7681885,107.2053223,52.6585693,106.9458618,53.5175171z M107.4522095,47.159668l-1.7234497,2.2114258   c-0.1349487,0.1730957-0.3201294,0.2501831-0.5028076,0.2501831c-0.3352051,0-0.6616211-0.2597046-0.6521606-0.6623535   l0.1212769-6.5094604c0.0217285-1.1638794-0.9273682-2.0393066-1.9975586-2.0393066   c-0.2449951,0-0.496582,0.0458984-0.7440186,0.1447754l-1.7421875,0.6959229   c-1.6584473,0.6625366-3.1327515,1.6369019-4.3743896,2.8355713l-0.4355469-0.3422852L102.0766602,35.25l9.1328125,7.1777344   l-3.7386475,4.7573853C107.4641113,47.1769409,107.4589844,47.1677856,107.4522095,47.159668z M91.6665649,54.5326538   c0.0177612,0.6998291,0.0913086,1.3956299,0.2165527,2.0827026c-0.3989868-0.2849121-0.8030396-0.5578613-1.2189941-0.8091431   L91.6665649,54.5326538z M29.7814941,92.5725098l-1.0539551-0.6604004   c-0.4682617-0.2939453-0.6098633-0.9101562-0.3164062-1.3789062c0.2924805-0.4677734,0.9091797-0.6113281,1.3779297-0.3164062   l9.8585205,6.177124l1.0818481,0.6778564l1.18396,0.7418213c-1.1584473-5.3764038-0.1729736-10.9422607,3.2521362-15.2940674   c1.4165039-1.7988281,3.1547852-3.2783203,5.1674805-4.3984375c7.2084961-4.0146484,12.6459961-9.0068359,16.1611328-14.8369141   c0.3623047-0.6005859,0.7651367-1.1835938,1.1972656-1.7324219c0.5604858-0.7120361,1.1887817-1.3547363,1.8474121-1.9603882   c2.8291626-2.6016846,6.477478-4.2032471,10.3649902-4.4487915c0.3676758-0.0234375,0.7338867-0.0351562,1.0981445-0.0351562   c2.3048096,0,4.5328979,0.47052,6.5985718,1.3582764l-9.4777832,12.0408325l-2.921814,3.7119141   c-0.7765503-0.1810913-1.5667114-0.276001-2.3556519-0.2759399c-3.0707397,0.0001831-6.1115723,1.3577271-8.1582031,3.9578247   c-3.543457,4.50177-2.7666016,11.0236816,1.7351685,14.5671387c1.9016724,1.4968872,4.163208,2.2226562,6.4089966,2.2226562   c3.0707397,0,6.1115723-1.3577271,8.1582031-3.9578247c2.5855713-3.28479,2.8609009-7.6410522,1.0773315-11.1350708   l1.3977661-1.7757568l10.3547974-13.1549072c0.1781006,0.8590698,0.2772827,1.7349243,0.2792969,2.6173096l0.0022583,0.9775391   l-4.515686,21.6303101c-3.5622559,4.6794434-5.9935913,9.6157227-7.2316895,14.7342529   c-0.5913086,2.4462891-1.6728516,4.6796875-3.2133789,6.6367188c-3.159668,4.0136719-7.8891602,6.4111328-13.3183594,6.7490234   c-1.1509399,0.0714722-2.3023071,0.0280151-3.4477539-0.0853882c1.609314-1.4764404,2.6243286-3.59021,2.6243286-5.9462891   c0-0.9906006-0.7250977-1.8319092-1.7047729-1.9780884l-5.9614258-0.8897705   c-0.9937134-0.1483154-1.1726074-1.505127-0.2513428-1.9060059l0.6727295-0.2926636   c1.4404297-0.62677,2.1384888-2.1895142,1.7728271-3.6334839c-0.0688477-0.2718506-0.1619873-0.5406494-0.3095703-0.796936   c-0.5672607-0.9853516-1.6105347-1.5680542-2.7111816-1.5679932c-0.2421875,0-0.4873657,0.0282593-0.7306519,0.0866089   l-8.6515503,2.076355l-0.8414917,0.2019653l-0.2156372,0.3162231l-0.5639038,0.8268433l-2.7659912-1.7331543l-1.3324585-0.8348999   l-1.2520142-0.7844849L29.7814941,92.5725098z M54.9579468,116.0568848h-2.3774414   c-3.9609985,0-7.8717041-0.6438599-11.6234741-1.9136963l-0.5768433-0.1952515l-0.2572632-0.0870972l4.192749-6.1478882   l0.5883179-0.8626709l0.6099854-0.8944092l1.9853516-2.9111938l0.1375122-0.03302l7.2150269-1.7316284l1.3897705-0.3335571   c0.086853-0.020813,0.1757202-0.0313721,0.2642212-0.0313721c0.3163452,0,0.6121826,0.1376343,0.8233032,0.3649292   c0.057251,0.0615845,0.1115723,0.1265869,0.1544189,0.2010498c0.2192993,0.3807983,0.152771,0.7381592,0.0936279,0.9172974   s-0.2186279,0.5058594-0.621521,0.6811523l-0.6728516,0.2927246c-1.2398682,0.5394897-1.9541016,1.8026733-1.7772827,3.1431885   c0.1767578,1.3405151,1.1940918,2.3752441,2.5313721,2.5748291l5.9614258,0.8897705   c0,2.4207764-1.4263916,4.5093384-3.4797363,5.4856567c-0.5662842,0.2692261-1.178833,0.4539185-1.8243408,0.536438   c-0.2537231,0.0324097-0.510376,0.0547485-0.7727661,0.0547485H54.9579468z"></path></g></svg>