<svg xmlns="http://www.w3.org/2000/svg" xmlns:xlink="http://www.w3.org/1999/xlink" version="1.1" x="0px" y="0px" viewBox="0 0 128 128" style="enable-background:new 0 0 128 128;" xml:space="preserve"><g><path d="M13.4609375,30.6820068c3.1911621,0,5.3745117-1.847229,6.6348877-3.3753052   c0.0635986-0.0771484,0.1361084-0.1455688,0.2010498-0.2214355C19.4749756,28.5375366,19,30.2120972,19,32   c0,5.5228271,4.4771729,10,10,10s10-4.4771729,10-10s-4.4771729-10-10-10c-1.0467529,0-2.0554199,0.1622314-3.0036621,0.4605103   c-0.0195312-2.5904541-2.1223145-4.6854248-4.7174072-4.6854248h-0.0001221c-1.7514648,0-3.3684082,0.9625244-4.1749268,2.5172729   c-1.4733887,2.8400269-4.166748,7.1304932-7.1921387,7.6223145c-0.2935791,0.0477295-0.4486084,0.3835449-0.3052979,0.6442261   C10.0465088,29.3599243,11.1265869,30.6820068,13.4609375,30.6820068z M37,32c0,4.4111938-3.5887451,8-8,8   c-1.3601074,0-2.640625-0.3432007-3.7633057-0.944397c8.3770752-1.5621338,9.824585-9.2605591,10.0723877-11.9567261   C36.364624,28.4545288,37,30.152771,37,32z"></path><path d="M43.1168213,54.7414551c0,0,9.5756836-16.8306274,13.6612549-23.9983521   c1.0042725-1.7617798,0.4052734-4.0001831-1.3417969-5.0297241l-0.0756836-0.0445557   c-1.6176758-0.9532471-3.6729736-0.5214844-4.7572021,0.9893188c-2.59729,3.6194458-7.2437744,10.0845947-10.0697021,14.0162964   C39.0306396,42.7655029,36.6165771,44,34.0413818,44H23.5283203c-3.2547607,0-6.1850586,1.9718018-7.4108887,4.9868164   L6.5390625,72.5445557c-0.8056641,1.9816284,0.2773438,4.2254639,2.3299561,4.8275757   c1.7011719,0.4990234,3.5130615-0.3100586,4.2770996-1.90979l6.5435791-13.7012329c0,0,0,7.3530273-1.6604004,15.1090088   c-1.1691895,6.0664673-0.8925781,14.2419434-0.7587891,15.8204956l2.1870117,25.8358154   C19.6236572,120.4904785,21.2663574,122,23.2374268,122c2.0064697,0,3.6660156-1.562561,3.7866211-3.5654297l1.6279297-27.0222168   c0.0367432-0.6094971,0.5430908-1.0841675,1.1536865-1.0814819c0.6103516,0.0026855,1.1124268,0.4815674,1.144043,1.0911255   l1.3979492,26.9807739C32.4521484,120.4188843,34.1173096,122,36.1361084,122h0.1226807   c2.0117188,0,3.673584-1.5704346,3.7873535-3.5789185l1.805542-31.8637085   c0.8121338-10.581604-0.8199463-19.2381592-1.3067627-21.5110474c-0.0805664-0.3770142,0.0214844-0.760376,0.2452393-1.0744019   C43.4282227,60.2702026,43.1168213,54.7414551,43.1168213,54.7414551z"></path><path d="M97.1878662,47.4292603C95.6921387,45.2807617,93.2399902,44,90.6220703,44H75.4506836   c-2.6322021,0-5.0959473,1.2947388-6.5888672,3.4625854l-4.166748,6.0505981   c-0.6707764,0.9740601-2.0357666,1.1564331-2.9387207,0.3925781l-3.5498047-3.0026245   c-1.6536865-1.3988647-4.1032715-1.2976685-5.6359863,0.2328491l-0.0895996,0.0894775   c-1.7304688,1.7279663-1.6091309,4.5672607,0.2624512,6.1411743l9.0897217,7.644165   c1.5285645,1.2854614,3.7711182,1.24646,5.2540283-0.0914917l3.3356934-3.0095825   c0.3455811-0.3118286,0.8239746-0.4306641,1.2753906-0.3167725c0.6665039,0.1681519,1.111084,0.7967529,1.0476074,1.4811401   l-0.6738281,7.2634888L65.7976074,100h7.4053955l1.144043,19.1828003c0.1014404,1.7021484,1.5115967,3.0305786,3.2166748,3.0305786   c1.7177734,0,3.1335449-1.3473511,3.2185059-3.0629272L81.730957,100h2.0888672l1.144043,19.1828003   c0.1015625,1.7021484,1.5114746,3.0305786,3.2167969,3.0305786c1.7176514,0,3.1333008-1.3473511,3.2183838-3.0629272   L92.3479004,100h8.0852051l-6.5895996-29.6624146l-1.8393555-11.2501221l-0.0126953-1.9078979   c-0.0039062-0.5858765,0.7492676-0.8276367,1.0871582-0.348938l3.2648926,4.6274414   c0.1689453,0.239502,0.2442627,0.5326538,0.2114258,0.8239136l-0.8575439,7.6087646   c-0.0159912,0.1419067-0.0064697,0.2855225,0.0281982,0.4240723l1.923584,7.7003174   c0.0959473,0.3844604,0.4404297,0.6548462,0.836792,0.6567383c0.3831787,0.0018921,0.7220459-0.2479858,0.8336182-0.614563   l5.3288574-17.5166626c0.3200684-1.0523071,0.1401367-2.1932983-0.4882812-3.0960083L97.1878662,47.4292603z"></path><path d="M104,40c-0.3255615,0-0.6331787,0.0650635-0.9267578,0.1609497C103.642334,39.6149902,104,38.8508301,104,38   c0-1.6568604-1.3431396-3-3-3c-0.3255615,0-0.6331787,0.0650635-0.9267578,0.1609497C100.642334,34.6149902,101,33.8508301,101,33   c0-1.6568604-1.3431396-3-3-3c-0.4371338,0-0.8496094,0.0982666-1.2241211,0.2663574C96.9101562,29.8662109,97,29.4454346,97,29   c0-2.2091675-1.7907715-4-4-4c-1.12146,0-2.131958,0.4642944-2.8582764,1.2077637C88.3287354,23.6641846,85.3615723,22,82,22   c-5.5228271,0-10,4.4771729-10,10s4.4771729,10,10,10c5.2374268,0,9.5273438-4.0283813,9.9572754-9.1546631   C92.291748,32.9360352,92.6368408,33,93,33c0.7563477,0,1.4560547-0.2221069,2.0592041-0.5869141   C95.0214844,32.6030273,95,32.7989502,95,33c0,1.6568604,1.3431396,3,3,3c0.3255615,0,0.6331787-0.0650635,0.9267578-0.1609497   C98.357666,36.3850098,98,37.1491699,98,38c0,1.6568604,1.3431396,3,3,3c0.3255615,0,0.6331787-0.0650635,0.9267578-0.1609497   C101.357666,41.3850098,101,42.1491699,101,43c0,1.6568604,1.3431396,3,3,3s3-1.3431396,3-3S105.6568604,40,104,40z M82,40   c-4.4112549,0-8-3.5888062-8-8c0-2.0761719,0.8016357-3.9639893,2.1032715-5.3873901   c0.2374268,2.0089111,1.4291992,6.6132202,7.2878418,8.6110229c-0.6380615,0.5263672-1.1719971,1.2874756-1.1719971,2.3762207   c0,1.0699463,0.4350586,1.8029785,0.9613037,2.3031006C82.7940674,39.9605103,82.4020996,40,82,40z"></path><path d="M43,28h4c0.5527344,0,1-0.4477539,1-1s-0.4472656-1-1-1h-4c-0.5517578,0-1-0.4487305-1-1V11c0-0.5512695,0.4482422-1,1-1   h23c0.5517578,0,1,0.4487305,1,1v14c0,0.5512695-0.4482422,1-1,1h-6c-0.5527344,0-1,0.4477539-1,1s0.4472656,1,1,1h6   c1.6542969,0,3-1.3457031,3-3V11c0-1.6542969-1.3457031-3-3-3H43c-1.6542969,0-3,1.3457031-3,3v14   C40,26.6542969,41.3457031,28,43,28z"></path><path d="M64.9921875,14.578125c-0.390625-0.390625-1.0234375-0.390625-1.4140625,0L57.875,20.28125l-5.4736328-5.4736328   c-0.390625-0.390625-1.0234375-0.390625-1.4140625,0l-6.7988281,6.7988281c-0.390625,0.390625-0.390625,1.0234375,0,1.4140625   c0.1953125,0.1953125,0.4511719,0.2929688,0.7070312,0.2929688s0.5117188-0.0976562,0.7070312-0.2929688l6.0917969-6.0917969   l5.4736328,5.4736328c0.390625,0.390625,1.0234375,0.390625,1.4140625,0l6.4101562-6.4101562   C65.3828125,15.6015625,65.3828125,14.96875,64.9921875,14.578125z"></path><path d="M95.5292969,15.3081055L99,11.8374023V24c0,0.5522461,0.4472656,1,1,1s1-0.4477539,1-1V11.8374023l3.4707031,3.4707031   c0.1953125,0.1953125,0.4511719,0.2929688,0.7070312,0.2929688s0.5117188-0.0976562,0.7070312-0.2929688   c0.390625-0.390625,0.390625-1.0234375,0-1.4140625l-5.1777344-5.1777344c-0.390625-0.390625-1.0234375-0.390625-1.4140625,0   l-5.1777344,5.1777344c-0.390625,0.390625-0.390625,1.0234375,0,1.4140625S95.1386719,15.6987305,95.5292969,15.3081055z"></path><path d="M119.8388672,18.128418c-0.390625-0.390625-1.0234375-0.390625-1.4140625,0L115,21.5532227V9c0-0.5522461-0.4472656-1-1-1   s-1,0.4477539-1,1v12.6450195l-3.5166016-3.5166016c-0.390625-0.390625-1.0234375-0.390625-1.4140625,0   s-0.390625,1.0234375,0,1.4140625l5.1777344,5.1777344c0.1953125,0.1953125,0.4511719,0.2929688,0.7070312,0.2929688   c0.1335449,0,0.265625-0.0296021,0.3905029-0.0827637c0.175415-0.0650024,0.317749-0.1798706,0.4309082-0.324585   l5.0633545-5.0633545C120.2294922,19.1518555,120.2294922,18.519043,119.8388672,18.128418z"></path></g></svg>