<svg xmlns="http://www.w3.org/2000/svg" xmlns:xlink="http://www.w3.org/1999/xlink" version="1.1" x="0px" y="0px" viewBox="0 0 128 128" style="enable-background:new 0 0 128 128;" xml:space="preserve"><g><path d="M60.7705078,68.229248c3.1121826-0.7659912,5.9008789-1.0731201,7.9384766-1.182373   c0.3388672-0.0180664,0.6298828-0.1938477,0.7978516-0.4819336c0.0600586-0.1030884,0.0933838-0.2136841,0.1143799-0.3261719   c0.039917-0.2145386,0.0157471-0.4384155-0.0880127-0.6479492c-1.5979004-3.2218018-2.6224365-7.2030029-3.2883301-10.8621826   c-0.2686768,1.9746094-0.4937744,2.8012695-0.517334,2.883667c-0.5767822,2.5554199-1.371582,4.8057251-2.3703613,6.7562256   C62.6103516,65.8270874,61.7487793,67.1168823,60.7705078,68.229248z"></path><path d="M116,8H65c-1.6542969,0-3,1.3457031-3,3v9.0927124c0.7198486,0.8068237,1.3914795,1.6889648,2,2.6482544V11   c0-0.5512695,0.4482422-1,1-1h51c0.5517578,0,1,0.4487305,1,1v26c0,0.5512695-0.4482422,1-1,1H67.2045898   c-0.0081787,0.6890869-0.0186768,1.3546143-0.03125,2H116c1.6542969,0,3-1.3457031,3-3V11C119,9.3457031,117.6542969,8,116,8z"></path><path d="M105.6156006,96H71.6367188l0.5186768-3.8986816h11.8964844c4.8897705,0,9.2905273-2.9669189,11.1242676-7.4998169   l6.9699707-17.2296143l3.6932373-6.2994995c1.2758789-2.1763306,1.0541992-4.918335-0.5548096-6.8613892l-2.2955322-2.7720337   c-0.46875-0.5661011-0.5892334-1.34375-0.3138428-2.0251465l1.1726074-2.9005737   c0.607666-1.5031128-0.0400391-3.2210083-1.4888916-3.9487305c-0.4487305-0.2254028-0.925293-0.3319702-1.3947754-0.3319702   c-1.1602783,0.000061-2.2757568,0.6513672-2.8110352,1.770752l-8.2020264,17.1504517l-0.0020752-0.0010986l-1.5777588,3.0967407   l-4.1578369,8.1615601c-0.5231934,1.0268555-1.8037109,1.4002686-2.7967529,0.8156128l-7.800415-4.592041l-0.0007324-0.0004883   v0.000061l-2.2568359-1.3533936c-0.0437012,0.097229-0.0708008,0.1997681-0.1252441,0.2930298   c-0.5058594,0.8666992-1.4101562,1.4165039-2.4169922,1.4702148c-2.8251953,0.1518555-7.1572266,0.6933594-11.7519531,2.4125977   c-0.1315918,0.0493164-0.267334,0.0601807-0.4025879,0.072937c-0.2995605,0.1618042-0.6054688,0.3134766-0.9177246,0.454895   c-2.2900391,1.0375977-4.6982422,1.4238281-7.0126953,1.4238281c-6.5712891,0.0004883-12.3994141-3.1147461-12.7265625-3.2929688   c-7.6669922-4.5335083-14.2310791-5.1670532-19.137207-1.9095459c-0.8743896,0.7636719-1.6623535,1.6367798-2.3188477,2.6279907   c-1.5913086,2.4024048-2.3483887,5.2615356-2.1542969,8.1366577l2.5749512,38.1643066   C15.0402832,118.1845703,15.9125977,119,16.9649658,119h9.3062744c0.3989258-5.4311523,1.1342773-16.6956787,1.2893066-19.0727539   c0.0175781-0.2636719-0.0859375-0.5385742-0.2910156-0.7739258c-4.5625-5.2407227-3.3886719-12.105957-3.3369141-12.3955078   c0.0976562-0.543457,0.6191406-0.9052734,1.1601562-0.8061523c0.5429688,0.0966797,0.9042969,0.6157227,0.8085938,1.1591797   c-0.0107422,0.0615234-1.0439453,6.2260742,2.8769531,10.7294922c0.5537109,0.6367188,0.8300781,1.4238281,0.7783203,2.2172852   C29.4030762,102.4135742,28.6790771,113.5012207,28.2768555,119h22.7600098h17.5404053h31.3997803   c0.885498,0,1.6655273-0.5821533,1.9173584-1.4310303l5.6385498-19C107.9134521,97.2869873,106.9528809,96,105.6156006,96z    M99.9573975,44.8661499c0.2233887-0.4671021,0.666626-0.6335449,1.006958-0.633606   c0.1722412,0,0.3394775,0.0401001,0.4968262,0.1192017c0.5141602,0.2582397,0.7480469,0.878418,0.5323486,1.4119263   l-1.1727295,2.9007568c-0.5513916,1.364624-0.3109131,2.9165039,0.6278076,4.0501709l2.2955322,2.7720337   c1.0686035,1.2905273,1.2172852,3.1287842,0.369873,4.5742798l-2.7609863,4.7092896l-8.7911377-4.4401855L99.9573975,44.8661499z    M87,117H68.8432617H65v-9c0-0.5512695,0.4482422-1,1-1h4.173584H86c0.5517578,0,1,0.4487305,1,1V117z M99.9770508,117H89v-9   c0-1.6542969-1.3457031-3-3-3H70.4395752H66c-1.6542969,0-3,1.3457031-3,3v9H51.0368652l-5.6385498-19h25.9725342h34.244751   L99.9770508,117z"></path><path d="M70.296875,32.1875l8.5869141-8.5864258c0.390625-0.3896484,1.0234375-0.3896484,1.4140625,0l4.5185547,4.519043   c1.1337891,1.1328125,3.1103516,1.1313477,4.2421875-0.0004883l7.3007812-7.300293   c0.3769531-0.3774414,1.0371094-0.3774414,1.4140625,0l3.3662109,3.3666992c1.1708984,1.1708984,3.0742188,1.1689453,4.2431641,0   l9.0556641-9.0561523c0.390625-0.390625,0.390625-1.0234375,0-1.4140625s-1.0234375-0.390625-1.4140625,0l-9.0556641,9.0561523   c-0.3779297,0.3774414-1.0351562,0.378418-1.4150391,0L99.1875,19.4047852   c-1.1337891-1.1323242-3.1103516-1.1318359-4.2421875,0.0004883l-7.3007812,7.300293   c-0.3769531,0.3769531-1.0371094,0.3779297-1.4140625,0l-4.5185547-4.5185547   c-1.1699219-1.1699219-3.0722656-1.1699219-4.2421875,0l-8.5869141,8.5864258c-0.390625,0.390625-0.390625,1.0234375,0,1.4140625   c0.1953125,0.1953125,0.4511719,0.2929688,0.7070312,0.2929688S70.1015625,32.3828125,70.296875,32.1875z"></path><path d="M13.1171875,67.7519531c0.1464844,0.0859375,0.6572266,0.3320312,1.1542969-0.0976562   c2.1796875-1.8759766,5.3085938-3.5219727,9.5761719-3.5219727c1.5756836,0,3.3165283,0.2417603,5.2124023,0.7617798   c2.3807373,0.6530151,5.0117188,1.7549438,7.9311523,3.4818726c0.0683594,0.0366211,10.0507812,5.3583984,17.9365234,1.7832031   c0.0126953-0.0057983,0.0239258-0.0141602,0.0366211-0.0199585c0.3925781-0.1796875,0.7626953-0.397644,1.1326904-0.6160278   c0.5535889-0.3268433,1.0845947-0.6920166,1.5872803-1.1051636c1.2844238-1.055481,2.3952637-2.4019165,3.3428955-4.0137939   c0.4454346-0.7575684,0.8616943-1.5621948,1.2315674-2.4411011c-0.5812988-0.0118408-1.1730957-0.0151367-1.7333984-0.0439453   c-0.3630371-0.0186768-0.7016602-0.0565796-1.0561523-0.0821533c-0.3527832-0.0254517-0.7060547-0.0505371-1.050415-0.0826416   c-3.2259521-0.3010864-6.0814209-0.8901367-8.6119385-1.6965942c-0.1672363-0.0140991-0.3293457-0.0622559-0.46875-0.1542358   c-7.2242432-2.4176025-11.7386475-6.607666-14.5356445-10.8252563c-0.6953125-1.0487061-1.2766113-2.0955811-1.7775879-3.1189575   c-0.9694824-1.9798584-1.6082764-3.855835-2.0241699-5.4424438C30.3648682,38.7940674,30,36.94104,30,35   c0-8.8224487,7.1776123-16,16-16s16,7.1775513,16,16c0,0.5751953-0.0336914,1.1424561-0.0932617,1.7021484   c-0.0637207,1.2810669-0.229126,3.3441772-0.651123,5.7510376c-0.1694336,0.9664917-0.3817139,1.9859009-0.6445312,3.0317383   c-1.2244873,4.8734131-3.574707,10.2830811-8.0778809,13.2851562c2.0285645,0.4971313,4.2617188,0.8552856,6.7158203,1.0479736   c0.3486328,0.0273438,0.6921387,0.0585938,1.0498047,0.0790405c0.350708,0.0200806,0.7109375,0.0325317,1.0703125,0.0457764   c0.5319824,0.0196533,1.0690918,0.0350342,1.6206055,0.0392456c0.2967529-0.9074707,0.5712891-1.8497314,0.800293-2.8629761   c0.0136719-0.0504761,0.371582-1.3934326,0.7265625-4.8756714c0.104126-1.022583,0.2078857-2.2352905,0.3028564-3.6483765   c0.0876465-1.3046265,0.1678467-2.7786865,0.2331543-4.451416C65.1020508,42.8773804,65.1425781,41.4942627,65.1722412,40   c0.0128174-0.6444092,0.0234375-1.3112183,0.0317383-2c0.0135498-1.1231079,0.0216064-2.2988281,0.0216064-3.5439453   c0-2.7324829-0.4567871-5.1261597-1.2255859-7.2201538c-0.53125-1.4467773-1.2119141-2.7493286-2-3.916626   c-4.3376465-6.4242554-11.8824463-8.7763062-15.140625-8.7763062l-0.1337891-0.0087891   c-0.6123047-0.0830078-15.0566406-1.7949219-19.3955078,15.2504883c-0.0078125,0.0380859-1.4765625,6.5429688-3.1777344,12.4057617   c-1.3300781,4.5878906-3.3662109,8.5878906-6.0527344,11.8881836c-2.5732422,3.1606445-4.3056641,7.1733398-5.4501953,12.6274414   C12.5166016,67.3413086,12.9736328,67.6669922,13.1171875,67.7519531z"></path><path d="M39.3988037,51.7337646c2.5010986,2.4945679,5.8786621,4.7410889,10.4243164,6.2608032   c3.7335205-1.706543,6.0938721-5.2631226,7.5806885-9.0705566c0.2597656-0.6651611,0.4924316-1.336853,0.7019043-2.0081787   c0.2368164-0.7598267,0.442627-1.5164185,0.6225586-2.2606201C55.8033447,48.5014038,51.1937256,51,46,51   c-3.777832,0-7.2481689-1.3233643-9.9884033-3.5211182c0.4857178,0.7765503,1.036499,1.5535889,1.6546631,2.3220825   C38.192627,50.4555664,38.765625,51.1022949,39.3988037,51.7337646z"></path><path d="M57.4995117,26.8092651c-2.6724854-3.5778809-6.9106445-5.8896484-11.6818848-5.8896484   c-4.7713623,0-9.0095215,2.3117676-11.6818848,5.8895874c-0.9733887,1.3032227,0.0041504,3.164856,1.6308594,3.164856h20.1020508   C57.4952393,29.9740601,58.4729004,28.1124878,57.4995117,26.8092651z"></path></g></svg>