<svg xmlns="http://www.w3.org/2000/svg" xmlns:xlink="http://www.w3.org/1999/xlink" version="1.1" x="0px" y="0px" viewBox="0 0 128 128" style="enable-background:new 0 0 128 128;" xml:space="preserve"><g><path d="M57.6191406,45.5393677l5.1452637-1.9851685C65.9489746,48.6213989,71.5733643,52,78,52   c6.5356445,0,12.2404785-3.494873,15.3937988-8.7061768l5.8201904,2.2455444   c1.4014893,0.5407104,2.8933105-0.5198364,2.8553467-2.0214844c-0.2088623-8.2476807-2.7392578-30.0408936-23.652832-30.0408936   S54.9726562,35.2702026,54.763916,43.5178833C54.7258301,45.0195312,56.2177734,46.0800781,57.6191406,45.5393677z M78,50   c-8.8223877,0-16-7.1775513-16-16c0-1.3833008,0.1949463-2.7188721,0.5266113-4h3.9445801   c-0.8613281,1.0386963-1.3795166,2.3721313-1.3795166,3.8268433c0,3.3137207,2.6862793,6,6,6   c2.9720459,0,5.4328613-2.163208,5.9100342-4.9996948h2.1799316c0.4771729,2.8364868,2.9379883,4.9996948,5.9100342,4.9996948   c3.3137207,0,6-2.6862793,6-6c0-1.4547119-0.5181885-2.788147-1.3795166-3.8268433h3.7612305   C93.8050537,31.2811279,94,32.6166992,94,34C94,42.8224487,86.8223877,50,78,50z M77.001709,32.8271484   c-0.3511963-2.0894775-1.7780762-3.8102417-3.6954346-4.5730591l1.3514404-1.3429565   c0.8227539-0.8175659,2.1523438-0.8133545,2.9698486,0.0093384l2.4443359,2.4597168   c0.1719971,0.1731567,0.3743896,0.3063354,0.5906982,0.4091797c-0.7595215,0.8326416-1.2858887,1.8775024-1.480957,3.0377808   H77.001709z M69.9916992,30c0.3518066-0.1015015,0.7159424-0.1731567,1.0999756-0.1731567   c0.1130371,0,0.2193604,0.0241699,0.3300781,0.0333862c2.0491943,0.1710205,3.6699219,1.8740234,3.6699219,3.9666138   c0,2.2056274-1.7944336,4-4,4s-4-1.7943726-4-4C67.0916748,32.0053101,68.322998,30.4815063,69.9916992,30z M89.0916748,33.8268433   c0,2.2056274-1.7944336,4-4,4s-4-1.7943726-4-4c0-1.8215332,1.2313232-3.3453369,2.9000244-3.8268433   c0.3518066-0.1015015,0.7159424-0.1731567,1.0999756-0.1731567S85.8398438,29.8984985,86.1916504,30   C87.8603516,30.4815063,89.0916748,32.0053101,89.0916748,33.8268433z"></path><path d="M112.0040283,83.6829224l-4.9332275-13.9998169c-3.1013184-8.8012695-11.4177246-14.6884155-20.7495117-14.6884155   H72.987793c-3.4145508,0-6.7822266,0.7947998-9.8364258,2.3214722L49.7799072,64H40v-9c0-2.2060547-1.7939453-4-4-4h-4.5   c-4.1357422,0-7.5,3.3642578-7.5,7.5c0,0.1230469,0.0029297,0.2451172,0.0087891,0.3662109   C24.0029297,58.9101562,24,58.9550781,24,59v16.5576782c-1.6661377,0.1803589-3.2232666,0.9499512-4.3796387,2.1858521   c-1.2197266,1.3034058-1.8984375,3.0218506-1.8984375,4.8070068v3.0865479c0,3.1519165,2.0964355,5.9191895,5.1306152,6.772522   C23.2307129,92.5160522,23.614502,92.59198,24,92.6487427v8.0514526C24,104.7255859,27.2744141,108,31.2998047,108H32h20.008667   v7.96521c0,1.1045532,0.8953857,2,2,2H99c1.1044922,0,2-0.8954468,2-2v-7.1507568h-1.6279297   c-2.7050781,0-5.3640137-0.4362793-7.9025879-1.2562256c-0.5268555-0.170166-1.0490723-0.3544312-1.5644531-0.5587158   C89.1572266,106.703186,88.4248047,106.3668213,87.7050781,106H73v-4c0-0.5527344-0.4472656-1-1-1h-4v-4   c0-0.5527344-0.4472656-1-1-1h-4v-4c0-0.5527344-0.4472656-1-1-1h-4V80v-8c0-0.5527344-0.4472656-1-1-1H46.986084h-1.6745605   c-0.2587891,0-0.5068359,0.1005859-0.6933594,0.2792969L43,72.836792V70c0-0.5527344-0.4472656-1-1-1h-3   c-0.5527344,0-1,0.4472656-1,1v7.6494141l-1.6933594,1.6298828c-0.0023193,0.0021973-0.0029297,0.0053101-0.005249,0.0075684   c-0.0731201,0.0715332-0.1256104,0.1601562-0.1739502,0.2511597c-0.0131836,0.0249023-0.0366211,0.0448608-0.0476074,0.0705566   c-0.0092773,0.0218506-0.0074463,0.0482178-0.0151367,0.0708618c-0.034668,0.1016235-0.0620117,0.2053223-0.0629883,0.3116455   C36.001709,79.9942627,36,79.9968262,36,80v17v4h-4c-0.5527344,0-1,0.4472656-1,1v3.9696655   c-2.7801514-0.1590576-5-2.4502563-5-5.2694702v-7.9794922c0.9313965-0.067688,1.8537598-0.2704468,2.7329102-0.6210327   l1.5649414-0.6241455c2.0371094-0.8123779,3.373291-2.7840576,3.373291-4.9771118   c0-2.1796875-1.3203125-4.1422119-3.3393555-4.9634399L26,79.7730103V63.59375C27.3710938,65.0732422,29.3291016,66,31.5,66H33h6   h6.8962402h44.0041504C90.5068359,66,91,66.4931641,91,67.0996094v19.8028564l1,0.3804321l1,0.3803711l4.5175781,1.7185669   c0.5166016,0.1962891,0.7753906,0.7744141,0.5791016,1.2900391c-0.1166992,0.3084717-0.3742676,0.508667-0.6691895,0.5914917   c-0.1989746,0.0558472-0.4123535,0.0675049-0.6208496-0.0123901L93,89.8029785l-1-0.3804321l-1-0.3803711l-12.7189941-4.8381958   l0.0131836-0.0217896l-0.8210449-0.9840088l-0.680542-0.8154907l-0.4571533-0.5478516   c-2.9559326-3.5421753-7.019043-5.9852295-11.5336914-6.9349365h-0.0001221   c-0.2192383-0.0461426-0.4390869-0.0684204-0.6561279-0.0684814c-1.234375,0-2.3845215,0.7214355-2.9039307,1.8853149   c-0.4671631,1.0471802-0.3347168,2.2647705,0.3468018,3.1869507l1.4898682,2.0160522   c0.8187256,1.1079712,1.083374,2.5306396,0.7177734,3.8590088c-0.3436279,1.2484131-0.1313477,2.5844116,0.5821533,3.664856   c1.0482178,1.5874023,2.6225586,2.7543945,4.4460449,3.2959595l1.6793213,0.4987183l0.9854736,0.2926636l0.9841309,0.2922363   l0.0708008-0.1172485l-0.0888672,0.1534424l13.9511719,9.1005859c1.430542,0.9327393,2.946167,1.7005615,4.520752,2.3007202   c0.3127441,0.1191406,0.6315918,0.2193604,0.9488525,0.3250732c0.3148193,0.1048584,0.6289062,0.2109985,0.947876,0.3025513   c2.1159668,0.6074829,4.3157959,0.9261475,6.5483398,0.9261475l2.3886719-0.1019287   c6.5524902-0.5286255,11.7473145-5.9310913,11.8897705-12.6161499v-0.000061   C113.7259521,90.5548706,113.168457,87.0283813,112.0040283,83.6829224z M70.9677734,57.7392578   c0.328125-0.4423828,0.9501953-0.5371094,1.3955078-0.2109375c0.0678711,0.0489502,0.6400146,0.4413452,1.626709,0.8059082   c1.5761719,0.5823364,4.230835,1.0834961,7.697998,0c0.7301025-0.2281494,1.4914551-0.5180054,2.2905273-0.9016113   c0.4990234-0.2421875,1.0947266-0.0292969,1.3339844,0.46875c0.2392578,0.4970703,0.0292969,1.0947266-0.46875,1.3339844   c-2.7167969,1.3046875-5.1220703,1.7441406-7.1269531,1.7441406c-3.984375,0-6.3916016-1.7324219-6.5400391-1.8417969   C70.7324219,58.8095703,70.6386719,58.1826172,70.9677734,57.7392578z M26,58.5c0-3.0322266,2.4677734-5.5,5.5-5.5H36   c1.1025391,0,2,0.8974609,2,2s-0.8974609,2-2,2h-3c-0.5527344,0-1,0.4472656-1,1v0.125V64h-0.5   c-2.9064941,0-5.2880859-2.2689819-5.4812012-5.1273804C26.010498,58.7489014,26,58.6257935,26,58.5z M34,59h2   c0.7319336,0,1.4093018-0.211792,2-0.5562134V64h-4V59z M26,90.7208252   c-0.2202148,0.0203247-0.4416504,0.031311-0.6645508,0.031311c-0.1123047,0-0.2233887-0.0177612-0.3354492-0.0230103   c-0.3363037-0.0158691-0.6694336-0.055603-1-0.1184082c-0.2028809-0.0385132-0.4069824-0.0703735-0.605957-0.1264038   c-2.1621094-0.6080933-3.6721191-2.6013184-3.6721191-4.847229v-3.0865479c0-1.2822876,0.4824219-2.5041504,1.3586426-3.4404907   c0.7739258-0.8270264,1.8085938-1.3662109,2.9172363-1.5366821v2.1987915v1.3455811L24,81.1185913l1,0.4067993l0.2443848,0.0993652   L26,81.9321289l3.578125,1.4554443c1.2714844,0.5171509,2.0930176,1.7382202,2.0930176,3.1108398   c0,1.3827515-0.829834,2.6071777-2.1142578,3.1193848l-1.5649414,0.6241455   C27.3500977,90.4979248,26.6824951,90.6577148,26,90.7208252z M38,81h11.1657715H56v11v4h-3.991333H38V81z M45.7148438,73   h1.7072754H56v6h-7.2700195h-9.2489014L45.7148438,73z M40,71h1v3.7618408l-1,0.9625244V71z M33,103h4c0.5527344,0,1-0.4472656,1-1   v-4h14.008667H57c0.5527344,0,1-0.4472656,1-1v-4h3v4c0,0.5527344,0.4472656,1,1,1h4v4c0,0.5527344,0.4472656,1,1,1h4v3H52.008667   H33V103z M69.3936768,90.8223267c-1.3704834-0.4069824-2.55896-1.2880249-3.3465576-2.480835   c-0.3956299-0.5991821-0.5133057-1.3397827-0.3227539-2.0320435c0.5318604-1.9328003,0.1536865-3.9660645-1.0377197-5.5783691   l-1.4898682-2.0160522c-0.2525635-0.3417969-0.3018799-0.7952881-0.1287842-1.1832275   c0.1898193-0.4254761,0.612793-0.7003784,1.0773926-0.7003784c0.081543,0,0.1638184,0.008667,0.2446289,0.0256348   c4.0567627,0.8533936,7.7537842,3.0762939,10.40979,6.2591553l0.9240723,1.1072998l0.1213379,0.1453857l-4.2850342,7.0968628   l-0.0257568-0.0076294L69.3936768,90.8223267z"></path><path d="M18.6269531,50.9560547c0.4619141,0.2490234,0.9677734,0.3730469,1.4736328,0.3730469   c0.5927734,0,1.1845703-0.1708984,1.7001953-0.5087891l16.8105469-11.0322266   c0.7089844-0.4648438,1.1865234-1.1796875,1.3447266-2.0126953c0.1582031-0.8339844-0.0234375-1.6738281-0.5126953-2.3671875   L22.6328125,11.5986328c-0.7949219-1.1240234-2.1552734-1.5849609-3.4707031-1.1660156   C17.8486328,10.8496094,17,12.0097656,17,13.3876953V21v7v8v7v5.2285156   C17,49.3691406,17.6230469,50.4140625,18.6269531,50.9560547z M19,13.3876953c0-0.7470703,0.5878906-0.9921875,0.7675781-1.0488281   c0.0683594-0.0214844,0.1992188-0.0546875,0.359375-0.0546875c0.2626953,0,0.6044922,0.0898438,0.8710938,0.46875   L37.8095703,36.5625c0.1728516,0.2451172,0.2382812,0.5439453,0.1816406,0.8388672   c-0.0556641,0.2958984-0.2255859,0.5498047-0.4775391,0.7148438L20.703125,49.1484375   c-0.3427734,0.2246094-0.7636719,0.2421875-1.1259766,0.0478516C19.2158203,49.0009766,19,48.6396484,19,48.2285156V44h2   c0.5527344,0,1-0.4472656,1-1s-0.4472656-1-1-1h-2v-5h2c0.5527344,0,1-0.4472656,1-1s-0.4472656-1-1-1h-2v-6h2   c0.5527344,0,1-0.4472656,1-1s-0.4472656-1-1-1h-2v-5h2c0.5527344,0,1-0.4472656,1-1s-0.4472656-1-1-1h-2V13.3876953z"></path><path d="M24.5253906,40.0830078C24.6738281,40.1630859,24.8369141,40.203125,25,40.203125   c0.1914062,0,0.3828125-0.0546875,0.5488281-0.1640625l5.515625-3.6191406   c0.2265625-0.1484375,0.3828125-0.3828125,0.4335938-0.6494141s-0.0087891-0.5419922-0.1660156-0.7636719l-5.515625-7.8115234   c-0.2509766-0.3554688-0.703125-0.5058594-1.1191406-0.3759766C24.2822266,26.9511719,24,27.3369141,24,27.7724609V39.203125   C24,39.5703125,24.2011719,39.9082031,24.5253906,40.0830078z M26,30.9228516l3.1015625,4.3925781L26,37.3505859V30.9228516z"></path></g></svg>